<?xml version="1.0" standalone="no"?>
<!DOCTYPE svg PUBLIC "-//W3C//DTD SVG 1.1//EN" "http://www.w3.org/Graphics/SVG/1.1/DTD/svg11.dtd" >
<svg xmlns="http://www.w3.org/2000/svg" xmlns:xlink="http://www.w3.org/1999/xlink" version="1.1">
<metadata></metadata>
<defs>
<font id="shrekregular" horiz-adv-x="2254" >
<font-face units-per-em="2048" ascent="1638" descent="-410" />
<missing-glyph horiz-adv-x="890" />
<glyph horiz-adv-x="0" />
<glyph unicode="&#xd;" horiz-adv-x="890" />
<glyph unicode=" "  horiz-adv-x="890" />
<glyph unicode="&#x09;" horiz-adv-x="890" />
<glyph unicode="&#xa0;" horiz-adv-x="890" />
<glyph unicode="!" horiz-adv-x="1103" d="M1094 -258q-4 -20 -35 -66q-203 20 -426 21q-219 0 -432 -21q-10 29 -33 66q66 66 141 65q16 10 30.5 19.5t14.5 50.5v969q-45 84 -131 123q-45 23 -137 37q-68 12 -75 28.5t-7 36.5q0 63 41 127q49 78 139 115q20 10 74 -90q63 -117 115 -148q16 -4 39 -4q66 0 232.5 49 t211.5 49q37 0 47 -16q57 100 62 -61q2 -109 -21 -390q-25 -289 -24 -335q0 -338 12 -539q47 -16 92 -35q56 -20 70 -51z" />
<glyph unicode="&#x22;" horiz-adv-x="1640" d="M1778 1036q-53 -35 -158 -69q-119 -43 -158 -62q72 -184 72 -268q0 -88 -57 -199q-117 -121 -310 -276q-160 -129 -321 -258v-15q166 -6 403 54q29 25 45 69l29 76q137 0 188 -29q0 -246 -28 -383h-1381q-29 16 -79 56q0 8 1 56t5 75q94 80 307 215q236 150 332 221 q178 135 276 274q20 37 -2 111q-104 172 -293 172q-227 0 -563 -252q-16 0 -41 39t-25 74q10 25 66 69q78 68 107 97q-45 74 -136 110q-49 20 -139 35q-66 12 -68 23.5t-2 25.5q0 74 48.5 161t87.5 75q6 6 12 6q16 0 59 -66q63 -98 103 -143q78 -92 172 -139q217 84 504 84 q285 0 471 -84q70 25 174 164q55 76 112 151l84 27q117 -92 117 -209q0 -37 -14 -68z" />
<glyph unicode="#" horiz-adv-x="1527" d="M1518 877q-41 -10 -119 -41q-20 -86 -21 -199q0 -66 9.5 -192t9.5 -187q0 -176 -62 -285q-80 -139 -274 -221q-190 -31 -316 -31q-494 0 -618 381v734q-41 10 -123 41q0 51 27 77q154 -16 321 -16q166 0 320 16l49 -51q-16 -18 -71.5 -41.5t-74.5 -44.5v-751 q98 -160 302 -160q152 0 268 102q74 168 74 510q0 188 -25 318q-4 2 -72 26q-41 16 -53 41q2 14 27 51q92 -16 198 -16q104 0 197 16q27 -26 27 -77z" />
<glyph unicode="$" horiz-adv-x="2289" d="M2273 858q-27 -18 -172 -68.5t-213 -105.5q-104 -84 -104 -217q0 -20 2 -41q-12 -14 -12 -27q0 -23 43 -22h368q0 -27 -14 -111t-14 -114q-262 0 -373 -27q-4 -166 -6 -182q-6 -100 -25 -164q-340 -57 -623 -58q12 272 -28 429h-858q-66 66 -66 190q102 102 139 145 q82 90 119 166q-51 86 -155 121q-86 18 -171 36.5t-106 72.5q49 164 121 270q35 12 63 12q70 0 119 -82q37 -68 76 -133q74 -86 238 -196q215 215 290 286q158 154 310 285h563v-463q14 -23 41 -22q45 43 125 155q98 137 131 176q45 12 71 13q39 -37 80 -123q47 -96 47 -162 q0 -23 -6 -39zM1120 385v539q-199 -182 -567 -539h567z" />
<glyph unicode="%" horiz-adv-x="1574" d="M1720 1042q-8 -4 -176 -73q-106 -43 -176 -101q10 -45 -29 -125h-929q-63 -45 -64 -157q0 -49 19 -82q197 35 391 35q279 0 444 -78q203 -96 203 -303q0 -68 -23 -146q-133 -174 -376 -262q-211 -76 -469 -76q-365 0 -566 123q0 86 29 103q41 16 80 2q156 -90 364 -90 q164 0 269 61q117 70 116 197q0 90 -59 202q-78 76 -248 76q-178 0 -403 -80q-12 29 -13 78q0 86 39 262l62 262q-43 72 -129 101q-70 14 -141.5 30.5t-86.5 61.5q14 57 27 117q27 74 102 131q47 12 168 -147.5t146 -159.5h1014q63 0 233 282l82 25q33 -29 68 -103 q39 -80 38 -133q0 -21 -6 -33z" />
<glyph unicode="&#x26;" horiz-adv-x="1447" d="M1649 1047q-51 -53 -99 -54q-6 0 -20 2h-23q-68 0 -161 -77q0 -70 -9 -93q-172 -264 -319 -571q-248 -508 -260 -533q-131 -20 -580 -20q-10 4 -10 20q0 86 265 429.5t542 615.5q0 8 7 20.5t7 16.5q0 8 -8 16h-578l-86 -86q6 -102 -30 -147q-123 0 -178 28q0 213 -23 326 q-53 66 -157.5 78t-125.5 43q-10 20 -10 49q0 63 41 126.5t96 74.5q37 8 89.5 -74t105.5 -162q70 -90 137 -92h930q76 0 276 301l82 27q31 -31 66 -103q39 -78 39 -129q0 -20 -6 -32z" />
<glyph unicode="'" horiz-adv-x="217" d="M156 1399q55 -47 55 -117t-50 -139.5t-116 -102.5q-10 0 -21.5 22.5t-5.5 33.5q70 35 86 108q-12 16 -36 25q-39 12 -43 14q-20 37 -17 109l45 47h103z" />
<glyph unicode="(" horiz-adv-x="1636" d="M1751 1049q-53 -33 -154 -68q-115 -39 -153 -57q203 -227 203 -490q0 -174 -95 -321q-150 -219 -417 -330q-229 -94 -500 -94q-66 0 -129 6q-164 14 -213 24q-129 23 -221 82q-16 16 -17 54q0 41 19 61q59 23 82 14q211 -90 417 -90q426 0 586 400q0 57 -31 57 q-178 -172 -503 -172q-207 0 -361 59q-117 43 -186 150q-63 100 -64 221q0 211 176 307q20 12 21 35q-59 61 -145 82q-63 12 -127 22q-53 14 -62 64q51 174 131 252q8 8 17 8q23 0 73 -80q72 -117 113 -164q84 -94 178 -120q178 80 445 79q209 0 456 -49q66 4 151 96.5 t126 202.5l84 27q43 -23 75.5 -93.5t32.5 -129.5q0 -27 -8 -45zM1036 393q53 55 54 137q0 115 -91.5 232t-207.5 151q-131 39 -224 -55q-20 -12 -29.5 -35.5t-17.5 -34.5q-2 -33 -2 -65q0 -178 75 -287.5t210 -109.5q106 -1 233 67z" />
<glyph unicode=")" horiz-adv-x="1765" d="M1755 1042q-29 -23 -158 -51q-111 -27 -174 -98q180 -129 242 -264q47 -104 47 -291q0 -360 -272 -537q-213 -137 -537 -137q-317 0 -545 143q-285 182 -284 531q0 305 215 493q29 80 28 78q-59 66 -179 103t-127 52t-7 32q0 74 50 146.5t100 80.5q100 -119 198 -236 q106 -119 142 -118q18 0 185 21.5t236 23.5q25 0 155 -22.5t155 -22.5q92 0 205 104q109 96 153 203q57 25 78 16q94 -78 94 -131v-119zM1247 315q0 172 -65 318q-94 205 -279 205q-193 0 -278 -176q-63 -129 -64 -334q0 -190 53 -318q84 -193 279 -192q43 0 110.5 27.5 t106.5 64.5q53 72 95 195.5t42 209.5z" />
<glyph unicode="*" horiz-adv-x="1613" d="M1767 1034q-53 -35 -157 -67q-117 -41 -158 -60q63 -47 64 -114q0 -100 -125 -215q-117 -104 -209 -119q145 -31 305 -137q49 -33 82 -117q29 -76 28 -150q0 -35 -8 -57q-129 -160 -375 -246q-223 -78 -485 -78q-270 0 -471 80q-215 82 -266 221q-10 106 78 248 q111 96 186 121q84 25 147 31q37 4 48 14q-94 0 -230 105q-152 115 -151 237q0 88 88 164q-51 53 -138 80q-63 16 -126 31q-55 14 -54 45q51 180 133 260q55 10 138 -119q96 -158 184 -199q250 94 522 94q266 0 502 -94q119 20 260 291l86 27q33 -31 70 -107q39 -82 39 -135 q-1 -21 -7 -35zM1061 711q6 98 -29 157q-20 10 -49 43q-23 27 -51 33q-68 16 -121 17q-51 0 -133 -17l-82 -80q-6 -123 27 -184q59 -45 116 -92q66 -37 191 -33q76 54 131 156zM1085 -76q0 158 -51 236q-84 76 -102 88q-63 39 -160 39q-31 0 -67 -2q-100 -70 -101 -219 q0 -125 98 -222q76 -25 138 -24q124 0 245 104z" />
<glyph unicode="+" horiz-adv-x="1241" d="M1231 27q-25 -98 -88 -303q35 0 -549 8q-338 4 -565 -8q-25 25 -25 79q12 0 45 11.5t43 11.5q12 8 23.5 15t11.5 40v891q8 45 -55.5 63.5t-63.5 36.5q0 6 4 15q-2 2 -4 6q0 45 670 45q303 0 510 -12q-23 -88 -23 -285q-10 0 -46 -11.5t-46 -11.5q-29 12 -50.5 54.5 t-21.5 77.5q-63 80 -190 94q-96 2 -190 4l-37 -37q2 -92 2 -184q4 -98 16 -178q123 -4 217 22q61 55 62 123h75v-430h-77q0 10 -11.5 43t-11.5 43q-45 45 -123 55q-43 6 -151 4q0 -266 22 -426l37 -37q172 -4 250 23q143 47 176 205q113 0 164 -47z" />
<glyph unicode="," horiz-adv-x="217" d="M152 92q55 -47 55 -117t-50.5 -139t-115.5 -102q-10 0 -21.5 22.5t-7.5 32.5q72 35 88 109q-12 16 -37 24q-39 12 -43 15q-20 37 -16 108l45 47h103z" />
<glyph unicode="-" horiz-adv-x="1597" d="M1587 -221q8 -51 -41 -51h-285.5h-416.5q-25 37 -25 57q51 20 146 61q-18 72 -101 279h-405q-47 -86 -142 -260q25 -25 70 -33q68 -14 88 -22q16 0 17 -33q2 -33 -15 -49q-141 2 -285.5 7t-187.5 44q25 25 64 43q33 12 65 26q354 602 606 1106h219q186 -397 502 -1106 q37 -14 72 -28q45 -18 55 -41zM836 231q-45 123 -134 351q-70 -127 -196 -351h330z" />
<glyph unicode="." horiz-adv-x="344" d="M315 141q18 -29 19 -78q0 -59 -27 -100q-31 -47 -110 -57q-61 -6 -115 16q-78 41 -78 139q0 39 16 70q23 49 127 82q121 0 168 -72z" />
<glyph unicode="/" d="M2236 684h-180q0 4 19 25q-41 96 -115 186q-33 -100 12 -170q-113 -4 -190 10q14 8 39 25v301q-4 4 -13 18q-8 8 -14 15q-8 10 0 22h176q29 -18 -18 -47q0 -86 8 -115q37 43 94 127q-2 4 -15.5 11.5t-13.5 13.5q131 6 175 -2q-45 -29 -50 -33q-29 -23 -106 -102 q66 -106 92 -150q53 -82 100 -135zM1800 969q-4 -6 -11 -17.5t-11 -15.5q-145 0 -213 -10q-2 -8 -2 -17q0 -33 34.5 -62.5t67.5 -29.5q16 0 27 8q29 18 86 47q4 -57 -62 -92q-53 -31 -117 -30q-25 0 -38 6q-113 41 -113 178q0 96 72 160q43 23 104 22q74 0 121 -33 q55 -38 55 -114zM1530 723q-18 0 -45 -10q-16 -6 -33 -6q-53 0 -102 67q-37 53 -54 111q-41 4 -53 -8v-74q4 -47 41 -68h-203q14 6 41 25v319q-16 8 -41 25q12 2 93 8q61 6 100 6q109 0 160 -43q12 -20 12 -47q0 -70 -82 -115q8 -6 78 -98q47 -65 88 -92zM1069 1116 q0 -18 -31 -47v-299q31 -31 31 -37q-127 0 -211 15q18 0 41 22v137q-35 8 -133 -10v-119q2 -6 41 -43q-150 0 -209 10q37 37 37 148q0 180 0 168q-2 4 -41 43q119 16 211 2q0 -6 -12 -14q-18 -12 -27 -23q0 -80 8 -115q88 0 125 9v108q-31 29 -31 45h201zM694 1257 q-35 -10 -67 -18q-45 -16 -74 -57q4 -45 -12 -95q-18 0 -56 5q-4 57 -49 92q-37 29 -84 28q-20 0 -37 -6q-33 -4 -57 -53q20 -78 160 -119q152 -43 192 -123q8 -117 -80 -176q-72 -51 -194 -51q-145 0 -240 61q-2 82 13 138q49 4 73 -13q-6 -51 43 -102t109 -51q66 0 96 71 v50q-33 33 -215 110q-143 61 -143 133q0 45 45 105q4 20 -29 53q-49 0 -82 23q0 33 21 98q6 0 18 5t16 5q41 -55 132 -141q47 25 139 24q37 0 184 -14q16 8 111 121h35q32 -48 32 -103zM1688 977q0 10 -4.5 33.5t-4.5 33.5q-35 33 -57 33q-18 -14 -35.5 -49t-17.5 -51h119z M1323 956q10 20 10 45q0 47 -33 74h-55q0 -106 10 -139q33 0 68 20zM207 584q0 -53 -6 -76l-13 2q2 29 7 55q6 35 32 35q20 0 21 -20q0 -16 -14.5 -22.5t-26.5 -12.5q-2 0 -4 -2v6q-2 2 -2 6l8 2q14 6 20 6q33 0 33 -26q0 -31 -65 -25q-4 4 0 10q53 -4 53 15q0 14 -21 14 q-4 0 -18 -4l-6 -4h-2v6l-2 -6q-14 4 0 12q12 4 24.5 9t12.5 16v8h-11q-18 0 -21 -28t-5 -50l-13 2q6 20 7 72q0 6 6 6t6 -6zM279 584q10 -12 24 -25q2 2 12 23l11 -4q-10 -25 -29 -76q-2 -6 -8 -4t-4 8q10 23 30 76l11 -7q-14 -29 -23 -28q-6 0 -33 28q1 7 9 9zM438 586 q-6 -29 -14 -90q-6 -2 -12 2q4 31 14 92q6 2 12 -4zM420 549q20 18 61 55q8 -2 8 -10q-6 -4 -61 -53q-6 2 -8 8zM436 555q16 -20 53 -66q4 -4 0 -8q-6 -4 -8 0q-10 12 -26.5 34t-26.5 32q2 8 8 8zM471 555q39 0 39 10q0 6 -10 6q-14 0 -15 -24q0 -20 19 -21q4 0 12 6 q6 0 8 -6q-10 -12 -20 -12q-31 0 -31 33q0 37 27 37q23 0 22 -19q0 -20 -51 -20q-4 0 -4 6q0 4 4 4zM543 571q2 -14 10 -43q6 20 16 56q8 2 13 -4q-6 -18 -10.5 -39t-24.5 -29q-6 16 -17 57q5 4 13 2zM604 569q-2 -18 -2 -49q0 -6 -4 -6q-6 0 -6 6v51q6 4 12 -2zM592 608 q0 6 6 6q4 0 4 -6t-4 -6q-6 0 -6 6zM629 545q0 -16 -6 -31q-6 0 -11 4q4 12 4 27v14q-2 8 -2 14t7 7q8 0 8 -35zM618 561q10 8 19.5 16.5t19.5 8.5q12 0 15 -15q2 -10 0 -30q-2 -23 -2 -25t-6 -2t-7 4q0 -6 5 31q2 25 -5 24q2 0 -32 -20q-7 2 -7 8zM770 528q-8 -23 -27 -32 q-2 10 -10 102q-2 6 4 6q6 2 6 -4q2 -29 9 -84q6 18 20 49q4 -23 19 -51q12 45 16 100q6 2 12 -2q-6 -57 -20 -112q-23 3 -29 28zM840 565q-2 -39 -2 -43t-7 -4q-6 0 -6 6q0 2 2 41q0 6 7 6q6 -2 6 -6zM831 600q0 4 7 4q4 0 4 -4q0 -6 -4 -6q-7 0 -7 6zM866 614 q-2 -31 -16 -104q-2 -4 -8 -4q-6 2 -4 8q10 35 18 102q0 6 6 5q4 -1 4 -7zM885 565q6 -12 14 -39q0 -16 -20 -16q-10 0 -17 14q4 6 10 4q2 -2 7 -6q10 0 6 15q-14 39 -2 41q6 0 20 -5q2 -8 -2 -12q-10 4 -14 4h-2zM944 563q-25 0 -24 -20q0 -14 22 -15q16 0 16 17 q0 20 -20 20q-4 0 -4 6t4 7q31 0 31 -33q0 -29 -27 -29q-33 0 -33 27q0 31 35 30q4 0 4 -4q0 -6 -4 -6zM985 551v-25q0 -6 -4 -6q-6 0 -6 7.5t-2 22.5t-2 23q0 6 6 7q6 0 6 -7.5t2 -21.5zM979 567q27 25 35 25q16 0 16 -62q0 -6 -6 -6q-4 0 -4 6q0 51 -6 52q-4 0 -27 -23 q-8 2 -8 8zM49 434q-23 -45 -6 -45q10 0 14 27q6 2 13 -2q-6 -37 -27 -37q-16 0 -16 20q0 16 12 43q6 0 10 -6zM74 412q0 -23 6 -29q18 0 12 51q4 4 10 2q10 -63 -20 -63q-20 0 -21 39q0 6 7 6q6 0 6 -6zM131 428q0 -49 10 -49q12 8 13 33q0 6 6 6q4 0 4 -6q0 -43 -23 -43 t-22 59q0 6 6 6t6 -6zM164 412q6 -29 16 -29t0 47q4 4 10 2q14 -59 -10 -59q-20 0 -26 37q-2 6 4 8q6 0 6 -6zM229 430q-14 -51 -2 -51q14 0 15 31q0 6 6 6t6 -6q0 -41 -27 -41t-8 63q6 2 10 -2zM256 408q2 -33 14 -33q10 0 9 20q-2 18 -7 27q4 6 11 6q8 -16 8 -39 q-2 -27 -21 -27q-23 0 -26 46q6 4 12 0zM319 383q0 6 7 6q6 0 6 -6q0 -4 -6 -4q-7 0 -7 4zM313 379q0 4 6 4t7 -4q0 -6 -7 -6q-6 0 -6 6zM317 381q0 4 7 4q4 0 4 -4q0 -6 -4 -6q-7 0 -7 6zM317 377q0 6 7 6q4 0 4 -6t-4 -6q-7 0 -7 6zM389 432q2 -14 0 -37q-4 -29 -4 -36 t-4 -7q-6 0 -6 4q0 10 2 39q2 23 2 37q-2 4 4 6q6 0 6 -6zM387 438q16 0 29 4q4 2 6 -2q2 -6 -2 -8q-14 -4 -33 -6q-4 6 0 12zM387 406q8 4 25 8q6 -6 2 -13q-6 -2 -25 -8q-6 7 -2 13zM432 420q0 6 6 6t6 -6t-6 -6t-6 6zM444 420q0 -37 -4 -53q0 -6 -6 -5q-6 0 -4 7 q2 16 2 51q0 6 6 6t6 -6zM438 424q16 8 21 8q16 0 16 -14q0 -29 -33 -33q-4 4 0 10q12 4 21 17q4 8 -4 8q-2 0 -15 -6q-6 2 -6 10zM453 397q18 -23 30 -41q2 -4 -2 -8q-6 -2 -8 2q-10 18 -29 39q3 6 9 8zM498 420q0 -43 0 -35q2 -14 16 -14q4 0 4 -6t-4 -7q-25 0 -27 23 q0 -2 0 39q0 6 7 6q4 0 4 -6zM498 401l18 -2q6 -2 6 -8q-2 -4 -8 -4l-18 4q-6 0 -4 6q0 6 6 4zM496 428l32 4q6 2 7 -4q2 -6 -5 -6l-32 -6q-6 0 -6 4q-2 6 4 8zM547 416q2 -33 2 -51h20q4 0 4 -5q0 -6 -4 -6h-32v6q0 16 -2 54q0 6 6 6t6 -4zM547 395l20 2q6 0 6 -6t-4 -6 l-20 -2q-6 0 -6 6t4 6zM543 416l30 10q4 -4 2 -10l-28 -10q-6 4 -4 10zM604 426v-39q-2 -25 -2 -34t-4 -9q-6 0 -6 6v36v40q0 4 6 4t6 -4zM592 354q12 14 35 52q2 6 8 2q4 -2 2 -9q-10 -14 -35 -53q-4 -4 -8 0t-2 8zM637 406q10 -14 25 -54q-6 -6 -13 -2q-2 10 -22 51 q-2 4 4 7q4 4 6 -2zM649 354q2 27 15 80q2 6 8 2q4 -2 2 -6q-2 -6 -12 -78q-2 -6 -7 -6q-6 2 -6 8zM715 416q-31 -2 -29 -33v-18q16 0 27 4q6 -4 4 -11q-10 -4 -41 -8v6v47q6 23 39 25q4 -6 0 -12zM682 393l25 6q6 0 8 -6q0 -4 -4 -6l-25 -6q-6 0 -8 4q0 6 4 8zM739 424 q4 -59 4 -51q0 -4 -6 -4t-6 4q0 -8 -4 51q6 4 12 0zM762 432q-4 2 -19 -8l-4 -2q-2 -2 -4 -2q-6 0 -6 6q0 4 6 4h-2l4 2q25 18 35 6q2 -2 2 -6q0 -16 -35 -35q-6 4 -4 11q21 12 27 24zM737 410q53 0 54 -25q0 -20 -52 -16q-2 4 2 10l27 -2q10 2 10 8q0 12 -24 12q2 0 -17 0 q-4 0 -4 6q0 7 4 7zM823 416h-4l-2 2q-4 2 -8 2v-2q12 -10 20 -21q20 -33 -20 -32q-6 0 -6 6t6 6q18 0 10 14q-8 10 -22 23v2q0 23 24 12h2q6 0 6 -6t-6 -6zM848 371v6q0 6 6 6t6 -6v-6q0 -6 -6 -6t-6 6zM848 373q0 6 6 6t6 -6q0 -4 -6 -4t-6 4zM856 373q0 6 4 6q6 0 6 -6 q0 -4 -6 -4q-4 0 -4 4zM854 381q0 4 6 4t6 -4q0 -6 -6 -6t-6 6zM930 422q-37 0 -37 -29q0 -18 29 -18q4 -4 2 -10q-43 -2 -43 28q0 41 49 41q6 0 6 -6t-6 -6zM958 416q-16 -4 -16 -15q0 -8 10 -8q14 0 13 8q-2 10 -9.5 15.5t-7.5 9.5t4 4q18 0 23 -27q4 -23 -23 -22 q-23 0 -22 20q0 18 24 27q6 -6 4 -12zM995 422v-20.5v-20.5q0 -6 -4 -6q-6 0 -6 6v20q-2 12 -2 21q0 6 6 6t6 -6zM995 424q6 -8 19 -23q-2 -6 -8 -6q-6 6 -21 23q-2 4 2 6q4 4 8 0zM1030 430l-14 -35q-8 -2 -10 4l14 35q2 4 6 2q6 -2 4 -6zM1034 430q8 -47 8 -49q0 -6 -4 -6 q-6 0 -6 4t-10 49q0 4 6 6q4 0 6 -4zM1094 461q-16 -43 -37 -131q0 -6 -6 -6q-6 2 -4 6q0 6 36 135q0 4 7 4q6 -2 4 -8zM1159 434v-24q-2 -14 -2 -21.5t-6 -7.5t-6 6q0 8 2 22.5t2 22.5t6 8q4 0 4 -6zM1118 434q16 6 64 27q6 -4 4 -10q-18 -10 -64 -27q-6 -2 -8 2q-2 6 4 8z M1208 469q0 -37 -4 -70q-2 -6 -6 -6q-6 2 -6 8q4 31 4 68q0 6 6 6t6 -6zM1223 426h-2q-2 0 -19 -4q-4 -2 -6 4q-2 4 4 6q14 6 21 6q10 2 12 -6v-14q-4 -27 -8 -27t-4 6v15q2 10 2 14zM1247 430q6 0 4 -4q-10 0 -4 -18q6 -16 19 -17q6 0 6 -6q0 -4 -6 -4q-31 0 -31 37 q0 18 16 18t6 -12q-8 -12 -18 -12q-6 0 -6 6t6 7t8 5zM1311 463q2 -33 8 -101q2 -6 -4 -8q-6 0 -7 5.5t-10 101.5q0 6 7 6q6 0 6 -4zM1305 467q18 8 57 27q4 4 6 -2q4 -4 0 -7q-20 -10 -57 -28q-6 4 -6 10zM1334.5 430q13.5 4 21.5 8q6 0 8 -4q0 -6 -4 -8q-14 -4 -45 -14 q-4 0 -6 4q-2 6 5 8t20.5 6zM1384 465v-74q0 -6 -6 -6q-4 0 -4 6v74q0 6 4 6q6 0 6 -6zM1415 436v0l-4 -12q0 -10 4 -22.5t6 -18.5q-2 -4 -10 -4q-2 8 -10 31q-8 39 14 39q12 0 12 -11q0 -27 -30 -26q-6 0 -6 6q0 4 11 7t13 11zM1438 393l-15 -10q-4 -4 -8 0q-2 4 2 8l13 10 q4 4 8 0t0 -8zM1470 430h-8q-6 2 -10 2q-6 0 -6 -6q0 -16 10 -16q8 0 8 22q0 6 6 6q4 0 5 -6q0 -35 -19 -35q-23 0 -22 29q0 23 30 16h4q2 -2 4.5 -2t2.5 -4q-1 -6 -5 -6zM1479 434q4 -12 10 -35q-4 -6 -10 -4q-4 10 -11 35q-2 6 5 8q4 0 6 -4zM1528 485v-100q0 -4 -6 -4 t-6 4v100q0 6 6 7q6 -1 6 -7zM1495 487q41 20 53 21q29 0 29 -29q0 -41 -59 -47q-4 0 -7 4q0 6 7 6q47 6 47 37q0 16 -17 17q-10 0 -49 -19q-6 4 -4 10zM1579 420l-2 -39q0 -6 -6 -6t-6 6l2 39q0 6 6 6t6 -6zM1575 451q0 6 4 6q6 0 6 -6q0 -4 -6 -5q-4 1 -4 5zM1616 463 q-2 -12 -10 -62q-2 -8 -2 -10h18q4 0 4 -4q0 -6 -4 -6q-33 -2 -29 22q4 20 11 60q2 6 6 6q6 -2 6 -6zM1593 430l41 8q6 0 6 -6q2 -4 -4 -6l-41 -8q-6 0 -8 4q0 6 6 8z" />
<glyph unicode="0" horiz-adv-x="2029" d="M2019 502q0 -428 -327 -643q-266 -176 -680 -176q-401 0 -678 186q-330 221 -330 633q0 408 330 631q279 188 678 188q385 0 663 -178q344 -221 344 -641zM1427 475q0 217 -69 383q-104 248 -332 248q-229 0 -344 -229q-86 -174 -86 -402q0 -223 78 -383 q106 -221 338 -221q227 0 338 221q77 162 77 383z" />
<glyph unicode="1" horiz-adv-x="1038" d="M1028 -252q-4 -20 -39 -72q-223 23 -471 23q-240 0 -477 -23q-12 31 -37 72q74 72 156 72q18 12 37 22q12 12 14 58v1073q-55 72 -205 145q31 47 31 74q82 10 385 76q266 57 344 57q47 0 53 -14q0 -918 33 -1467q49 -18 100 -39q62 -24 76 -57z" />
<glyph unicode="2" horiz-adv-x="1798" d="M1755 143q0 -289 -31 -450h-1626q-33 18 -94 65q2 10 3 66.5t5 89.5q113 92 361 250q279 176 391 262q211 158 323 322q27 43 0 129q-125 203 -344 202q-268 0 -663 -295q-18 0 -47 46.5t-29 87.5q154 205 422 309q238 94 526 94q291 0 539 -90q297 -160 297 -373 q0 -227 -350 -528q-233 -182 -465 -367v-16q125 0 477 59q31 29 51 82l33 88q162 0 221 -33z" />
<glyph unicode="3" horiz-adv-x="1759" d="M1747 178q-117 -258 -404 -383q-242 -104 -577 -104q-356 0 -670 104l-92 94q0 39 68 105l282 -78q172 -45 291 -45q260 0 424 203q23 47 23 96q0 131 -127 233.5t-275 102.5q-57 0 -106 -21v107q154 113 309 225q186 137 291 275h-672q-14 -16 -40 -27.5t-38 -26.5v-145 q-25 -14 -98.5 -31.5t-118.5 -17.5t-37 18v422q217 0 670 16.5t670 16.5l63 -68v-153q-86 -72 -257 -197t-259 -199q49 -23 193 -45q152 -23 233 -57q133 -57 223 -178q33 -88 33 -191q0 -26 -2 -51z" />
<glyph unicode="4" horiz-adv-x="2021" d="M2011 358q0 -25 -14.5 -108.5t-14.5 -112.5q-262 0 -372 -28q-4 -166 -6 -183q-4 -98 -25 -164q-340 -57 -623 -57q14 272 -26 430h-860q-66 63 -66 191q180 178 533 501q360 330 510 482h583q-31 -483 0 -951h381zM946 369v538q-211 -209 -295 -289q-158 -152 -272 -249 h567z" />
<glyph unicode="5" horiz-adv-x="1693" d="M1657 78q-158 -203 -443 -305q-246 -90 -546 -90q-428 0 -664 145q0 98 35 119q47 18 94 0q180 -102 426 -103q193 0 313 72q137 80 138 229q0 104 -70 236q-90 90 -291 90q-207 0 -471 -94q-14 51 -14 115q0 102 53 325q57 240 66 357l63 61h971q25 20 51.5 41.5 t26.5 40.5h213q23 -84 22 -191q0 -109 -22 -194h-1088q-74 -51 -74 -184q0 -55 21 -97q231 43 459 43q326 0 520 -92q238 -113 237 -354q1 -78 -26 -170z" />
<glyph unicode="6" horiz-adv-x="2027" d="M1987 461q31 -68 30 -176q0 -111 -30 -189q-336 -422 -959 -422q-303 0 -657 103q-367 264 -367 598q0 166 102 438q209 266 558 397q297 111 655 111q227 0 436 -43q66 -23 213 -115q0 -98 -39 -137q-250 123 -557 123q-317 0 -522 -135q-231 -152 -232 -430 q379 209 734 209q445 0 635 -332zM1350 -84q29 78 28 176q0 229 -125 363q-113 96 -249 96q-160 0 -289 -150q-4 -43 -4 -82q0 -223 108.5 -353t300.5 -130q82 0 174 25q1 55 56 55z" />
<glyph unicode="7" horiz-adv-x="1562" d="M1552 1104q-186 -252 -387 -662q-174 -360 -350 -721q-164 -25 -723 -24q-29 0 -29 29q0 109 347 542q332 420 675 758q0 12 10.5 26.5t10.5 22.5t-12 21q-55 -4 -117 -4q-51 0 -144.5 3t-138.5 3q-205 0 -377 -60q-29 -29 -49 -102q-18 -66 -37 -131q-127 -8 -227 33 q0 74 2 229v229h1510q42 -73 36 -192z" />
<glyph unicode="8" horiz-adv-x="1900" d="M1882 61q-152 -188 -418 -288q-242 -90 -530 -90q-291 0 -541 92q-258 94 -389 260q0 143 31 209q31 41 59 82q250 158 371 157q14 14 37 21q16 6 20 20l-198 99q-172 92 -203 188q-8 27 -8 63q0 86 39 181q311 256 866 256q231 0 427.5 -52.5t301.5 -146.5 q45 -66 45 -127q0 -180 -387 -348q82 -37 166 -72q125 -57 190 -121q59 -39 97 -137q35 -90 34 -176q0 -43 -10 -70zM1262 899q6 117 -33 186q-51 47 -68.5 60.5t-50.5 28.5q-90 23 -152 22q-68 0 -147 -22l-94 -95q-10 -145 31 -215q49 -102 155 -133q70 -20 205 -16 q84 55 154 184zM1290 -23q-4 113 -10 154q-12 61 -51 121q-55 76 -99 102q-74 49 -202 49q-39 0 -86 -4q-47 -35 -82 -102q-37 -74 -37 -156q0 -145 117 -258q74 -29 149 -28q166 -1 301 122z" />
<glyph unicode="9" horiz-adv-x="2004" d="M1882 197q-203 -258 -522 -394q-291 -125 -625 -125q-360 0 -645 142q-20 20 -20 67q0 49 22 72q51 20 82 21q10 0 16 -3q256 -111 506 -110q516 0 711 485q0 70 -39 70q-111 -96 -279.5 -152.5t-351.5 -56.5q-258 0 -446 111q-215 127 -287 368q57 315 363 486 q268 145 645 145q471 0 751 -199q231 -186 232 -526q0 -221 -113 -401zM1257 539q63 66 64 166q0 164 -144.5 319.5t-304.5 155.5q-106 0 -184 -78q0 -29 -57 -86q-2 -39 -2 -78q0 -217 90 -346q94 -135 258 -135q126 0 280 82z" />
<glyph unicode=":" d="M2236 684h-180q0 4 19 25q-41 96 -115 186q-33 -100 12 -170q-113 -4 -190 10q14 8 39 25v301q-4 4 -13 18q-8 8 -14 15q-8 10 0 22h176q29 -18 -18 -47q0 -86 8 -115q37 43 94 127q-2 4 -15.5 11.5t-13.5 13.5q131 6 175 -2q-45 -29 -50 -33q-29 -23 -106 -102 q66 -106 92 -150q53 -82 100 -135zM1800 969q-4 -6 -11 -17.5t-11 -15.5q-145 0 -213 -10q-2 -8 -2 -17q0 -33 34.5 -62.5t67.5 -29.5q16 0 27 8q29 18 86 47q4 -57 -62 -92q-53 -31 -117 -30q-25 0 -38 6q-113 41 -113 178q0 96 72 160q43 23 104 22q74 0 121 -33 q55 -38 55 -114zM1530 723q-18 0 -45 -10q-16 -6 -33 -6q-53 0 -102 67q-37 53 -54 111q-41 4 -53 -8v-74q4 -47 41 -68h-203q14 6 41 25v319q-16 8 -41 25q12 2 93 8q61 6 100 6q109 0 160 -43q12 -20 12 -47q0 -70 -82 -115q8 -6 78 -98q47 -65 88 -92zM1069 1116 q0 -18 -31 -47v-299q31 -31 31 -37q-127 0 -211 15q18 0 41 22v137q-35 8 -133 -10v-119q2 -6 41 -43q-150 0 -209 10q37 37 37 148q0 180 0 168q-2 4 -41 43q119 16 211 2q0 -6 -12 -14q-18 -12 -27 -23q0 -80 8 -115q88 0 125 9v108q-31 29 -31 45h201zM694 1257 q-35 -10 -67 -18q-45 -16 -74 -57q4 -45 -12 -95q-18 0 -56 5q-4 57 -49 92q-37 29 -84 28q-20 0 -37 -6q-33 -4 -57 -53q20 -78 160 -119q152 -43 192 -123q8 -117 -80 -176q-72 -51 -194 -51q-145 0 -240 61q-2 82 13 138q49 4 73 -13q-6 -51 43 -102t109 -51q66 0 96 71 v50q-33 33 -215 110q-143 61 -143 133q0 45 45 105q4 20 -29 53q-49 0 -82 23q0 33 21 98q6 0 18 5t16 5q41 -55 132 -141q47 25 139 24q37 0 184 -14q16 8 111 121h35q32 -48 32 -103zM1688 977q0 10 -4.5 33.5t-4.5 33.5q-35 33 -57 33q-18 -14 -35.5 -49t-17.5 -51h119z M1323 956q10 20 10 45q0 47 -33 74h-55q0 -106 10 -139q33 0 68 20zM207 584q0 -53 -6 -76l-13 2q2 29 7 55q6 35 32 35q20 0 21 -20q0 -16 -14.5 -22.5t-26.5 -12.5q-2 0 -4 -2v6q-2 2 -2 6l8 2q14 6 20 6q33 0 33 -26q0 -31 -65 -25q-4 4 0 10q53 -4 53 15q0 14 -21 14 q-4 0 -18 -4l-6 -4h-2v6l-2 -6q-14 4 0 12q12 4 24.5 9t12.5 16v8h-11q-18 0 -21 -28t-5 -50l-13 2q6 20 7 72q0 6 6 6t6 -6zM279 584q10 -12 24 -25q2 2 12 23l11 -4q-10 -25 -29 -76q-2 -6 -8 -4t-4 8q10 23 30 76l11 -7q-14 -29 -23 -28q-6 0 -33 28q1 7 9 9zM438 586 q-6 -29 -14 -90q-6 -2 -12 2q4 31 14 92q6 2 12 -4zM420 549q20 18 61 55q8 -2 8 -10q-6 -4 -61 -53q-6 2 -8 8zM436 555q16 -20 53 -66q4 -4 0 -8q-6 -4 -8 0q-10 12 -26.5 34t-26.5 32q2 8 8 8zM471 555q39 0 39 10q0 6 -10 6q-14 0 -15 -24q0 -20 19 -21q4 0 12 6 q6 0 8 -6q-10 -12 -20 -12q-31 0 -31 33q0 37 27 37q23 0 22 -19q0 -20 -51 -20q-4 0 -4 6q0 4 4 4zM543 571q2 -14 10 -43q6 20 16 56q8 2 13 -4q-6 -18 -10.5 -39t-24.5 -29q-6 16 -17 57q5 4 13 2zM604 569q-2 -18 -2 -49q0 -6 -4 -6q-6 0 -6 6v51q6 4 12 -2zM592 608 q0 6 6 6q4 0 4 -6t-4 -6q-6 0 -6 6zM629 545q0 -16 -6 -31q-6 0 -11 4q4 12 4 27v14q-2 8 -2 14t7 7q8 0 8 -35zM618 561q10 8 19.5 16.5t19.5 8.5q12 0 15 -15q2 -10 0 -30q-2 -23 -2 -25t-6 -2t-7 4q0 -6 5 31q2 25 -5 24q2 0 -32 -20q-7 2 -7 8zM770 528q-8 -23 -27 -32 q-2 10 -10 102q-2 6 4 6q6 2 6 -4q2 -29 9 -84q6 18 20 49q4 -23 19 -51q12 45 16 100q6 2 12 -2q-6 -57 -20 -112q-23 3 -29 28zM840 565q-2 -39 -2 -43t-7 -4q-6 0 -6 6q0 2 2 41q0 6 7 6q6 -2 6 -6zM831 600q0 4 7 4q4 0 4 -4q0 -6 -4 -6q-7 0 -7 6zM866 614 q-2 -31 -16 -104q-2 -4 -8 -4q-6 2 -4 8q10 35 18 102q0 6 6 5q4 -1 4 -7zM885 565q6 -12 14 -39q0 -16 -20 -16q-10 0 -17 14q4 6 10 4q2 -2 7 -6q10 0 6 15q-14 39 -2 41q6 0 20 -5q2 -8 -2 -12q-10 4 -14 4h-2zM944 563q-25 0 -24 -20q0 -14 22 -15q16 0 16 17 q0 20 -20 20q-4 0 -4 6t4 7q31 0 31 -33q0 -29 -27 -29q-33 0 -33 27q0 31 35 30q4 0 4 -4q0 -6 -4 -6zM985 551v-25q0 -6 -4 -6q-6 0 -6 7.5t-2 22.5t-2 23q0 6 6 7q6 0 6 -7.5t2 -21.5zM979 567q27 25 35 25q16 0 16 -62q0 -6 -6 -6q-4 0 -4 6q0 51 -6 52q-4 0 -27 -23 q-8 2 -8 8zM49 434q-23 -45 -6 -45q10 0 14 27q6 2 13 -2q-6 -37 -27 -37q-16 0 -16 20q0 16 12 43q6 0 10 -6zM74 412q0 -23 6 -29q18 0 12 51q4 4 10 2q10 -63 -20 -63q-20 0 -21 39q0 6 7 6q6 0 6 -6zM131 428q0 -49 10 -49q12 8 13 33q0 6 6 6q4 0 4 -6q0 -43 -23 -43 t-22 59q0 6 6 6t6 -6zM164 412q6 -29 16 -29t0 47q4 4 10 2q14 -59 -10 -59q-20 0 -26 37q-2 6 4 8q6 0 6 -6zM229 430q-14 -51 -2 -51q14 0 15 31q0 6 6 6t6 -6q0 -41 -27 -41t-8 63q6 2 10 -2zM256 408q2 -33 14 -33q10 0 9 20q-2 18 -7 27q4 6 11 6q8 -16 8 -39 q-2 -27 -21 -27q-23 0 -26 46q6 4 12 0zM319 383q0 6 7 6q6 0 6 -6q0 -4 -6 -4q-7 0 -7 4zM313 379q0 4 6 4t7 -4q0 -6 -7 -6q-6 0 -6 6zM317 381q0 4 7 4q4 0 4 -4q0 -6 -4 -6q-7 0 -7 6zM317 377q0 6 7 6q4 0 4 -6t-4 -6q-7 0 -7 6zM389 432q2 -14 0 -37q-4 -29 -4 -36 t-4 -7q-6 0 -6 4q0 10 2 39q2 23 2 37q-2 4 4 6q6 0 6 -6zM387 438q16 0 29 4q4 2 6 -2q2 -6 -2 -8q-14 -4 -33 -6q-4 6 0 12zM387 406q8 4 25 8q6 -6 2 -13q-6 -2 -25 -8q-6 7 -2 13zM432 420q0 6 6 6t6 -6t-6 -6t-6 6zM444 420q0 -37 -4 -53q0 -6 -6 -5q-6 0 -4 7 q2 16 2 51q0 6 6 6t6 -6zM438 424q16 8 21 8q16 0 16 -14q0 -29 -33 -33q-4 4 0 10q12 4 21 17q4 8 -4 8q-2 0 -15 -6q-6 2 -6 10zM453 397q18 -23 30 -41q2 -4 -2 -8q-6 -2 -8 2q-10 18 -29 39q3 6 9 8zM498 420q0 -43 0 -35q2 -14 16 -14q4 0 4 -6t-4 -7q-25 0 -27 23 q0 -2 0 39q0 6 7 6q4 0 4 -6zM498 401l18 -2q6 -2 6 -8q-2 -4 -8 -4l-18 4q-6 0 -4 6q0 6 6 4zM496 428l32 4q6 2 7 -4q2 -6 -5 -6l-32 -6q-6 0 -6 4q-2 6 4 8zM547 416q2 -33 2 -51h20q4 0 4 -5q0 -6 -4 -6h-32v6q0 16 -2 54q0 6 6 6t6 -4zM547 395l20 2q6 0 6 -6t-4 -6 l-20 -2q-6 0 -6 6t4 6zM543 416l30 10q4 -4 2 -10l-28 -10q-6 4 -4 10zM604 426v-39q-2 -25 -2 -34t-4 -9q-6 0 -6 6v36v40q0 4 6 4t6 -4zM592 354q12 14 35 52q2 6 8 2q4 -2 2 -9q-10 -14 -35 -53q-4 -4 -8 0t-2 8zM637 406q10 -14 25 -54q-6 -6 -13 -2q-2 10 -22 51 q-2 4 4 7q4 4 6 -2zM649 354q2 27 15 80q2 6 8 2q4 -2 2 -6q-2 -6 -12 -78q-2 -6 -7 -6q-6 2 -6 8zM715 416q-31 -2 -29 -33v-18q16 0 27 4q6 -4 4 -11q-10 -4 -41 -8v6v47q6 23 39 25q4 -6 0 -12zM682 393l25 6q6 0 8 -6q0 -4 -4 -6l-25 -6q-6 0 -8 4q0 6 4 8zM739 424 q4 -59 4 -51q0 -4 -6 -4t-6 4q0 -8 -4 51q6 4 12 0zM762 432q-4 2 -19 -8l-4 -2q-2 -2 -4 -2q-6 0 -6 6q0 4 6 4h-2l4 2q25 18 35 6q2 -2 2 -6q0 -16 -35 -35q-6 4 -4 11q21 12 27 24zM737 410q53 0 54 -25q0 -20 -52 -16q-2 4 2 10l27 -2q10 2 10 8q0 12 -24 12q2 0 -17 0 q-4 0 -4 6q0 7 4 7zM823 416h-4l-2 2q-4 2 -8 2v-2q12 -10 20 -21q20 -33 -20 -32q-6 0 -6 6t6 6q18 0 10 14q-8 10 -22 23v2q0 23 24 12h2q6 0 6 -6t-6 -6zM848 371v6q0 6 6 6t6 -6v-6q0 -6 -6 -6t-6 6zM848 373q0 6 6 6t6 -6q0 -4 -6 -4t-6 4zM856 373q0 6 4 6q6 0 6 -6 q0 -4 -6 -4q-4 0 -4 4zM854 381q0 4 6 4t6 -4q0 -6 -6 -6t-6 6zM930 422q-37 0 -37 -29q0 -18 29 -18q4 -4 2 -10q-43 -2 -43 28q0 41 49 41q6 0 6 -6t-6 -6zM958 416q-16 -4 -16 -15q0 -8 10 -8q14 0 13 8q-2 10 -9.5 15.5t-7.5 9.5t4 4q18 0 23 -27q4 -23 -23 -22 q-23 0 -22 20q0 18 24 27q6 -6 4 -12zM995 422v-20.5v-20.5q0 -6 -4 -6q-6 0 -6 6v20q-2 12 -2 21q0 6 6 6t6 -6zM995 424q6 -8 19 -23q-2 -6 -8 -6q-6 6 -21 23q-2 4 2 6q4 4 8 0zM1030 430l-14 -35q-8 -2 -10 4l14 35q2 4 6 2q6 -2 4 -6zM1034 430q8 -47 8 -49q0 -6 -4 -6 q-6 0 -6 4t-10 49q0 4 6 6q4 0 6 -4zM1094 461q-16 -43 -37 -131q0 -6 -6 -6q-6 2 -4 6q0 6 36 135q0 4 7 4q6 -2 4 -8zM1159 434v-24q-2 -14 -2 -21.5t-6 -7.5t-6 6q0 8 2 22.5t2 22.5t6 8q4 0 4 -6zM1118 434q16 6 64 27q6 -4 4 -10q-18 -10 -64 -27q-6 -2 -8 2q-2 6 4 8z M1208 469q0 -37 -4 -70q-2 -6 -6 -6q-6 2 -6 8q4 31 4 68q0 6 6 6t6 -6zM1223 426h-2q-2 0 -19 -4q-4 -2 -6 4q-2 4 4 6q14 6 21 6q10 2 12 -6v-14q-4 -27 -8 -27t-4 6v15q2 10 2 14zM1247 430q6 0 4 -4q-10 0 -4 -18q6 -16 19 -17q6 0 6 -6q0 -4 -6 -4q-31 0 -31 37 q0 18 16 18t6 -12q-8 -12 -18 -12q-6 0 -6 6t6 7t8 5zM1311 463q2 -33 8 -101q2 -6 -4 -8q-6 0 -7 5.5t-10 101.5q0 6 7 6q6 0 6 -4zM1305 467q18 8 57 27q4 4 6 -2q4 -4 0 -7q-20 -10 -57 -28q-6 4 -6 10zM1334.5 430q13.5 4 21.5 8q6 0 8 -4q0 -6 -4 -8q-14 -4 -45 -14 q-4 0 -6 4q-2 6 5 8t20.5 6zM1384 465v-74q0 -6 -6 -6q-4 0 -4 6v74q0 6 4 6q6 0 6 -6zM1415 436v0l-4 -12q0 -10 4 -22.5t6 -18.5q-2 -4 -10 -4q-2 8 -10 31q-8 39 14 39q12 0 12 -11q0 -27 -30 -26q-6 0 -6 6q0 4 11 7t13 11zM1438 393l-15 -10q-4 -4 -8 0q-2 4 2 8l13 10 q4 4 8 0t0 -8zM1470 430h-8q-6 2 -10 2q-6 0 -6 -6q0 -16 10 -16q8 0 8 22q0 6 6 6q4 0 5 -6q0 -35 -19 -35q-23 0 -22 29q0 23 30 16h4q2 -2 4.5 -2t2.5 -4q-1 -6 -5 -6zM1479 434q4 -12 10 -35q-4 -6 -10 -4q-4 10 -11 35q-2 6 5 8q4 0 6 -4zM1528 485v-100q0 -4 -6 -4 t-6 4v100q0 6 6 7q6 -1 6 -7zM1495 487q41 20 53 21q29 0 29 -29q0 -41 -59 -47q-4 0 -7 4q0 6 7 6q47 6 47 37q0 16 -17 17q-10 0 -49 -19q-6 4 -4 10zM1579 420l-2 -39q0 -6 -6 -6t-6 6l2 39q0 6 6 6t6 -6zM1575 451q0 6 4 6q6 0 6 -6q0 -4 -6 -5q-4 1 -4 5zM1616 463 q-2 -12 -10 -62q-2 -8 -2 -10h18q4 0 4 -4q0 -6 -4 -6q-33 -2 -29 22q4 20 11 60q2 6 6 6q6 -2 6 -6zM1593 430l41 8q6 0 6 -6q2 -4 -4 -6l-41 -8q-6 0 -8 4q0 6 6 8z" />
<glyph unicode=";" d="M2236 684h-180q0 4 19 25q-41 96 -115 186q-33 -100 12 -170q-113 -4 -190 10q14 8 39 25v301q-4 4 -13 18q-8 8 -14 15q-8 10 0 22h176q29 -18 -18 -47q0 -86 8 -115q37 43 94 127q-2 4 -15.5 11.5t-13.5 13.5q131 6 175 -2q-45 -29 -50 -33q-29 -23 -106 -102 q66 -106 92 -150q53 -82 100 -135zM1800 969q-4 -6 -11 -17.5t-11 -15.5q-145 0 -213 -10q-2 -8 -2 -17q0 -33 34.5 -62.5t67.5 -29.5q16 0 27 8q29 18 86 47q4 -57 -62 -92q-53 -31 -117 -30q-25 0 -38 6q-113 41 -113 178q0 96 72 160q43 23 104 22q74 0 121 -33 q55 -38 55 -114zM1530 723q-18 0 -45 -10q-16 -6 -33 -6q-53 0 -102 67q-37 53 -54 111q-41 4 -53 -8v-74q4 -47 41 -68h-203q14 6 41 25v319q-16 8 -41 25q12 2 93 8q61 6 100 6q109 0 160 -43q12 -20 12 -47q0 -70 -82 -115q8 -6 78 -98q47 -65 88 -92zM1069 1116 q0 -18 -31 -47v-299q31 -31 31 -37q-127 0 -211 15q18 0 41 22v137q-35 8 -133 -10v-119q2 -6 41 -43q-150 0 -209 10q37 37 37 148q0 180 0 168q-2 4 -41 43q119 16 211 2q0 -6 -12 -14q-18 -12 -27 -23q0 -80 8 -115q88 0 125 9v108q-31 29 -31 45h201zM694 1257 q-35 -10 -67 -18q-45 -16 -74 -57q4 -45 -12 -95q-18 0 -56 5q-4 57 -49 92q-37 29 -84 28q-20 0 -37 -6q-33 -4 -57 -53q20 -78 160 -119q152 -43 192 -123q8 -117 -80 -176q-72 -51 -194 -51q-145 0 -240 61q-2 82 13 138q49 4 73 -13q-6 -51 43 -102t109 -51q66 0 96 71 v50q-33 33 -215 110q-143 61 -143 133q0 45 45 105q4 20 -29 53q-49 0 -82 23q0 33 21 98q6 0 18 5t16 5q41 -55 132 -141q47 25 139 24q37 0 184 -14q16 8 111 121h35q32 -48 32 -103zM1688 977q0 10 -4.5 33.5t-4.5 33.5q-35 33 -57 33q-18 -14 -35.5 -49t-17.5 -51h119z M1323 956q10 20 10 45q0 47 -33 74h-55q0 -106 10 -139q33 0 68 20zM207 584q0 -53 -6 -76l-13 2q2 29 7 55q6 35 32 35q20 0 21 -20q0 -16 -14.5 -22.5t-26.5 -12.5q-2 0 -4 -2v6q-2 2 -2 6l8 2q14 6 20 6q33 0 33 -26q0 -31 -65 -25q-4 4 0 10q53 -4 53 15q0 14 -21 14 q-4 0 -18 -4l-6 -4h-2v6l-2 -6q-14 4 0 12q12 4 24.5 9t12.5 16v8h-11q-18 0 -21 -28t-5 -50l-13 2q6 20 7 72q0 6 6 6t6 -6zM279 584q10 -12 24 -25q2 2 12 23l11 -4q-10 -25 -29 -76q-2 -6 -8 -4t-4 8q10 23 30 76l11 -7q-14 -29 -23 -28q-6 0 -33 28q1 7 9 9zM438 586 q-6 -29 -14 -90q-6 -2 -12 2q4 31 14 92q6 2 12 -4zM420 549q20 18 61 55q8 -2 8 -10q-6 -4 -61 -53q-6 2 -8 8zM436 555q16 -20 53 -66q4 -4 0 -8q-6 -4 -8 0q-10 12 -26.5 34t-26.5 32q2 8 8 8zM471 555q39 0 39 10q0 6 -10 6q-14 0 -15 -24q0 -20 19 -21q4 0 12 6 q6 0 8 -6q-10 -12 -20 -12q-31 0 -31 33q0 37 27 37q23 0 22 -19q0 -20 -51 -20q-4 0 -4 6q0 4 4 4zM543 571q2 -14 10 -43q6 20 16 56q8 2 13 -4q-6 -18 -10.5 -39t-24.5 -29q-6 16 -17 57q5 4 13 2zM604 569q-2 -18 -2 -49q0 -6 -4 -6q-6 0 -6 6v51q6 4 12 -2zM592 608 q0 6 6 6q4 0 4 -6t-4 -6q-6 0 -6 6zM629 545q0 -16 -6 -31q-6 0 -11 4q4 12 4 27v14q-2 8 -2 14t7 7q8 0 8 -35zM618 561q10 8 19.5 16.5t19.5 8.5q12 0 15 -15q2 -10 0 -30q-2 -23 -2 -25t-6 -2t-7 4q0 -6 5 31q2 25 -5 24q2 0 -32 -20q-7 2 -7 8zM770 528q-8 -23 -27 -32 q-2 10 -10 102q-2 6 4 6q6 2 6 -4q2 -29 9 -84q6 18 20 49q4 -23 19 -51q12 45 16 100q6 2 12 -2q-6 -57 -20 -112q-23 3 -29 28zM840 565q-2 -39 -2 -43t-7 -4q-6 0 -6 6q0 2 2 41q0 6 7 6q6 -2 6 -6zM831 600q0 4 7 4q4 0 4 -4q0 -6 -4 -6q-7 0 -7 6zM866 614 q-2 -31 -16 -104q-2 -4 -8 -4q-6 2 -4 8q10 35 18 102q0 6 6 5q4 -1 4 -7zM885 565q6 -12 14 -39q0 -16 -20 -16q-10 0 -17 14q4 6 10 4q2 -2 7 -6q10 0 6 15q-14 39 -2 41q6 0 20 -5q2 -8 -2 -12q-10 4 -14 4h-2zM944 563q-25 0 -24 -20q0 -14 22 -15q16 0 16 17 q0 20 -20 20q-4 0 -4 6t4 7q31 0 31 -33q0 -29 -27 -29q-33 0 -33 27q0 31 35 30q4 0 4 -4q0 -6 -4 -6zM985 551v-25q0 -6 -4 -6q-6 0 -6 7.5t-2 22.5t-2 23q0 6 6 7q6 0 6 -7.5t2 -21.5zM979 567q27 25 35 25q16 0 16 -62q0 -6 -6 -6q-4 0 -4 6q0 51 -6 52q-4 0 -27 -23 q-8 2 -8 8zM49 434q-23 -45 -6 -45q10 0 14 27q6 2 13 -2q-6 -37 -27 -37q-16 0 -16 20q0 16 12 43q6 0 10 -6zM74 412q0 -23 6 -29q18 0 12 51q4 4 10 2q10 -63 -20 -63q-20 0 -21 39q0 6 7 6q6 0 6 -6zM131 428q0 -49 10 -49q12 8 13 33q0 6 6 6q4 0 4 -6q0 -43 -23 -43 t-22 59q0 6 6 6t6 -6zM164 412q6 -29 16 -29t0 47q4 4 10 2q14 -59 -10 -59q-20 0 -26 37q-2 6 4 8q6 0 6 -6zM229 430q-14 -51 -2 -51q14 0 15 31q0 6 6 6t6 -6q0 -41 -27 -41t-8 63q6 2 10 -2zM256 408q2 -33 14 -33q10 0 9 20q-2 18 -7 27q4 6 11 6q8 -16 8 -39 q-2 -27 -21 -27q-23 0 -26 46q6 4 12 0zM319 383q0 6 7 6q6 0 6 -6q0 -4 -6 -4q-7 0 -7 4zM313 379q0 4 6 4t7 -4q0 -6 -7 -6q-6 0 -6 6zM317 381q0 4 7 4q4 0 4 -4q0 -6 -4 -6q-7 0 -7 6zM317 377q0 6 7 6q4 0 4 -6t-4 -6q-7 0 -7 6zM389 432q2 -14 0 -37q-4 -29 -4 -36 t-4 -7q-6 0 -6 4q0 10 2 39q2 23 2 37q-2 4 4 6q6 0 6 -6zM387 438q16 0 29 4q4 2 6 -2q2 -6 -2 -8q-14 -4 -33 -6q-4 6 0 12zM387 406q8 4 25 8q6 -6 2 -13q-6 -2 -25 -8q-6 7 -2 13zM432 420q0 6 6 6t6 -6t-6 -6t-6 6zM444 420q0 -37 -4 -53q0 -6 -6 -5q-6 0 -4 7 q2 16 2 51q0 6 6 6t6 -6zM438 424q16 8 21 8q16 0 16 -14q0 -29 -33 -33q-4 4 0 10q12 4 21 17q4 8 -4 8q-2 0 -15 -6q-6 2 -6 10zM453 397q18 -23 30 -41q2 -4 -2 -8q-6 -2 -8 2q-10 18 -29 39q3 6 9 8zM498 420q0 -43 0 -35q2 -14 16 -14q4 0 4 -6t-4 -7q-25 0 -27 23 q0 -2 0 39q0 6 7 6q4 0 4 -6zM498 401l18 -2q6 -2 6 -8q-2 -4 -8 -4l-18 4q-6 0 -4 6q0 6 6 4zM496 428l32 4q6 2 7 -4q2 -6 -5 -6l-32 -6q-6 0 -6 4q-2 6 4 8zM547 416q2 -33 2 -51h20q4 0 4 -5q0 -6 -4 -6h-32v6q0 16 -2 54q0 6 6 6t6 -4zM547 395l20 2q6 0 6 -6t-4 -6 l-20 -2q-6 0 -6 6t4 6zM543 416l30 10q4 -4 2 -10l-28 -10q-6 4 -4 10zM604 426v-39q-2 -25 -2 -34t-4 -9q-6 0 -6 6v36v40q0 4 6 4t6 -4zM592 354q12 14 35 52q2 6 8 2q4 -2 2 -9q-10 -14 -35 -53q-4 -4 -8 0t-2 8zM637 406q10 -14 25 -54q-6 -6 -13 -2q-2 10 -22 51 q-2 4 4 7q4 4 6 -2zM649 354q2 27 15 80q2 6 8 2q4 -2 2 -6q-2 -6 -12 -78q-2 -6 -7 -6q-6 2 -6 8zM715 416q-31 -2 -29 -33v-18q16 0 27 4q6 -4 4 -11q-10 -4 -41 -8v6v47q6 23 39 25q4 -6 0 -12zM682 393l25 6q6 0 8 -6q0 -4 -4 -6l-25 -6q-6 0 -8 4q0 6 4 8zM739 424 q4 -59 4 -51q0 -4 -6 -4t-6 4q0 -8 -4 51q6 4 12 0zM762 432q-4 2 -19 -8l-4 -2q-2 -2 -4 -2q-6 0 -6 6q0 4 6 4h-2l4 2q25 18 35 6q2 -2 2 -6q0 -16 -35 -35q-6 4 -4 11q21 12 27 24zM737 410q53 0 54 -25q0 -20 -52 -16q-2 4 2 10l27 -2q10 2 10 8q0 12 -24 12q2 0 -17 0 q-4 0 -4 6q0 7 4 7zM823 416h-4l-2 2q-4 2 -8 2v-2q12 -10 20 -21q20 -33 -20 -32q-6 0 -6 6t6 6q18 0 10 14q-8 10 -22 23v2q0 23 24 12h2q6 0 6 -6t-6 -6zM848 371v6q0 6 6 6t6 -6v-6q0 -6 -6 -6t-6 6zM848 373q0 6 6 6t6 -6q0 -4 -6 -4t-6 4zM856 373q0 6 4 6q6 0 6 -6 q0 -4 -6 -4q-4 0 -4 4zM854 381q0 4 6 4t6 -4q0 -6 -6 -6t-6 6zM930 422q-37 0 -37 -29q0 -18 29 -18q4 -4 2 -10q-43 -2 -43 28q0 41 49 41q6 0 6 -6t-6 -6zM958 416q-16 -4 -16 -15q0 -8 10 -8q14 0 13 8q-2 10 -9.5 15.5t-7.5 9.5t4 4q18 0 23 -27q4 -23 -23 -22 q-23 0 -22 20q0 18 24 27q6 -6 4 -12zM995 422v-20.5v-20.5q0 -6 -4 -6q-6 0 -6 6v20q-2 12 -2 21q0 6 6 6t6 -6zM995 424q6 -8 19 -23q-2 -6 -8 -6q-6 6 -21 23q-2 4 2 6q4 4 8 0zM1030 430l-14 -35q-8 -2 -10 4l14 35q2 4 6 2q6 -2 4 -6zM1034 430q8 -47 8 -49q0 -6 -4 -6 q-6 0 -6 4t-10 49q0 4 6 6q4 0 6 -4zM1094 461q-16 -43 -37 -131q0 -6 -6 -6q-6 2 -4 6q0 6 36 135q0 4 7 4q6 -2 4 -8zM1159 434v-24q-2 -14 -2 -21.5t-6 -7.5t-6 6q0 8 2 22.5t2 22.5t6 8q4 0 4 -6zM1118 434q16 6 64 27q6 -4 4 -10q-18 -10 -64 -27q-6 -2 -8 2q-2 6 4 8z M1208 469q0 -37 -4 -70q-2 -6 -6 -6q-6 2 -6 8q4 31 4 68q0 6 6 6t6 -6zM1223 426h-2q-2 0 -19 -4q-4 -2 -6 4q-2 4 4 6q14 6 21 6q10 2 12 -6v-14q-4 -27 -8 -27t-4 6v15q2 10 2 14zM1247 430q6 0 4 -4q-10 0 -4 -18q6 -16 19 -17q6 0 6 -6q0 -4 -6 -4q-31 0 -31 37 q0 18 16 18t6 -12q-8 -12 -18 -12q-6 0 -6 6t6 7t8 5zM1311 463q2 -33 8 -101q2 -6 -4 -8q-6 0 -7 5.5t-10 101.5q0 6 7 6q6 0 6 -4zM1305 467q18 8 57 27q4 4 6 -2q4 -4 0 -7q-20 -10 -57 -28q-6 4 -6 10zM1334.5 430q13.5 4 21.5 8q6 0 8 -4q0 -6 -4 -8q-14 -4 -45 -14 q-4 0 -6 4q-2 6 5 8t20.5 6zM1384 465v-74q0 -6 -6 -6q-4 0 -4 6v74q0 6 4 6q6 0 6 -6zM1415 436v0l-4 -12q0 -10 4 -22.5t6 -18.5q-2 -4 -10 -4q-2 8 -10 31q-8 39 14 39q12 0 12 -11q0 -27 -30 -26q-6 0 -6 6q0 4 11 7t13 11zM1438 393l-15 -10q-4 -4 -8 0q-2 4 2 8l13 10 q4 4 8 0t0 -8zM1470 430h-8q-6 2 -10 2q-6 0 -6 -6q0 -16 10 -16q8 0 8 22q0 6 6 6q4 0 5 -6q0 -35 -19 -35q-23 0 -22 29q0 23 30 16h4q2 -2 4.5 -2t2.5 -4q-1 -6 -5 -6zM1479 434q4 -12 10 -35q-4 -6 -10 -4q-4 10 -11 35q-2 6 5 8q4 0 6 -4zM1528 485v-100q0 -4 -6 -4 t-6 4v100q0 6 6 7q6 -1 6 -7zM1495 487q41 20 53 21q29 0 29 -29q0 -41 -59 -47q-4 0 -7 4q0 6 7 6q47 6 47 37q0 16 -17 17q-10 0 -49 -19q-6 4 -4 10zM1579 420l-2 -39q0 -6 -6 -6t-6 6l2 39q0 6 6 6t6 -6zM1575 451q0 6 4 6q6 0 6 -6q0 -4 -6 -5q-4 1 -4 5zM1616 463 q-2 -12 -10 -62q-2 -8 -2 -10h18q4 0 4 -4q0 -6 -4 -6q-33 -2 -29 22q4 20 11 60q2 6 6 6q6 -2 6 -6zM1593 430l41 8q6 0 6 -6q2 -4 -4 -6l-41 -8q-6 0 -8 4q0 6 6 8z" />
<glyph unicode="&#x3c;" d="M2236 684h-180q0 4 19 25q-41 96 -115 186q-33 -100 12 -170q-113 -4 -190 10q14 8 39 25v301q-4 4 -13 18q-8 8 -14 15q-8 10 0 22h176q29 -18 -18 -47q0 -86 8 -115q37 43 94 127q-2 4 -15.5 11.5t-13.5 13.5q131 6 175 -2q-45 -29 -50 -33q-29 -23 -106 -102 q66 -106 92 -150q53 -82 100 -135zM1800 969q-4 -6 -11 -17.5t-11 -15.5q-145 0 -213 -10q-2 -8 -2 -17q0 -33 34.5 -62.5t67.5 -29.5q16 0 27 8q29 18 86 47q4 -57 -62 -92q-53 -31 -117 -30q-25 0 -38 6q-113 41 -113 178q0 96 72 160q43 23 104 22q74 0 121 -33 q55 -38 55 -114zM1530 723q-18 0 -45 -10q-16 -6 -33 -6q-53 0 -102 67q-37 53 -54 111q-41 4 -53 -8v-74q4 -47 41 -68h-203q14 6 41 25v319q-16 8 -41 25q12 2 93 8q61 6 100 6q109 0 160 -43q12 -20 12 -47q0 -70 -82 -115q8 -6 78 -98q47 -65 88 -92zM1069 1116 q0 -18 -31 -47v-299q31 -31 31 -37q-127 0 -211 15q18 0 41 22v137q-35 8 -133 -10v-119q2 -6 41 -43q-150 0 -209 10q37 37 37 148q0 180 0 168q-2 4 -41 43q119 16 211 2q0 -6 -12 -14q-18 -12 -27 -23q0 -80 8 -115q88 0 125 9v108q-31 29 -31 45h201zM694 1257 q-35 -10 -67 -18q-45 -16 -74 -57q4 -45 -12 -95q-18 0 -56 5q-4 57 -49 92q-37 29 -84 28q-20 0 -37 -6q-33 -4 -57 -53q20 -78 160 -119q152 -43 192 -123q8 -117 -80 -176q-72 -51 -194 -51q-145 0 -240 61q-2 82 13 138q49 4 73 -13q-6 -51 43 -102t109 -51q66 0 96 71 v50q-33 33 -215 110q-143 61 -143 133q0 45 45 105q4 20 -29 53q-49 0 -82 23q0 33 21 98q6 0 18 5t16 5q41 -55 132 -141q47 25 139 24q37 0 184 -14q16 8 111 121h35q32 -48 32 -103zM1688 977q0 10 -4.5 33.5t-4.5 33.5q-35 33 -57 33q-18 -14 -35.5 -49t-17.5 -51h119z M1323 956q10 20 10 45q0 47 -33 74h-55q0 -106 10 -139q33 0 68 20zM207 584q0 -53 -6 -76l-13 2q2 29 7 55q6 35 32 35q20 0 21 -20q0 -16 -14.5 -22.5t-26.5 -12.5q-2 0 -4 -2v6q-2 2 -2 6l8 2q14 6 20 6q33 0 33 -26q0 -31 -65 -25q-4 4 0 10q53 -4 53 15q0 14 -21 14 q-4 0 -18 -4l-6 -4h-2v6l-2 -6q-14 4 0 12q12 4 24.5 9t12.5 16v8h-11q-18 0 -21 -28t-5 -50l-13 2q6 20 7 72q0 6 6 6t6 -6zM279 584q10 -12 24 -25q2 2 12 23l11 -4q-10 -25 -29 -76q-2 -6 -8 -4t-4 8q10 23 30 76l11 -7q-14 -29 -23 -28q-6 0 -33 28q1 7 9 9zM438 586 q-6 -29 -14 -90q-6 -2 -12 2q4 31 14 92q6 2 12 -4zM420 549q20 18 61 55q8 -2 8 -10q-6 -4 -61 -53q-6 2 -8 8zM436 555q16 -20 53 -66q4 -4 0 -8q-6 -4 -8 0q-10 12 -26.5 34t-26.5 32q2 8 8 8zM471 555q39 0 39 10q0 6 -10 6q-14 0 -15 -24q0 -20 19 -21q4 0 12 6 q6 0 8 -6q-10 -12 -20 -12q-31 0 -31 33q0 37 27 37q23 0 22 -19q0 -20 -51 -20q-4 0 -4 6q0 4 4 4zM543 571q2 -14 10 -43q6 20 16 56q8 2 13 -4q-6 -18 -10.5 -39t-24.5 -29q-6 16 -17 57q5 4 13 2zM604 569q-2 -18 -2 -49q0 -6 -4 -6q-6 0 -6 6v51q6 4 12 -2zM592 608 q0 6 6 6q4 0 4 -6t-4 -6q-6 0 -6 6zM629 545q0 -16 -6 -31q-6 0 -11 4q4 12 4 27v14q-2 8 -2 14t7 7q8 0 8 -35zM618 561q10 8 19.5 16.5t19.5 8.5q12 0 15 -15q2 -10 0 -30q-2 -23 -2 -25t-6 -2t-7 4q0 -6 5 31q2 25 -5 24q2 0 -32 -20q-7 2 -7 8zM770 528q-8 -23 -27 -32 q-2 10 -10 102q-2 6 4 6q6 2 6 -4q2 -29 9 -84q6 18 20 49q4 -23 19 -51q12 45 16 100q6 2 12 -2q-6 -57 -20 -112q-23 3 -29 28zM840 565q-2 -39 -2 -43t-7 -4q-6 0 -6 6q0 2 2 41q0 6 7 6q6 -2 6 -6zM831 600q0 4 7 4q4 0 4 -4q0 -6 -4 -6q-7 0 -7 6zM866 614 q-2 -31 -16 -104q-2 -4 -8 -4q-6 2 -4 8q10 35 18 102q0 6 6 5q4 -1 4 -7zM885 565q6 -12 14 -39q0 -16 -20 -16q-10 0 -17 14q4 6 10 4q2 -2 7 -6q10 0 6 15q-14 39 -2 41q6 0 20 -5q2 -8 -2 -12q-10 4 -14 4h-2zM944 563q-25 0 -24 -20q0 -14 22 -15q16 0 16 17 q0 20 -20 20q-4 0 -4 6t4 7q31 0 31 -33q0 -29 -27 -29q-33 0 -33 27q0 31 35 30q4 0 4 -4q0 -6 -4 -6zM985 551v-25q0 -6 -4 -6q-6 0 -6 7.5t-2 22.5t-2 23q0 6 6 7q6 0 6 -7.5t2 -21.5zM979 567q27 25 35 25q16 0 16 -62q0 -6 -6 -6q-4 0 -4 6q0 51 -6 52q-4 0 -27 -23 q-8 2 -8 8zM49 434q-23 -45 -6 -45q10 0 14 27q6 2 13 -2q-6 -37 -27 -37q-16 0 -16 20q0 16 12 43q6 0 10 -6zM74 412q0 -23 6 -29q18 0 12 51q4 4 10 2q10 -63 -20 -63q-20 0 -21 39q0 6 7 6q6 0 6 -6zM131 428q0 -49 10 -49q12 8 13 33q0 6 6 6q4 0 4 -6q0 -43 -23 -43 t-22 59q0 6 6 6t6 -6zM164 412q6 -29 16 -29t0 47q4 4 10 2q14 -59 -10 -59q-20 0 -26 37q-2 6 4 8q6 0 6 -6zM229 430q-14 -51 -2 -51q14 0 15 31q0 6 6 6t6 -6q0 -41 -27 -41t-8 63q6 2 10 -2zM256 408q2 -33 14 -33q10 0 9 20q-2 18 -7 27q4 6 11 6q8 -16 8 -39 q-2 -27 -21 -27q-23 0 -26 46q6 4 12 0zM319 383q0 6 7 6q6 0 6 -6q0 -4 -6 -4q-7 0 -7 4zM313 379q0 4 6 4t7 -4q0 -6 -7 -6q-6 0 -6 6zM317 381q0 4 7 4q4 0 4 -4q0 -6 -4 -6q-7 0 -7 6zM317 377q0 6 7 6q4 0 4 -6t-4 -6q-7 0 -7 6zM389 432q2 -14 0 -37q-4 -29 -4 -36 t-4 -7q-6 0 -6 4q0 10 2 39q2 23 2 37q-2 4 4 6q6 0 6 -6zM387 438q16 0 29 4q4 2 6 -2q2 -6 -2 -8q-14 -4 -33 -6q-4 6 0 12zM387 406q8 4 25 8q6 -6 2 -13q-6 -2 -25 -8q-6 7 -2 13zM432 420q0 6 6 6t6 -6t-6 -6t-6 6zM444 420q0 -37 -4 -53q0 -6 -6 -5q-6 0 -4 7 q2 16 2 51q0 6 6 6t6 -6zM438 424q16 8 21 8q16 0 16 -14q0 -29 -33 -33q-4 4 0 10q12 4 21 17q4 8 -4 8q-2 0 -15 -6q-6 2 -6 10zM453 397q18 -23 30 -41q2 -4 -2 -8q-6 -2 -8 2q-10 18 -29 39q3 6 9 8zM498 420q0 -43 0 -35q2 -14 16 -14q4 0 4 -6t-4 -7q-25 0 -27 23 q0 -2 0 39q0 6 7 6q4 0 4 -6zM498 401l18 -2q6 -2 6 -8q-2 -4 -8 -4l-18 4q-6 0 -4 6q0 6 6 4zM496 428l32 4q6 2 7 -4q2 -6 -5 -6l-32 -6q-6 0 -6 4q-2 6 4 8zM547 416q2 -33 2 -51h20q4 0 4 -5q0 -6 -4 -6h-32v6q0 16 -2 54q0 6 6 6t6 -4zM547 395l20 2q6 0 6 -6t-4 -6 l-20 -2q-6 0 -6 6t4 6zM543 416l30 10q4 -4 2 -10l-28 -10q-6 4 -4 10zM604 426v-39q-2 -25 -2 -34t-4 -9q-6 0 -6 6v36v40q0 4 6 4t6 -4zM592 354q12 14 35 52q2 6 8 2q4 -2 2 -9q-10 -14 -35 -53q-4 -4 -8 0t-2 8zM637 406q10 -14 25 -54q-6 -6 -13 -2q-2 10 -22 51 q-2 4 4 7q4 4 6 -2zM649 354q2 27 15 80q2 6 8 2q4 -2 2 -6q-2 -6 -12 -78q-2 -6 -7 -6q-6 2 -6 8zM715 416q-31 -2 -29 -33v-18q16 0 27 4q6 -4 4 -11q-10 -4 -41 -8v6v47q6 23 39 25q4 -6 0 -12zM682 393l25 6q6 0 8 -6q0 -4 -4 -6l-25 -6q-6 0 -8 4q0 6 4 8zM739 424 q4 -59 4 -51q0 -4 -6 -4t-6 4q0 -8 -4 51q6 4 12 0zM762 432q-4 2 -19 -8l-4 -2q-2 -2 -4 -2q-6 0 -6 6q0 4 6 4h-2l4 2q25 18 35 6q2 -2 2 -6q0 -16 -35 -35q-6 4 -4 11q21 12 27 24zM737 410q53 0 54 -25q0 -20 -52 -16q-2 4 2 10l27 -2q10 2 10 8q0 12 -24 12q2 0 -17 0 q-4 0 -4 6q0 7 4 7zM823 416h-4l-2 2q-4 2 -8 2v-2q12 -10 20 -21q20 -33 -20 -32q-6 0 -6 6t6 6q18 0 10 14q-8 10 -22 23v2q0 23 24 12h2q6 0 6 -6t-6 -6zM848 371v6q0 6 6 6t6 -6v-6q0 -6 -6 -6t-6 6zM848 373q0 6 6 6t6 -6q0 -4 -6 -4t-6 4zM856 373q0 6 4 6q6 0 6 -6 q0 -4 -6 -4q-4 0 -4 4zM854 381q0 4 6 4t6 -4q0 -6 -6 -6t-6 6zM930 422q-37 0 -37 -29q0 -18 29 -18q4 -4 2 -10q-43 -2 -43 28q0 41 49 41q6 0 6 -6t-6 -6zM958 416q-16 -4 -16 -15q0 -8 10 -8q14 0 13 8q-2 10 -9.5 15.5t-7.5 9.5t4 4q18 0 23 -27q4 -23 -23 -22 q-23 0 -22 20q0 18 24 27q6 -6 4 -12zM995 422v-20.5v-20.5q0 -6 -4 -6q-6 0 -6 6v20q-2 12 -2 21q0 6 6 6t6 -6zM995 424q6 -8 19 -23q-2 -6 -8 -6q-6 6 -21 23q-2 4 2 6q4 4 8 0zM1030 430l-14 -35q-8 -2 -10 4l14 35q2 4 6 2q6 -2 4 -6zM1034 430q8 -47 8 -49q0 -6 -4 -6 q-6 0 -6 4t-10 49q0 4 6 6q4 0 6 -4zM1094 461q-16 -43 -37 -131q0 -6 -6 -6q-6 2 -4 6q0 6 36 135q0 4 7 4q6 -2 4 -8zM1159 434v-24q-2 -14 -2 -21.5t-6 -7.5t-6 6q0 8 2 22.5t2 22.5t6 8q4 0 4 -6zM1118 434q16 6 64 27q6 -4 4 -10q-18 -10 -64 -27q-6 -2 -8 2q-2 6 4 8z M1208 469q0 -37 -4 -70q-2 -6 -6 -6q-6 2 -6 8q4 31 4 68q0 6 6 6t6 -6zM1223 426h-2q-2 0 -19 -4q-4 -2 -6 4q-2 4 4 6q14 6 21 6q10 2 12 -6v-14q-4 -27 -8 -27t-4 6v15q2 10 2 14zM1247 430q6 0 4 -4q-10 0 -4 -18q6 -16 19 -17q6 0 6 -6q0 -4 -6 -4q-31 0 -31 37 q0 18 16 18t6 -12q-8 -12 -18 -12q-6 0 -6 6t6 7t8 5zM1311 463q2 -33 8 -101q2 -6 -4 -8q-6 0 -7 5.5t-10 101.5q0 6 7 6q6 0 6 -4zM1305 467q18 8 57 27q4 4 6 -2q4 -4 0 -7q-20 -10 -57 -28q-6 4 -6 10zM1334.5 430q13.5 4 21.5 8q6 0 8 -4q0 -6 -4 -8q-14 -4 -45 -14 q-4 0 -6 4q-2 6 5 8t20.5 6zM1384 465v-74q0 -6 -6 -6q-4 0 -4 6v74q0 6 4 6q6 0 6 -6zM1415 436v0l-4 -12q0 -10 4 -22.5t6 -18.5q-2 -4 -10 -4q-2 8 -10 31q-8 39 14 39q12 0 12 -11q0 -27 -30 -26q-6 0 -6 6q0 4 11 7t13 11zM1438 393l-15 -10q-4 -4 -8 0q-2 4 2 8l13 10 q4 4 8 0t0 -8zM1470 430h-8q-6 2 -10 2q-6 0 -6 -6q0 -16 10 -16q8 0 8 22q0 6 6 6q4 0 5 -6q0 -35 -19 -35q-23 0 -22 29q0 23 30 16h4q2 -2 4.5 -2t2.5 -4q-1 -6 -5 -6zM1479 434q4 -12 10 -35q-4 -6 -10 -4q-4 10 -11 35q-2 6 5 8q4 0 6 -4zM1528 485v-100q0 -4 -6 -4 t-6 4v100q0 6 6 7q6 -1 6 -7zM1495 487q41 20 53 21q29 0 29 -29q0 -41 -59 -47q-4 0 -7 4q0 6 7 6q47 6 47 37q0 16 -17 17q-10 0 -49 -19q-6 4 -4 10zM1579 420l-2 -39q0 -6 -6 -6t-6 6l2 39q0 6 6 6t6 -6zM1575 451q0 6 4 6q6 0 6 -6q0 -4 -6 -5q-4 1 -4 5zM1616 463 q-2 -12 -10 -62q-2 -8 -2 -10h18q4 0 4 -4q0 -6 -4 -6q-33 -2 -29 22q4 20 11 60q2 6 6 6q6 -2 6 -6zM1593 430l41 8q6 0 6 -6q2 -4 -4 -6l-41 -8q-6 0 -8 4q0 6 6 8z" />
<glyph unicode="=" d="M2236 684h-180q0 4 19 25q-41 96 -115 186q-33 -100 12 -170q-113 -4 -190 10q14 8 39 25v301q-4 4 -13 18q-8 8 -14 15q-8 10 0 22h176q29 -18 -18 -47q0 -86 8 -115q37 43 94 127q-2 4 -15.5 11.5t-13.5 13.5q131 6 175 -2q-45 -29 -50 -33q-29 -23 -106 -102 q66 -106 92 -150q53 -82 100 -135zM1800 969q-4 -6 -11 -17.5t-11 -15.5q-145 0 -213 -10q-2 -8 -2 -17q0 -33 34.5 -62.5t67.5 -29.5q16 0 27 8q29 18 86 47q4 -57 -62 -92q-53 -31 -117 -30q-25 0 -38 6q-113 41 -113 178q0 96 72 160q43 23 104 22q74 0 121 -33 q55 -38 55 -114zM1530 723q-18 0 -45 -10q-16 -6 -33 -6q-53 0 -102 67q-37 53 -54 111q-41 4 -53 -8v-74q4 -47 41 -68h-203q14 6 41 25v319q-16 8 -41 25q12 2 93 8q61 6 100 6q109 0 160 -43q12 -20 12 -47q0 -70 -82 -115q8 -6 78 -98q47 -65 88 -92zM1069 1116 q0 -18 -31 -47v-299q31 -31 31 -37q-127 0 -211 15q18 0 41 22v137q-35 8 -133 -10v-119q2 -6 41 -43q-150 0 -209 10q37 37 37 148q0 180 0 168q-2 4 -41 43q119 16 211 2q0 -6 -12 -14q-18 -12 -27 -23q0 -80 8 -115q88 0 125 9v108q-31 29 -31 45h201zM694 1257 q-35 -10 -67 -18q-45 -16 -74 -57q4 -45 -12 -95q-18 0 -56 5q-4 57 -49 92q-37 29 -84 28q-20 0 -37 -6q-33 -4 -57 -53q20 -78 160 -119q152 -43 192 -123q8 -117 -80 -176q-72 -51 -194 -51q-145 0 -240 61q-2 82 13 138q49 4 73 -13q-6 -51 43 -102t109 -51q66 0 96 71 v50q-33 33 -215 110q-143 61 -143 133q0 45 45 105q4 20 -29 53q-49 0 -82 23q0 33 21 98q6 0 18 5t16 5q41 -55 132 -141q47 25 139 24q37 0 184 -14q16 8 111 121h35q32 -48 32 -103zM1688 977q0 10 -4.5 33.5t-4.5 33.5q-35 33 -57 33q-18 -14 -35.5 -49t-17.5 -51h119z M1323 956q10 20 10 45q0 47 -33 74h-55q0 -106 10 -139q33 0 68 20zM207 584q0 -53 -6 -76l-13 2q2 29 7 55q6 35 32 35q20 0 21 -20q0 -16 -14.5 -22.5t-26.5 -12.5q-2 0 -4 -2v6q-2 2 -2 6l8 2q14 6 20 6q33 0 33 -26q0 -31 -65 -25q-4 4 0 10q53 -4 53 15q0 14 -21 14 q-4 0 -18 -4l-6 -4h-2v6l-2 -6q-14 4 0 12q12 4 24.5 9t12.5 16v8h-11q-18 0 -21 -28t-5 -50l-13 2q6 20 7 72q0 6 6 6t6 -6zM279 584q10 -12 24 -25q2 2 12 23l11 -4q-10 -25 -29 -76q-2 -6 -8 -4t-4 8q10 23 30 76l11 -7q-14 -29 -23 -28q-6 0 -33 28q1 7 9 9zM438 586 q-6 -29 -14 -90q-6 -2 -12 2q4 31 14 92q6 2 12 -4zM420 549q20 18 61 55q8 -2 8 -10q-6 -4 -61 -53q-6 2 -8 8zM436 555q16 -20 53 -66q4 -4 0 -8q-6 -4 -8 0q-10 12 -26.5 34t-26.5 32q2 8 8 8zM471 555q39 0 39 10q0 6 -10 6q-14 0 -15 -24q0 -20 19 -21q4 0 12 6 q6 0 8 -6q-10 -12 -20 -12q-31 0 -31 33q0 37 27 37q23 0 22 -19q0 -20 -51 -20q-4 0 -4 6q0 4 4 4zM543 571q2 -14 10 -43q6 20 16 56q8 2 13 -4q-6 -18 -10.5 -39t-24.5 -29q-6 16 -17 57q5 4 13 2zM604 569q-2 -18 -2 -49q0 -6 -4 -6q-6 0 -6 6v51q6 4 12 -2zM592 608 q0 6 6 6q4 0 4 -6t-4 -6q-6 0 -6 6zM629 545q0 -16 -6 -31q-6 0 -11 4q4 12 4 27v14q-2 8 -2 14t7 7q8 0 8 -35zM618 561q10 8 19.5 16.5t19.5 8.5q12 0 15 -15q2 -10 0 -30q-2 -23 -2 -25t-6 -2t-7 4q0 -6 5 31q2 25 -5 24q2 0 -32 -20q-7 2 -7 8zM770 528q-8 -23 -27 -32 q-2 10 -10 102q-2 6 4 6q6 2 6 -4q2 -29 9 -84q6 18 20 49q4 -23 19 -51q12 45 16 100q6 2 12 -2q-6 -57 -20 -112q-23 3 -29 28zM840 565q-2 -39 -2 -43t-7 -4q-6 0 -6 6q0 2 2 41q0 6 7 6q6 -2 6 -6zM831 600q0 4 7 4q4 0 4 -4q0 -6 -4 -6q-7 0 -7 6zM866 614 q-2 -31 -16 -104q-2 -4 -8 -4q-6 2 -4 8q10 35 18 102q0 6 6 5q4 -1 4 -7zM885 565q6 -12 14 -39q0 -16 -20 -16q-10 0 -17 14q4 6 10 4q2 -2 7 -6q10 0 6 15q-14 39 -2 41q6 0 20 -5q2 -8 -2 -12q-10 4 -14 4h-2zM944 563q-25 0 -24 -20q0 -14 22 -15q16 0 16 17 q0 20 -20 20q-4 0 -4 6t4 7q31 0 31 -33q0 -29 -27 -29q-33 0 -33 27q0 31 35 30q4 0 4 -4q0 -6 -4 -6zM985 551v-25q0 -6 -4 -6q-6 0 -6 7.5t-2 22.5t-2 23q0 6 6 7q6 0 6 -7.5t2 -21.5zM979 567q27 25 35 25q16 0 16 -62q0 -6 -6 -6q-4 0 -4 6q0 51 -6 52q-4 0 -27 -23 q-8 2 -8 8zM49 434q-23 -45 -6 -45q10 0 14 27q6 2 13 -2q-6 -37 -27 -37q-16 0 -16 20q0 16 12 43q6 0 10 -6zM74 412q0 -23 6 -29q18 0 12 51q4 4 10 2q10 -63 -20 -63q-20 0 -21 39q0 6 7 6q6 0 6 -6zM131 428q0 -49 10 -49q12 8 13 33q0 6 6 6q4 0 4 -6q0 -43 -23 -43 t-22 59q0 6 6 6t6 -6zM164 412q6 -29 16 -29t0 47q4 4 10 2q14 -59 -10 -59q-20 0 -26 37q-2 6 4 8q6 0 6 -6zM229 430q-14 -51 -2 -51q14 0 15 31q0 6 6 6t6 -6q0 -41 -27 -41t-8 63q6 2 10 -2zM256 408q2 -33 14 -33q10 0 9 20q-2 18 -7 27q4 6 11 6q8 -16 8 -39 q-2 -27 -21 -27q-23 0 -26 46q6 4 12 0zM319 383q0 6 7 6q6 0 6 -6q0 -4 -6 -4q-7 0 -7 4zM313 379q0 4 6 4t7 -4q0 -6 -7 -6q-6 0 -6 6zM317 381q0 4 7 4q4 0 4 -4q0 -6 -4 -6q-7 0 -7 6zM317 377q0 6 7 6q4 0 4 -6t-4 -6q-7 0 -7 6zM389 432q2 -14 0 -37q-4 -29 -4 -36 t-4 -7q-6 0 -6 4q0 10 2 39q2 23 2 37q-2 4 4 6q6 0 6 -6zM387 438q16 0 29 4q4 2 6 -2q2 -6 -2 -8q-14 -4 -33 -6q-4 6 0 12zM387 406q8 4 25 8q6 -6 2 -13q-6 -2 -25 -8q-6 7 -2 13zM432 420q0 6 6 6t6 -6t-6 -6t-6 6zM444 420q0 -37 -4 -53q0 -6 -6 -5q-6 0 -4 7 q2 16 2 51q0 6 6 6t6 -6zM438 424q16 8 21 8q16 0 16 -14q0 -29 -33 -33q-4 4 0 10q12 4 21 17q4 8 -4 8q-2 0 -15 -6q-6 2 -6 10zM453 397q18 -23 30 -41q2 -4 -2 -8q-6 -2 -8 2q-10 18 -29 39q3 6 9 8zM498 420q0 -43 0 -35q2 -14 16 -14q4 0 4 -6t-4 -7q-25 0 -27 23 q0 -2 0 39q0 6 7 6q4 0 4 -6zM498 401l18 -2q6 -2 6 -8q-2 -4 -8 -4l-18 4q-6 0 -4 6q0 6 6 4zM496 428l32 4q6 2 7 -4q2 -6 -5 -6l-32 -6q-6 0 -6 4q-2 6 4 8zM547 416q2 -33 2 -51h20q4 0 4 -5q0 -6 -4 -6h-32v6q0 16 -2 54q0 6 6 6t6 -4zM547 395l20 2q6 0 6 -6t-4 -6 l-20 -2q-6 0 -6 6t4 6zM543 416l30 10q4 -4 2 -10l-28 -10q-6 4 -4 10zM604 426v-39q-2 -25 -2 -34t-4 -9q-6 0 -6 6v36v40q0 4 6 4t6 -4zM592 354q12 14 35 52q2 6 8 2q4 -2 2 -9q-10 -14 -35 -53q-4 -4 -8 0t-2 8zM637 406q10 -14 25 -54q-6 -6 -13 -2q-2 10 -22 51 q-2 4 4 7q4 4 6 -2zM649 354q2 27 15 80q2 6 8 2q4 -2 2 -6q-2 -6 -12 -78q-2 -6 -7 -6q-6 2 -6 8zM715 416q-31 -2 -29 -33v-18q16 0 27 4q6 -4 4 -11q-10 -4 -41 -8v6v47q6 23 39 25q4 -6 0 -12zM682 393l25 6q6 0 8 -6q0 -4 -4 -6l-25 -6q-6 0 -8 4q0 6 4 8zM739 424 q4 -59 4 -51q0 -4 -6 -4t-6 4q0 -8 -4 51q6 4 12 0zM762 432q-4 2 -19 -8l-4 -2q-2 -2 -4 -2q-6 0 -6 6q0 4 6 4h-2l4 2q25 18 35 6q2 -2 2 -6q0 -16 -35 -35q-6 4 -4 11q21 12 27 24zM737 410q53 0 54 -25q0 -20 -52 -16q-2 4 2 10l27 -2q10 2 10 8q0 12 -24 12q2 0 -17 0 q-4 0 -4 6q0 7 4 7zM823 416h-4l-2 2q-4 2 -8 2v-2q12 -10 20 -21q20 -33 -20 -32q-6 0 -6 6t6 6q18 0 10 14q-8 10 -22 23v2q0 23 24 12h2q6 0 6 -6t-6 -6zM848 371v6q0 6 6 6t6 -6v-6q0 -6 -6 -6t-6 6zM848 373q0 6 6 6t6 -6q0 -4 -6 -4t-6 4zM856 373q0 6 4 6q6 0 6 -6 q0 -4 -6 -4q-4 0 -4 4zM854 381q0 4 6 4t6 -4q0 -6 -6 -6t-6 6zM930 422q-37 0 -37 -29q0 -18 29 -18q4 -4 2 -10q-43 -2 -43 28q0 41 49 41q6 0 6 -6t-6 -6zM958 416q-16 -4 -16 -15q0 -8 10 -8q14 0 13 8q-2 10 -9.5 15.5t-7.5 9.5t4 4q18 0 23 -27q4 -23 -23 -22 q-23 0 -22 20q0 18 24 27q6 -6 4 -12zM995 422v-20.5v-20.5q0 -6 -4 -6q-6 0 -6 6v20q-2 12 -2 21q0 6 6 6t6 -6zM995 424q6 -8 19 -23q-2 -6 -8 -6q-6 6 -21 23q-2 4 2 6q4 4 8 0zM1030 430l-14 -35q-8 -2 -10 4l14 35q2 4 6 2q6 -2 4 -6zM1034 430q8 -47 8 -49q0 -6 -4 -6 q-6 0 -6 4t-10 49q0 4 6 6q4 0 6 -4zM1094 461q-16 -43 -37 -131q0 -6 -6 -6q-6 2 -4 6q0 6 36 135q0 4 7 4q6 -2 4 -8zM1159 434v-24q-2 -14 -2 -21.5t-6 -7.5t-6 6q0 8 2 22.5t2 22.5t6 8q4 0 4 -6zM1118 434q16 6 64 27q6 -4 4 -10q-18 -10 -64 -27q-6 -2 -8 2q-2 6 4 8z M1208 469q0 -37 -4 -70q-2 -6 -6 -6q-6 2 -6 8q4 31 4 68q0 6 6 6t6 -6zM1223 426h-2q-2 0 -19 -4q-4 -2 -6 4q-2 4 4 6q14 6 21 6q10 2 12 -6v-14q-4 -27 -8 -27t-4 6v15q2 10 2 14zM1247 430q6 0 4 -4q-10 0 -4 -18q6 -16 19 -17q6 0 6 -6q0 -4 -6 -4q-31 0 -31 37 q0 18 16 18t6 -12q-8 -12 -18 -12q-6 0 -6 6t6 7t8 5zM1311 463q2 -33 8 -101q2 -6 -4 -8q-6 0 -7 5.5t-10 101.5q0 6 7 6q6 0 6 -4zM1305 467q18 8 57 27q4 4 6 -2q4 -4 0 -7q-20 -10 -57 -28q-6 4 -6 10zM1334.5 430q13.5 4 21.5 8q6 0 8 -4q0 -6 -4 -8q-14 -4 -45 -14 q-4 0 -6 4q-2 6 5 8t20.5 6zM1384 465v-74q0 -6 -6 -6q-4 0 -4 6v74q0 6 4 6q6 0 6 -6zM1415 436v0l-4 -12q0 -10 4 -22.5t6 -18.5q-2 -4 -10 -4q-2 8 -10 31q-8 39 14 39q12 0 12 -11q0 -27 -30 -26q-6 0 -6 6q0 4 11 7t13 11zM1438 393l-15 -10q-4 -4 -8 0q-2 4 2 8l13 10 q4 4 8 0t0 -8zM1470 430h-8q-6 2 -10 2q-6 0 -6 -6q0 -16 10 -16q8 0 8 22q0 6 6 6q4 0 5 -6q0 -35 -19 -35q-23 0 -22 29q0 23 30 16h4q2 -2 4.5 -2t2.5 -4q-1 -6 -5 -6zM1479 434q4 -12 10 -35q-4 -6 -10 -4q-4 10 -11 35q-2 6 5 8q4 0 6 -4zM1528 485v-100q0 -4 -6 -4 t-6 4v100q0 6 6 7q6 -1 6 -7zM1495 487q41 20 53 21q29 0 29 -29q0 -41 -59 -47q-4 0 -7 4q0 6 7 6q47 6 47 37q0 16 -17 17q-10 0 -49 -19q-6 4 -4 10zM1579 420l-2 -39q0 -6 -6 -6t-6 6l2 39q0 6 6 6t6 -6zM1575 451q0 6 4 6q6 0 6 -6q0 -4 -6 -5q-4 1 -4 5zM1616 463 q-2 -12 -10 -62q-2 -8 -2 -10h18q4 0 4 -4q0 -6 -4 -6q-33 -2 -29 22q4 20 11 60q2 6 6 6q6 -2 6 -6zM1593 430l41 8q6 0 6 -6q2 -4 -4 -6l-41 -8q-6 0 -8 4q0 6 6 8z" />
<glyph unicode="&#x3e;" d="M2236 684h-180q0 4 19 25q-41 96 -115 186q-33 -100 12 -170q-113 -4 -190 10q14 8 39 25v301q-4 4 -13 18q-8 8 -14 15q-8 10 0 22h176q29 -18 -18 -47q0 -86 8 -115q37 43 94 127q-2 4 -15.5 11.5t-13.5 13.5q131 6 175 -2q-45 -29 -50 -33q-29 -23 -106 -102 q66 -106 92 -150q53 -82 100 -135zM1800 969q-4 -6 -11 -17.5t-11 -15.5q-145 0 -213 -10q-2 -8 -2 -17q0 -33 34.5 -62.5t67.5 -29.5q16 0 27 8q29 18 86 47q4 -57 -62 -92q-53 -31 -117 -30q-25 0 -38 6q-113 41 -113 178q0 96 72 160q43 23 104 22q74 0 121 -33 q55 -38 55 -114zM1530 723q-18 0 -45 -10q-16 -6 -33 -6q-53 0 -102 67q-37 53 -54 111q-41 4 -53 -8v-74q4 -47 41 -68h-203q14 6 41 25v319q-16 8 -41 25q12 2 93 8q61 6 100 6q109 0 160 -43q12 -20 12 -47q0 -70 -82 -115q8 -6 78 -98q47 -65 88 -92zM1069 1116 q0 -18 -31 -47v-299q31 -31 31 -37q-127 0 -211 15q18 0 41 22v137q-35 8 -133 -10v-119q2 -6 41 -43q-150 0 -209 10q37 37 37 148q0 180 0 168q-2 4 -41 43q119 16 211 2q0 -6 -12 -14q-18 -12 -27 -23q0 -80 8 -115q88 0 125 9v108q-31 29 -31 45h201zM694 1257 q-35 -10 -67 -18q-45 -16 -74 -57q4 -45 -12 -95q-18 0 -56 5q-4 57 -49 92q-37 29 -84 28q-20 0 -37 -6q-33 -4 -57 -53q20 -78 160 -119q152 -43 192 -123q8 -117 -80 -176q-72 -51 -194 -51q-145 0 -240 61q-2 82 13 138q49 4 73 -13q-6 -51 43 -102t109 -51q66 0 96 71 v50q-33 33 -215 110q-143 61 -143 133q0 45 45 105q4 20 -29 53q-49 0 -82 23q0 33 21 98q6 0 18 5t16 5q41 -55 132 -141q47 25 139 24q37 0 184 -14q16 8 111 121h35q32 -48 32 -103zM1688 977q0 10 -4.5 33.5t-4.5 33.5q-35 33 -57 33q-18 -14 -35.5 -49t-17.5 -51h119z M1323 956q10 20 10 45q0 47 -33 74h-55q0 -106 10 -139q33 0 68 20zM207 584q0 -53 -6 -76l-13 2q2 29 7 55q6 35 32 35q20 0 21 -20q0 -16 -14.5 -22.5t-26.5 -12.5q-2 0 -4 -2v6q-2 2 -2 6l8 2q14 6 20 6q33 0 33 -26q0 -31 -65 -25q-4 4 0 10q53 -4 53 15q0 14 -21 14 q-4 0 -18 -4l-6 -4h-2v6l-2 -6q-14 4 0 12q12 4 24.5 9t12.5 16v8h-11q-18 0 -21 -28t-5 -50l-13 2q6 20 7 72q0 6 6 6t6 -6zM279 584q10 -12 24 -25q2 2 12 23l11 -4q-10 -25 -29 -76q-2 -6 -8 -4t-4 8q10 23 30 76l11 -7q-14 -29 -23 -28q-6 0 -33 28q1 7 9 9zM438 586 q-6 -29 -14 -90q-6 -2 -12 2q4 31 14 92q6 2 12 -4zM420 549q20 18 61 55q8 -2 8 -10q-6 -4 -61 -53q-6 2 -8 8zM436 555q16 -20 53 -66q4 -4 0 -8q-6 -4 -8 0q-10 12 -26.5 34t-26.5 32q2 8 8 8zM471 555q39 0 39 10q0 6 -10 6q-14 0 -15 -24q0 -20 19 -21q4 0 12 6 q6 0 8 -6q-10 -12 -20 -12q-31 0 -31 33q0 37 27 37q23 0 22 -19q0 -20 -51 -20q-4 0 -4 6q0 4 4 4zM543 571q2 -14 10 -43q6 20 16 56q8 2 13 -4q-6 -18 -10.5 -39t-24.5 -29q-6 16 -17 57q5 4 13 2zM604 569q-2 -18 -2 -49q0 -6 -4 -6q-6 0 -6 6v51q6 4 12 -2zM592 608 q0 6 6 6q4 0 4 -6t-4 -6q-6 0 -6 6zM629 545q0 -16 -6 -31q-6 0 -11 4q4 12 4 27v14q-2 8 -2 14t7 7q8 0 8 -35zM618 561q10 8 19.5 16.5t19.5 8.5q12 0 15 -15q2 -10 0 -30q-2 -23 -2 -25t-6 -2t-7 4q0 -6 5 31q2 25 -5 24q2 0 -32 -20q-7 2 -7 8zM770 528q-8 -23 -27 -32 q-2 10 -10 102q-2 6 4 6q6 2 6 -4q2 -29 9 -84q6 18 20 49q4 -23 19 -51q12 45 16 100q6 2 12 -2q-6 -57 -20 -112q-23 3 -29 28zM840 565q-2 -39 -2 -43t-7 -4q-6 0 -6 6q0 2 2 41q0 6 7 6q6 -2 6 -6zM831 600q0 4 7 4q4 0 4 -4q0 -6 -4 -6q-7 0 -7 6zM866 614 q-2 -31 -16 -104q-2 -4 -8 -4q-6 2 -4 8q10 35 18 102q0 6 6 5q4 -1 4 -7zM885 565q6 -12 14 -39q0 -16 -20 -16q-10 0 -17 14q4 6 10 4q2 -2 7 -6q10 0 6 15q-14 39 -2 41q6 0 20 -5q2 -8 -2 -12q-10 4 -14 4h-2zM944 563q-25 0 -24 -20q0 -14 22 -15q16 0 16 17 q0 20 -20 20q-4 0 -4 6t4 7q31 0 31 -33q0 -29 -27 -29q-33 0 -33 27q0 31 35 30q4 0 4 -4q0 -6 -4 -6zM985 551v-25q0 -6 -4 -6q-6 0 -6 7.5t-2 22.5t-2 23q0 6 6 7q6 0 6 -7.5t2 -21.5zM979 567q27 25 35 25q16 0 16 -62q0 -6 -6 -6q-4 0 -4 6q0 51 -6 52q-4 0 -27 -23 q-8 2 -8 8zM49 434q-23 -45 -6 -45q10 0 14 27q6 2 13 -2q-6 -37 -27 -37q-16 0 -16 20q0 16 12 43q6 0 10 -6zM74 412q0 -23 6 -29q18 0 12 51q4 4 10 2q10 -63 -20 -63q-20 0 -21 39q0 6 7 6q6 0 6 -6zM131 428q0 -49 10 -49q12 8 13 33q0 6 6 6q4 0 4 -6q0 -43 -23 -43 t-22 59q0 6 6 6t6 -6zM164 412q6 -29 16 -29t0 47q4 4 10 2q14 -59 -10 -59q-20 0 -26 37q-2 6 4 8q6 0 6 -6zM229 430q-14 -51 -2 -51q14 0 15 31q0 6 6 6t6 -6q0 -41 -27 -41t-8 63q6 2 10 -2zM256 408q2 -33 14 -33q10 0 9 20q-2 18 -7 27q4 6 11 6q8 -16 8 -39 q-2 -27 -21 -27q-23 0 -26 46q6 4 12 0zM319 383q0 6 7 6q6 0 6 -6q0 -4 -6 -4q-7 0 -7 4zM313 379q0 4 6 4t7 -4q0 -6 -7 -6q-6 0 -6 6zM317 381q0 4 7 4q4 0 4 -4q0 -6 -4 -6q-7 0 -7 6zM317 377q0 6 7 6q4 0 4 -6t-4 -6q-7 0 -7 6zM389 432q2 -14 0 -37q-4 -29 -4 -36 t-4 -7q-6 0 -6 4q0 10 2 39q2 23 2 37q-2 4 4 6q6 0 6 -6zM387 438q16 0 29 4q4 2 6 -2q2 -6 -2 -8q-14 -4 -33 -6q-4 6 0 12zM387 406q8 4 25 8q6 -6 2 -13q-6 -2 -25 -8q-6 7 -2 13zM432 420q0 6 6 6t6 -6t-6 -6t-6 6zM444 420q0 -37 -4 -53q0 -6 -6 -5q-6 0 -4 7 q2 16 2 51q0 6 6 6t6 -6zM438 424q16 8 21 8q16 0 16 -14q0 -29 -33 -33q-4 4 0 10q12 4 21 17q4 8 -4 8q-2 0 -15 -6q-6 2 -6 10zM453 397q18 -23 30 -41q2 -4 -2 -8q-6 -2 -8 2q-10 18 -29 39q3 6 9 8zM498 420q0 -43 0 -35q2 -14 16 -14q4 0 4 -6t-4 -7q-25 0 -27 23 q0 -2 0 39q0 6 7 6q4 0 4 -6zM498 401l18 -2q6 -2 6 -8q-2 -4 -8 -4l-18 4q-6 0 -4 6q0 6 6 4zM496 428l32 4q6 2 7 -4q2 -6 -5 -6l-32 -6q-6 0 -6 4q-2 6 4 8zM547 416q2 -33 2 -51h20q4 0 4 -5q0 -6 -4 -6h-32v6q0 16 -2 54q0 6 6 6t6 -4zM547 395l20 2q6 0 6 -6t-4 -6 l-20 -2q-6 0 -6 6t4 6zM543 416l30 10q4 -4 2 -10l-28 -10q-6 4 -4 10zM604 426v-39q-2 -25 -2 -34t-4 -9q-6 0 -6 6v36v40q0 4 6 4t6 -4zM592 354q12 14 35 52q2 6 8 2q4 -2 2 -9q-10 -14 -35 -53q-4 -4 -8 0t-2 8zM637 406q10 -14 25 -54q-6 -6 -13 -2q-2 10 -22 51 q-2 4 4 7q4 4 6 -2zM649 354q2 27 15 80q2 6 8 2q4 -2 2 -6q-2 -6 -12 -78q-2 -6 -7 -6q-6 2 -6 8zM715 416q-31 -2 -29 -33v-18q16 0 27 4q6 -4 4 -11q-10 -4 -41 -8v6v47q6 23 39 25q4 -6 0 -12zM682 393l25 6q6 0 8 -6q0 -4 -4 -6l-25 -6q-6 0 -8 4q0 6 4 8zM739 424 q4 -59 4 -51q0 -4 -6 -4t-6 4q0 -8 -4 51q6 4 12 0zM762 432q-4 2 -19 -8l-4 -2q-2 -2 -4 -2q-6 0 -6 6q0 4 6 4h-2l4 2q25 18 35 6q2 -2 2 -6q0 -16 -35 -35q-6 4 -4 11q21 12 27 24zM737 410q53 0 54 -25q0 -20 -52 -16q-2 4 2 10l27 -2q10 2 10 8q0 12 -24 12q2 0 -17 0 q-4 0 -4 6q0 7 4 7zM823 416h-4l-2 2q-4 2 -8 2v-2q12 -10 20 -21q20 -33 -20 -32q-6 0 -6 6t6 6q18 0 10 14q-8 10 -22 23v2q0 23 24 12h2q6 0 6 -6t-6 -6zM848 371v6q0 6 6 6t6 -6v-6q0 -6 -6 -6t-6 6zM848 373q0 6 6 6t6 -6q0 -4 -6 -4t-6 4zM856 373q0 6 4 6q6 0 6 -6 q0 -4 -6 -4q-4 0 -4 4zM854 381q0 4 6 4t6 -4q0 -6 -6 -6t-6 6zM930 422q-37 0 -37 -29q0 -18 29 -18q4 -4 2 -10q-43 -2 -43 28q0 41 49 41q6 0 6 -6t-6 -6zM958 416q-16 -4 -16 -15q0 -8 10 -8q14 0 13 8q-2 10 -9.5 15.5t-7.5 9.5t4 4q18 0 23 -27q4 -23 -23 -22 q-23 0 -22 20q0 18 24 27q6 -6 4 -12zM995 422v-20.5v-20.5q0 -6 -4 -6q-6 0 -6 6v20q-2 12 -2 21q0 6 6 6t6 -6zM995 424q6 -8 19 -23q-2 -6 -8 -6q-6 6 -21 23q-2 4 2 6q4 4 8 0zM1030 430l-14 -35q-8 -2 -10 4l14 35q2 4 6 2q6 -2 4 -6zM1034 430q8 -47 8 -49q0 -6 -4 -6 q-6 0 -6 4t-10 49q0 4 6 6q4 0 6 -4zM1094 461q-16 -43 -37 -131q0 -6 -6 -6q-6 2 -4 6q0 6 36 135q0 4 7 4q6 -2 4 -8zM1159 434v-24q-2 -14 -2 -21.5t-6 -7.5t-6 6q0 8 2 22.5t2 22.5t6 8q4 0 4 -6zM1118 434q16 6 64 27q6 -4 4 -10q-18 -10 -64 -27q-6 -2 -8 2q-2 6 4 8z M1208 469q0 -37 -4 -70q-2 -6 -6 -6q-6 2 -6 8q4 31 4 68q0 6 6 6t6 -6zM1223 426h-2q-2 0 -19 -4q-4 -2 -6 4q-2 4 4 6q14 6 21 6q10 2 12 -6v-14q-4 -27 -8 -27t-4 6v15q2 10 2 14zM1247 430q6 0 4 -4q-10 0 -4 -18q6 -16 19 -17q6 0 6 -6q0 -4 -6 -4q-31 0 -31 37 q0 18 16 18t6 -12q-8 -12 -18 -12q-6 0 -6 6t6 7t8 5zM1311 463q2 -33 8 -101q2 -6 -4 -8q-6 0 -7 5.5t-10 101.5q0 6 7 6q6 0 6 -4zM1305 467q18 8 57 27q4 4 6 -2q4 -4 0 -7q-20 -10 -57 -28q-6 4 -6 10zM1334.5 430q13.5 4 21.5 8q6 0 8 -4q0 -6 -4 -8q-14 -4 -45 -14 q-4 0 -6 4q-2 6 5 8t20.5 6zM1384 465v-74q0 -6 -6 -6q-4 0 -4 6v74q0 6 4 6q6 0 6 -6zM1415 436v0l-4 -12q0 -10 4 -22.5t6 -18.5q-2 -4 -10 -4q-2 8 -10 31q-8 39 14 39q12 0 12 -11q0 -27 -30 -26q-6 0 -6 6q0 4 11 7t13 11zM1438 393l-15 -10q-4 -4 -8 0q-2 4 2 8l13 10 q4 4 8 0t0 -8zM1470 430h-8q-6 2 -10 2q-6 0 -6 -6q0 -16 10 -16q8 0 8 22q0 6 6 6q4 0 5 -6q0 -35 -19 -35q-23 0 -22 29q0 23 30 16h4q2 -2 4.5 -2t2.5 -4q-1 -6 -5 -6zM1479 434q4 -12 10 -35q-4 -6 -10 -4q-4 10 -11 35q-2 6 5 8q4 0 6 -4zM1528 485v-100q0 -4 -6 -4 t-6 4v100q0 6 6 7q6 -1 6 -7zM1495 487q41 20 53 21q29 0 29 -29q0 -41 -59 -47q-4 0 -7 4q0 6 7 6q47 6 47 37q0 16 -17 17q-10 0 -49 -19q-6 4 -4 10zM1579 420l-2 -39q0 -6 -6 -6t-6 6l2 39q0 6 6 6t6 -6zM1575 451q0 6 4 6q6 0 6 -6q0 -4 -6 -5q-4 1 -4 5zM1616 463 q-2 -12 -10 -62q-2 -8 -2 -10h18q4 0 4 -4q0 -6 -4 -6q-33 -2 -29 22q4 20 11 60q2 6 6 6q6 -2 6 -6zM1593 430l41 8q6 0 6 -6q2 -4 -4 -6l-41 -8q-6 0 -8 4q0 6 6 8z" />
<glyph unicode="?" d="M2236 684h-180q0 4 19 25q-41 96 -115 186q-33 -100 12 -170q-113 -4 -190 10q14 8 39 25v301q-4 4 -13 18q-8 8 -14 15q-8 10 0 22h176q29 -18 -18 -47q0 -86 8 -115q37 43 94 127q-2 4 -15.5 11.5t-13.5 13.5q131 6 175 -2q-45 -29 -50 -33q-29 -23 -106 -102 q66 -106 92 -150q53 -82 100 -135zM1800 969q-4 -6 -11 -17.5t-11 -15.5q-145 0 -213 -10q-2 -8 -2 -17q0 -33 34.5 -62.5t67.5 -29.5q16 0 27 8q29 18 86 47q4 -57 -62 -92q-53 -31 -117 -30q-25 0 -38 6q-113 41 -113 178q0 96 72 160q43 23 104 22q74 0 121 -33 q55 -38 55 -114zM1530 723q-18 0 -45 -10q-16 -6 -33 -6q-53 0 -102 67q-37 53 -54 111q-41 4 -53 -8v-74q4 -47 41 -68h-203q14 6 41 25v319q-16 8 -41 25q12 2 93 8q61 6 100 6q109 0 160 -43q12 -20 12 -47q0 -70 -82 -115q8 -6 78 -98q47 -65 88 -92zM1069 1116 q0 -18 -31 -47v-299q31 -31 31 -37q-127 0 -211 15q18 0 41 22v137q-35 8 -133 -10v-119q2 -6 41 -43q-150 0 -209 10q37 37 37 148q0 180 0 168q-2 4 -41 43q119 16 211 2q0 -6 -12 -14q-18 -12 -27 -23q0 -80 8 -115q88 0 125 9v108q-31 29 -31 45h201zM694 1257 q-35 -10 -67 -18q-45 -16 -74 -57q4 -45 -12 -95q-18 0 -56 5q-4 57 -49 92q-37 29 -84 28q-20 0 -37 -6q-33 -4 -57 -53q20 -78 160 -119q152 -43 192 -123q8 -117 -80 -176q-72 -51 -194 -51q-145 0 -240 61q-2 82 13 138q49 4 73 -13q-6 -51 43 -102t109 -51q66 0 96 71 v50q-33 33 -215 110q-143 61 -143 133q0 45 45 105q4 20 -29 53q-49 0 -82 23q0 33 21 98q6 0 18 5t16 5q41 -55 132 -141q47 25 139 24q37 0 184 -14q16 8 111 121h35q32 -48 32 -103zM1688 977q0 10 -4.5 33.5t-4.5 33.5q-35 33 -57 33q-18 -14 -35.5 -49t-17.5 -51h119z M1323 956q10 20 10 45q0 47 -33 74h-55q0 -106 10 -139q33 0 68 20zM207 584q0 -53 -6 -76l-13 2q2 29 7 55q6 35 32 35q20 0 21 -20q0 -16 -14.5 -22.5t-26.5 -12.5q-2 0 -4 -2v6q-2 2 -2 6l8 2q14 6 20 6q33 0 33 -26q0 -31 -65 -25q-4 4 0 10q53 -4 53 15q0 14 -21 14 q-4 0 -18 -4l-6 -4h-2v6l-2 -6q-14 4 0 12q12 4 24.5 9t12.5 16v8h-11q-18 0 -21 -28t-5 -50l-13 2q6 20 7 72q0 6 6 6t6 -6zM279 584q10 -12 24 -25q2 2 12 23l11 -4q-10 -25 -29 -76q-2 -6 -8 -4t-4 8q10 23 30 76l11 -7q-14 -29 -23 -28q-6 0 -33 28q1 7 9 9zM438 586 q-6 -29 -14 -90q-6 -2 -12 2q4 31 14 92q6 2 12 -4zM420 549q20 18 61 55q8 -2 8 -10q-6 -4 -61 -53q-6 2 -8 8zM436 555q16 -20 53 -66q4 -4 0 -8q-6 -4 -8 0q-10 12 -26.5 34t-26.5 32q2 8 8 8zM471 555q39 0 39 10q0 6 -10 6q-14 0 -15 -24q0 -20 19 -21q4 0 12 6 q6 0 8 -6q-10 -12 -20 -12q-31 0 -31 33q0 37 27 37q23 0 22 -19q0 -20 -51 -20q-4 0 -4 6q0 4 4 4zM543 571q2 -14 10 -43q6 20 16 56q8 2 13 -4q-6 -18 -10.5 -39t-24.5 -29q-6 16 -17 57q5 4 13 2zM604 569q-2 -18 -2 -49q0 -6 -4 -6q-6 0 -6 6v51q6 4 12 -2zM592 608 q0 6 6 6q4 0 4 -6t-4 -6q-6 0 -6 6zM629 545q0 -16 -6 -31q-6 0 -11 4q4 12 4 27v14q-2 8 -2 14t7 7q8 0 8 -35zM618 561q10 8 19.5 16.5t19.5 8.5q12 0 15 -15q2 -10 0 -30q-2 -23 -2 -25t-6 -2t-7 4q0 -6 5 31q2 25 -5 24q2 0 -32 -20q-7 2 -7 8zM770 528q-8 -23 -27 -32 q-2 10 -10 102q-2 6 4 6q6 2 6 -4q2 -29 9 -84q6 18 20 49q4 -23 19 -51q12 45 16 100q6 2 12 -2q-6 -57 -20 -112q-23 3 -29 28zM840 565q-2 -39 -2 -43t-7 -4q-6 0 -6 6q0 2 2 41q0 6 7 6q6 -2 6 -6zM831 600q0 4 7 4q4 0 4 -4q0 -6 -4 -6q-7 0 -7 6zM866 614 q-2 -31 -16 -104q-2 -4 -8 -4q-6 2 -4 8q10 35 18 102q0 6 6 5q4 -1 4 -7zM885 565q6 -12 14 -39q0 -16 -20 -16q-10 0 -17 14q4 6 10 4q2 -2 7 -6q10 0 6 15q-14 39 -2 41q6 0 20 -5q2 -8 -2 -12q-10 4 -14 4h-2zM944 563q-25 0 -24 -20q0 -14 22 -15q16 0 16 17 q0 20 -20 20q-4 0 -4 6t4 7q31 0 31 -33q0 -29 -27 -29q-33 0 -33 27q0 31 35 30q4 0 4 -4q0 -6 -4 -6zM985 551v-25q0 -6 -4 -6q-6 0 -6 7.5t-2 22.5t-2 23q0 6 6 7q6 0 6 -7.5t2 -21.5zM979 567q27 25 35 25q16 0 16 -62q0 -6 -6 -6q-4 0 -4 6q0 51 -6 52q-4 0 -27 -23 q-8 2 -8 8zM49 434q-23 -45 -6 -45q10 0 14 27q6 2 13 -2q-6 -37 -27 -37q-16 0 -16 20q0 16 12 43q6 0 10 -6zM74 412q0 -23 6 -29q18 0 12 51q4 4 10 2q10 -63 -20 -63q-20 0 -21 39q0 6 7 6q6 0 6 -6zM131 428q0 -49 10 -49q12 8 13 33q0 6 6 6q4 0 4 -6q0 -43 -23 -43 t-22 59q0 6 6 6t6 -6zM164 412q6 -29 16 -29t0 47q4 4 10 2q14 -59 -10 -59q-20 0 -26 37q-2 6 4 8q6 0 6 -6zM229 430q-14 -51 -2 -51q14 0 15 31q0 6 6 6t6 -6q0 -41 -27 -41t-8 63q6 2 10 -2zM256 408q2 -33 14 -33q10 0 9 20q-2 18 -7 27q4 6 11 6q8 -16 8 -39 q-2 -27 -21 -27q-23 0 -26 46q6 4 12 0zM319 383q0 6 7 6q6 0 6 -6q0 -4 -6 -4q-7 0 -7 4zM313 379q0 4 6 4t7 -4q0 -6 -7 -6q-6 0 -6 6zM317 381q0 4 7 4q4 0 4 -4q0 -6 -4 -6q-7 0 -7 6zM317 377q0 6 7 6q4 0 4 -6t-4 -6q-7 0 -7 6zM389 432q2 -14 0 -37q-4 -29 -4 -36 t-4 -7q-6 0 -6 4q0 10 2 39q2 23 2 37q-2 4 4 6q6 0 6 -6zM387 438q16 0 29 4q4 2 6 -2q2 -6 -2 -8q-14 -4 -33 -6q-4 6 0 12zM387 406q8 4 25 8q6 -6 2 -13q-6 -2 -25 -8q-6 7 -2 13zM432 420q0 6 6 6t6 -6t-6 -6t-6 6zM444 420q0 -37 -4 -53q0 -6 -6 -5q-6 0 -4 7 q2 16 2 51q0 6 6 6t6 -6zM438 424q16 8 21 8q16 0 16 -14q0 -29 -33 -33q-4 4 0 10q12 4 21 17q4 8 -4 8q-2 0 -15 -6q-6 2 -6 10zM453 397q18 -23 30 -41q2 -4 -2 -8q-6 -2 -8 2q-10 18 -29 39q3 6 9 8zM498 420q0 -43 0 -35q2 -14 16 -14q4 0 4 -6t-4 -7q-25 0 -27 23 q0 -2 0 39q0 6 7 6q4 0 4 -6zM498 401l18 -2q6 -2 6 -8q-2 -4 -8 -4l-18 4q-6 0 -4 6q0 6 6 4zM496 428l32 4q6 2 7 -4q2 -6 -5 -6l-32 -6q-6 0 -6 4q-2 6 4 8zM547 416q2 -33 2 -51h20q4 0 4 -5q0 -6 -4 -6h-32v6q0 16 -2 54q0 6 6 6t6 -4zM547 395l20 2q6 0 6 -6t-4 -6 l-20 -2q-6 0 -6 6t4 6zM543 416l30 10q4 -4 2 -10l-28 -10q-6 4 -4 10zM604 426v-39q-2 -25 -2 -34t-4 -9q-6 0 -6 6v36v40q0 4 6 4t6 -4zM592 354q12 14 35 52q2 6 8 2q4 -2 2 -9q-10 -14 -35 -53q-4 -4 -8 0t-2 8zM637 406q10 -14 25 -54q-6 -6 -13 -2q-2 10 -22 51 q-2 4 4 7q4 4 6 -2zM649 354q2 27 15 80q2 6 8 2q4 -2 2 -6q-2 -6 -12 -78q-2 -6 -7 -6q-6 2 -6 8zM715 416q-31 -2 -29 -33v-18q16 0 27 4q6 -4 4 -11q-10 -4 -41 -8v6v47q6 23 39 25q4 -6 0 -12zM682 393l25 6q6 0 8 -6q0 -4 -4 -6l-25 -6q-6 0 -8 4q0 6 4 8zM739 424 q4 -59 4 -51q0 -4 -6 -4t-6 4q0 -8 -4 51q6 4 12 0zM762 432q-4 2 -19 -8l-4 -2q-2 -2 -4 -2q-6 0 -6 6q0 4 6 4h-2l4 2q25 18 35 6q2 -2 2 -6q0 -16 -35 -35q-6 4 -4 11q21 12 27 24zM737 410q53 0 54 -25q0 -20 -52 -16q-2 4 2 10l27 -2q10 2 10 8q0 12 -24 12q2 0 -17 0 q-4 0 -4 6q0 7 4 7zM823 416h-4l-2 2q-4 2 -8 2v-2q12 -10 20 -21q20 -33 -20 -32q-6 0 -6 6t6 6q18 0 10 14q-8 10 -22 23v2q0 23 24 12h2q6 0 6 -6t-6 -6zM848 371v6q0 6 6 6t6 -6v-6q0 -6 -6 -6t-6 6zM848 373q0 6 6 6t6 -6q0 -4 -6 -4t-6 4zM856 373q0 6 4 6q6 0 6 -6 q0 -4 -6 -4q-4 0 -4 4zM854 381q0 4 6 4t6 -4q0 -6 -6 -6t-6 6zM930 422q-37 0 -37 -29q0 -18 29 -18q4 -4 2 -10q-43 -2 -43 28q0 41 49 41q6 0 6 -6t-6 -6zM958 416q-16 -4 -16 -15q0 -8 10 -8q14 0 13 8q-2 10 -9.5 15.5t-7.5 9.5t4 4q18 0 23 -27q4 -23 -23 -22 q-23 0 -22 20q0 18 24 27q6 -6 4 -12zM995 422v-20.5v-20.5q0 -6 -4 -6q-6 0 -6 6v20q-2 12 -2 21q0 6 6 6t6 -6zM995 424q6 -8 19 -23q-2 -6 -8 -6q-6 6 -21 23q-2 4 2 6q4 4 8 0zM1030 430l-14 -35q-8 -2 -10 4l14 35q2 4 6 2q6 -2 4 -6zM1034 430q8 -47 8 -49q0 -6 -4 -6 q-6 0 -6 4t-10 49q0 4 6 6q4 0 6 -4zM1094 461q-16 -43 -37 -131q0 -6 -6 -6q-6 2 -4 6q0 6 36 135q0 4 7 4q6 -2 4 -8zM1159 434v-24q-2 -14 -2 -21.5t-6 -7.5t-6 6q0 8 2 22.5t2 22.5t6 8q4 0 4 -6zM1118 434q16 6 64 27q6 -4 4 -10q-18 -10 -64 -27q-6 -2 -8 2q-2 6 4 8z M1208 469q0 -37 -4 -70q-2 -6 -6 -6q-6 2 -6 8q4 31 4 68q0 6 6 6t6 -6zM1223 426h-2q-2 0 -19 -4q-4 -2 -6 4q-2 4 4 6q14 6 21 6q10 2 12 -6v-14q-4 -27 -8 -27t-4 6v15q2 10 2 14zM1247 430q6 0 4 -4q-10 0 -4 -18q6 -16 19 -17q6 0 6 -6q0 -4 -6 -4q-31 0 -31 37 q0 18 16 18t6 -12q-8 -12 -18 -12q-6 0 -6 6t6 7t8 5zM1311 463q2 -33 8 -101q2 -6 -4 -8q-6 0 -7 5.5t-10 101.5q0 6 7 6q6 0 6 -4zM1305 467q18 8 57 27q4 4 6 -2q4 -4 0 -7q-20 -10 -57 -28q-6 4 -6 10zM1334.5 430q13.5 4 21.5 8q6 0 8 -4q0 -6 -4 -8q-14 -4 -45 -14 q-4 0 -6 4q-2 6 5 8t20.5 6zM1384 465v-74q0 -6 -6 -6q-4 0 -4 6v74q0 6 4 6q6 0 6 -6zM1415 436v0l-4 -12q0 -10 4 -22.5t6 -18.5q-2 -4 -10 -4q-2 8 -10 31q-8 39 14 39q12 0 12 -11q0 -27 -30 -26q-6 0 -6 6q0 4 11 7t13 11zM1438 393l-15 -10q-4 -4 -8 0q-2 4 2 8l13 10 q4 4 8 0t0 -8zM1470 430h-8q-6 2 -10 2q-6 0 -6 -6q0 -16 10 -16q8 0 8 22q0 6 6 6q4 0 5 -6q0 -35 -19 -35q-23 0 -22 29q0 23 30 16h4q2 -2 4.5 -2t2.5 -4q-1 -6 -5 -6zM1479 434q4 -12 10 -35q-4 -6 -10 -4q-4 10 -11 35q-2 6 5 8q4 0 6 -4zM1528 485v-100q0 -4 -6 -4 t-6 4v100q0 6 6 7q6 -1 6 -7zM1495 487q41 20 53 21q29 0 29 -29q0 -41 -59 -47q-4 0 -7 4q0 6 7 6q47 6 47 37q0 16 -17 17q-10 0 -49 -19q-6 4 -4 10zM1579 420l-2 -39q0 -6 -6 -6t-6 6l2 39q0 6 6 6t6 -6zM1575 451q0 6 4 6q6 0 6 -6q0 -4 -6 -5q-4 1 -4 5zM1616 463 q-2 -12 -10 -62q-2 -8 -2 -10h18q4 0 4 -4q0 -6 -4 -6q-33 -2 -29 22q4 20 11 60q2 6 6 6q6 -2 6 -6zM1593 430l41 8q6 0 6 -6q2 -4 -4 -6l-41 -8q-6 0 -8 4q0 6 6 8z" />
<glyph unicode="@" d="M2236 684h-180q0 4 19 25q-41 96 -115 186q-33 -100 12 -170q-113 -4 -190 10q14 8 39 25v301q-4 4 -13 18q-8 8 -14 15q-8 10 0 22h176q29 -18 -18 -47q0 -86 8 -115q37 43 94 127q-2 4 -15.5 11.5t-13.5 13.5q131 6 175 -2q-45 -29 -50 -33q-29 -23 -106 -102 q66 -106 92 -150q53 -82 100 -135zM1800 969q-4 -6 -11 -17.5t-11 -15.5q-145 0 -213 -10q-2 -8 -2 -17q0 -33 34.5 -62.5t67.5 -29.5q16 0 27 8q29 18 86 47q4 -57 -62 -92q-53 -31 -117 -30q-25 0 -38 6q-113 41 -113 178q0 96 72 160q43 23 104 22q74 0 121 -33 q55 -38 55 -114zM1530 723q-18 0 -45 -10q-16 -6 -33 -6q-53 0 -102 67q-37 53 -54 111q-41 4 -53 -8v-74q4 -47 41 -68h-203q14 6 41 25v319q-16 8 -41 25q12 2 93 8q61 6 100 6q109 0 160 -43q12 -20 12 -47q0 -70 -82 -115q8 -6 78 -98q47 -65 88 -92zM1069 1116 q0 -18 -31 -47v-299q31 -31 31 -37q-127 0 -211 15q18 0 41 22v137q-35 8 -133 -10v-119q2 -6 41 -43q-150 0 -209 10q37 37 37 148q0 180 0 168q-2 4 -41 43q119 16 211 2q0 -6 -12 -14q-18 -12 -27 -23q0 -80 8 -115q88 0 125 9v108q-31 29 -31 45h201zM694 1257 q-35 -10 -67 -18q-45 -16 -74 -57q4 -45 -12 -95q-18 0 -56 5q-4 57 -49 92q-37 29 -84 28q-20 0 -37 -6q-33 -4 -57 -53q20 -78 160 -119q152 -43 192 -123q8 -117 -80 -176q-72 -51 -194 -51q-145 0 -240 61q-2 82 13 138q49 4 73 -13q-6 -51 43 -102t109 -51q66 0 96 71 v50q-33 33 -215 110q-143 61 -143 133q0 45 45 105q4 20 -29 53q-49 0 -82 23q0 33 21 98q6 0 18 5t16 5q41 -55 132 -141q47 25 139 24q37 0 184 -14q16 8 111 121h35q32 -48 32 -103zM1688 977q0 10 -4.5 33.5t-4.5 33.5q-35 33 -57 33q-18 -14 -35.5 -49t-17.5 -51h119z M1323 956q10 20 10 45q0 47 -33 74h-55q0 -106 10 -139q33 0 68 20zM207 584q0 -53 -6 -76l-13 2q2 29 7 55q6 35 32 35q20 0 21 -20q0 -16 -14.5 -22.5t-26.5 -12.5q-2 0 -4 -2v6q-2 2 -2 6l8 2q14 6 20 6q33 0 33 -26q0 -31 -65 -25q-4 4 0 10q53 -4 53 15q0 14 -21 14 q-4 0 -18 -4l-6 -4h-2v6l-2 -6q-14 4 0 12q12 4 24.5 9t12.5 16v8h-11q-18 0 -21 -28t-5 -50l-13 2q6 20 7 72q0 6 6 6t6 -6zM279 584q10 -12 24 -25q2 2 12 23l11 -4q-10 -25 -29 -76q-2 -6 -8 -4t-4 8q10 23 30 76l11 -7q-14 -29 -23 -28q-6 0 -33 28q1 7 9 9zM438 586 q-6 -29 -14 -90q-6 -2 -12 2q4 31 14 92q6 2 12 -4zM420 549q20 18 61 55q8 -2 8 -10q-6 -4 -61 -53q-4 -4 -8 0t0 8zM436 555q16 -20 53 -66q4 -4 0 -8q-6 -4 -8 0q-10 12 -26.5 34t-26.5 32q-4 4 0 8t8 0zM471 555q39 0 39 10q0 6 -10 6q-14 0 -15 -24q0 -20 19 -21 q4 0 12 6q6 0 8 -6q-10 -12 -20 -12q-31 0 -31 33q0 37 27 37q23 0 22 -19q0 -20 -51 -20q-4 0 -4 6q0 4 4 4zM543 571q2 -14 10 -43q6 20 16 56q8 2 13 -4q-6 -18 -10.5 -39t-24.5 -29q-6 16 -17 57q5 4 13 2zM604 569q-2 -18 -2 -49q0 -6 -4 -6q-6 0 -6 6v51q0 6 6 4 q6 0 6 -6zM592 608q0 6 6 6q4 0 4 -6t-4 -6q-6 0 -6 6zM629 545q0 -16 -6 -31q-6 0 -11 4q4 12 4 27v14q-2 8 -2 14t7 7q8 0 8 -35zM618 561q10 8 19.5 16.5t19.5 8.5q12 0 15 -15q2 -10 0 -30q-2 -23 -2 -25t-6 -2t-7 4q0 -6 5 31q2 25 -5 24q2 0 -32 -20q-7 2 -7 8z M770 528q-8 -23 -27 -32q-2 10 -10 102q4 4 10 2q2 -29 9 -84q6 18 20 49q4 -23 19 -51q12 45 16 100q0 4 6 4t6 -6q-6 -57 -20 -112q-23 3 -29 28zM840 565q-2 -39 -2 -43t-7 -4q-6 0 -6 6q0 2 2 41q0 6 7 6q6 -2 6 -6zM831 600q0 4 7 4q4 0 4 -4q0 -6 -4 -6q-7 0 -7 6z M866 614q-2 -31 -16 -104q-2 -4 -8 -4q-6 2 -4 8q10 35 18 102q0 6 6 5q4 -1 4 -7zM885 565q6 -12 14 -39q0 -16 -20 -16q-10 0 -17 14q4 6 10 4q2 -2 7 -6q10 0 6 15q-14 39 -2 41q6 0 20 -5q2 -8 -2 -12q-10 4 -14 4h-2zM944 563q-25 0 -24 -20q0 -14 22 -15q16 0 16 17 q0 20 -20 20q-4 0 -4 6t4 7q31 0 31 -33q0 -29 -27 -29q-33 0 -33 27q0 31 35 30q4 0 4 -4q0 -6 -4 -6zM985 551v-25q0 -6 -4 -6q-6 0 -6 7.5t-2 22.5t-2 23q0 6 6 7q6 0 6 -7.5t2 -21.5zM979 567q27 25 35 25q16 0 16 -62q0 -6 -6 -6q-4 0 -4 6q0 51 -6 52q-4 0 -27 -23 q-8 2 -8 8zM49 434q-23 -45 -6 -45q10 0 14 27q6 2 13 -2q-6 -37 -27 -37q-16 0 -16 20q0 16 12 43q6 0 10 -6zM74 412q0 -23 6 -29q18 0 12 51q4 4 10 2q10 -63 -20 -63q-20 0 -21 39q0 6 7 6q6 0 6 -6zM131 428q0 -49 10 -49q12 8 13 33q0 6 6 6q4 0 4 -6q0 -43 -23 -43 t-22 59q0 6 6 6t6 -6zM164 412q6 -29 16 -29t0 47q4 4 10 2q14 -59 -10 -59q-20 0 -26 37q-2 6 4 8q6 0 6 -6zM229 430q-14 -51 -2 -51q14 0 15 31q0 6 6 6t6 -6q0 -41 -27 -41t-8 63q6 2 10 -2zM256 408q2 -33 14 -33q10 0 9 20q-2 18 -7 27q4 6 11 6q8 -16 8 -39 q-2 -27 -21 -27q-23 0 -26 46q0 6 6 6q4 0 6 -6zM319 383q0 6 7 6q6 0 6 -6q0 -4 -6 -4q-7 0 -7 4zM313 379q0 4 6 4t7 -4q0 -6 -7 -6q-6 0 -6 6zM317 381q0 4 7 4q4 0 4 -4q0 -6 -4 -6q-7 0 -7 6zM317 377q0 6 7 6q4 0 4 -6t-4 -6q-7 0 -7 6zM389 432q2 -14 0 -37 q-4 -29 -4 -36t-4 -7q-6 0 -6 4q0 10 2 39q2 23 2 37q-2 4 4 6q6 0 6 -6zM387 438q16 0 29 4q4 2 6 -2q2 -6 -2 -8q-14 -4 -33 -6q-4 6 0 12zM387 406q8 4 25 8q6 -6 2 -13q-6 -2 -25 -8q-6 7 -2 13zM432 420q0 6 6 6t6 -6t-6 -6t-6 6zM444 420q0 -37 -4 -53q0 -6 -6 -5 q-6 0 -4 7q2 16 2 51q0 6 6 6t6 -6zM438 424q16 8 21 8q16 0 16 -14q0 -29 -33 -33q-4 4 0 10q12 4 21 17q4 8 -4 8q-2 0 -15 -6q-6 2 -6 10zM453 397q18 -23 30 -41q2 -4 -2 -8q-6 -2 -8 2q-10 18 -29 39q3 6 9 8zM498 420q0 -43 0 -35q2 -14 16 -14q4 0 4 -6t-4 -7 q-25 0 -27 23q0 -2 0 39q0 6 7 6q4 0 4 -6zM498 401l18 -2q6 -2 6 -8q-2 -4 -8 -4l-18 4q-6 0 -4 6q0 6 6 4zM496 428l32 4q6 2 7 -4q2 -6 -5 -6l-32 -6q-6 6 -2 12zM547 416q2 -33 2 -51h20q4 0 4 -5q0 -6 -4 -6h-32v6q0 16 -2 54q0 6 6 6t6 -4zM547 395l20 2q6 0 6 -6 t-4 -6l-20 -2q-6 0 -6 6t4 6zM543 416l30 10q4 -4 2 -10l-28 -10q-6 4 -4 10zM604 426v-39q-2 -25 -2 -34t-4 -9q-6 0 -6 6v36v40q0 4 6 4t6 -4zM592 354q12 14 35 52q2 6 8 2q4 -2 2 -9q-10 -14 -35 -53q-4 -4 -8 0t-2 8zM637 406q10 -14 25 -54q-6 -6 -13 -2q-2 10 -22 51 q-2 4 4 7q4 4 6 -2zM649 354q2 27 15 80q2 6 8 2q4 -2 2 -6q-2 -6 -12 -78q-7 -4 -13 2zM715 416q-31 -2 -29 -33v-18q16 0 27 4q6 -4 4 -11q-10 -4 -41 -8v6v47q6 23 39 25q4 -6 0 -12zM682 393l25 6q6 0 8 -6q0 -4 -4 -6l-25 -6q-6 0 -8 4q0 6 4 8zM739 424q4 -59 4 -51 q0 -4 -6 -4t-6 4q0 -8 -4 51q0 6 6 6t6 -6zM762 432q-4 2 -19 -8l-4 -2q-2 -2 -4 -2q-6 0 -6 6q0 4 6 4h-2l4 2q25 18 35 6q2 -2 2 -6q0 -16 -35 -35q-6 4 -4 11q21 12 27 24zM737 410q53 0 54 -25q0 -20 -52 -16q-2 4 2 10l27 -2q10 2 10 8q0 12 -24 12q2 0 -17 0 q-4 0 -4 6q0 7 4 7zM823 416h-4l-2 2q-4 2 -8 2v-2q12 -10 20 -21q20 -33 -20 -32q-6 0 -6 6t6 6q18 0 10 14q-8 10 -22 23v2q0 23 24 12h2q6 0 6 -6t-6 -6zM848 371v6q0 6 6 6t6 -6v-6q0 -6 -6 -6t-6 6zM848 373q0 6 6 6t6 -6q0 -4 -6 -4t-6 4zM856 373q0 6 4 6q6 0 6 -6 q0 -4 -6 -4q-4 0 -4 4zM854 381q0 4 6 4t6 -4q0 -6 -6 -6t-6 6zM930 422q-37 0 -37 -29q0 -18 29 -18q4 -4 2 -10q-43 -2 -43 28q0 41 49 41q6 0 6 -6t-6 -6zM958 416q-16 -4 -16 -15q0 -8 10 -8q14 0 13 8q-2 10 -9.5 15.5t-7.5 9.5t4 4q18 0 23 -27q4 -23 -23 -22 q-23 0 -22 20q0 18 24 27q6 -6 4 -12zM995 422v-20.5v-20.5q0 -6 -4 -6q-6 0 -6 6v20q-2 12 -2 21q0 6 6 6t6 -6zM995 424q6 -8 19 -23q4 -6 0 -8q-6 -4 -10.5 2t-18.5 23q-2 4 2 6q4 4 8 0zM1030 430l-14 -35q-2 -6 -8 -2q-6 2 -2 6l14 35q2 4 6 2q6 -2 4 -6zM1034 430 q8 -47 8 -49q0 -6 -4 -6q-6 0 -6 4t-10 49q0 4 6 6q4 0 6 -4zM1094 461q-16 -43 -37 -131q0 -6 -6 -6q-6 2 -4 6q0 6 36 135q0 4 7 4q6 -2 4 -8zM1159 434v-24q-2 -14 -2 -21.5t-6 -7.5t-6 6q0 8 2 22.5t2 22.5t6 8q4 0 4 -6zM1118 434q16 6 64 27q6 2 8 -4q2 -4 -4 -6 q-18 -10 -64 -27q-6 -2 -8 2q-2 6 4 8zM1208 469q0 -37 -4 -70q-6 -4 -12 2q4 31 4 68q0 6 6 6t6 -6zM1223 426h-2q-2 0 -19 -4q-4 -2 -6 4q-2 4 4 6q14 6 21 6q10 2 12 -6v-14q-4 -27 -8 -27t-4 6v15q2 10 2 14zM1247 430q6 0 4 -4q-10 0 -4 -18q6 -16 19 -17q6 0 6 -6 q0 -4 -6 -4q-31 0 -31 37q0 18 16 18t6 -12q-8 -12 -18 -12q-6 0 -6 6t6 7t8 5zM1311 463q2 -33 8 -101q2 -6 -4 -8q-6 0 -7 5.5t-10 101.5q0 6 7 6q6 0 6 -4zM1305 467q18 8 57 27q4 4 6 -2q4 -4 0 -7q-20 -10 -57 -28q-6 4 -6 10zM1334.5 430q13.5 4 21.5 8q6 0 8 -4 q0 -6 -4 -8q-14 -4 -45 -14q-4 0 -6 4q-2 6 5 8t20.5 6zM1384 465v-74q0 -6 -6 -6q-4 0 -4 6v74q0 6 4 6q6 0 6 -6zM1415 436v0l-4 -12q0 -10 4 -22.5t6 -18.5q-2 -4 -10 -4q-2 8 -10 31q-8 39 14 39q12 0 12 -11q0 -27 -30 -26q-6 0 -6 6q0 4 11 7t13 11zM1438 393l-15 -10 q-4 -4 -8 0q-2 4 2 8l13 10q4 4 8 0t0 -8zM1470 430h-8q-6 2 -10 2q-6 0 -6 -6q0 -16 10 -16q8 0 8 22q0 6 6 6q4 0 5 -6q0 -35 -19 -35q-23 0 -22 29q0 23 30 16h4q2 -2 4.5 -2t2.5 -4q-1 -6 -5 -6zM1479 434q4 -12 10 -35q2 -6 -4 -8q-6 0 -8 7.5t-9 31.5q-2 6 5 8 q4 0 6 -4zM1528 485v-100q0 -4 -6 -4t-6 4v100q0 6 6 7q6 -1 6 -7zM1495 487q41 20 53 21q29 0 29 -29q0 -41 -59 -47q-4 4 0 10q47 6 47 37q0 16 -17 17q-10 0 -49 -19q-4 -2 -6 2q-4 6 2 8zM1579 420l-2 -39q0 -6 -6 -6t-6 6l2 39q0 6 6 6t6 -6zM1575 451q0 6 4 6 q6 0 6 -6q0 -4 -6 -5q-4 1 -4 5zM1616 463q-2 -12 -10 -62q-2 -8 -2 -10h18q4 0 4 -4q0 -6 -4 -6q-33 -2 -29 22q4 20 11 60q2 6 6 6q6 -2 6 -6zM1593 430l41 8q6 0 6 -6q2 -4 -4 -6l-41 -8q-6 0 -8 4q0 6 6 8z" />
<glyph unicode="A" horiz-adv-x="2150" d="M2132 426q-45 -33 -150 -57q-117 -29 -161 -52q-84 -45 -117 -137q51 -117 184 -368q47 -18 94 -37q57 -25 72 -56q8 -66 -55 -65q-4 0 -367 2h-540q-31 47 -31 72q68 27 186 79q-23 94 -129 361h-522q-61 -113 -182 -338q31 -31 90 -41q88 -16 114 -27q20 0 21 -47 q0 -41 -18 -59q-61 0 -170 -2q-129 -2 -168 -2q-274 0 -275 86q0 33 66 49q98 23 102 25q70 104 139 208q82 141 74 232q-61 63 -162 100q-37 12 -153 41q-68 16 -68 35q0 6 4 14q49 162 113 256q20 12 43 13q63 0 145 -111q63 -86 125 -170q14 -14 36 -25.5t34 -25.5 q252 422 450 858h285q162 -403 377 -831q106 -10 188 100q59 96 117 194l94 29q37 -35 76 -117q45 -90 45 -149q0 -23 -6 -37zM1083 305q-59 158 -172 451q-90 -162 -254 -451h426z" />
<glyph unicode="B" horiz-adv-x="1863" d="M1999 1307q-59 -39 -176 -80q-137 -49 -181 -68v-41q88 -158 89 -266q0 -78 -39 -156q-61 -66 -150 -123q-68 -43 -137 -84q104 -39 211 -77q141 -68 211 -187q61 -66 61 -151q0 -150 -156.5 -283t-338.5 -131q-201 2 -373 2q-416 0 -677 -15.5t-226 -15.5q-20 0 -44 39 t-24 62q35 35 88 35q25 18 49.5 37.5t24.5 62.5v1212q-53 90 -154 138q-8 6 -145 51q-63 20 -53 57q57 201 147 289q63 8 109 -62q45 -80 92 -159q72 -104 186 -152q150 -16 355.5 -16t615.5 -11q154 27 250 138q61 92 122.5 181t145.5 81q37 -35 78 -117q47 -92 47 -154 q0 -20 -8 -36zM1214 727q6 88 7 119q0 147 -66 196q-88 23 -338 23q-12 -199 -6 -451q45 -10 100 -10q92 0 248 39q0 12 17 27q24 22 38 57zM1264 -174q61 74 61 182q0 150 -104 266q-115 127 -295 127q-55 0 -115 -14v-614q314 -6 453 53z" />
<glyph unicode="C" horiz-adv-x="1878" d="M2148 1307q-61 -37 -176 -78q-133 -47 -176 -70v-405l-61 -62h-148q-35 55 -55.5 155.5t-46.5 143.5q-47 74 -166 125q-137 14 -199 14q-233 0 -350 -135q-145 -252 -145 -493q0 -399 403 -619q61 -12 121 -12q272 0 629 266q20 8 60 -35t40 -82q-389 -385 -864 -385 q-367 0 -705 224q-256 236 -256 587q0 381 334 682q-45 70 -129 91q-72 10 -143 20q-78 18 -109 90q-2 86 43 160q29 49 107 127q14 8 30 8q47 0 111.5 -92t126.5 -184q84 -111 166 -140q174 82 440 82q125 0 307 -18q141 -14 285 -31q68 4 178 135q96 113 139 209l95 29 q37 -35 75 -117q45 -92 45 -151q0 -23 -6 -39z" />
<glyph unicode="D" horiz-adv-x="2240" d="M2228 530q-33 -547 -438 -741q-272 -133 -862 -133q-53 0 -158 2h-154q-250 0 -393 -20q-27 55 -12 94q141 84 129 166q0 537 -8 858q-4 227 -13 331q-6 92 -6 70q-51 68 -176 98q-111 27 -127 70q-4 20 -4 39q0 102 154 256q18 18 37 18q35 0 86 -92q88 -162 98 -176 q68 -98 141 -108h957q188 0 221 6q57 12 106 80q82 121 164 241l94 29q37 -35 78 -119q45 -92 45 -153q0 -23 -6 -39q-41 -25 -102 -31q-78 -8 -109 -19q-70 -23 -143 -92q207 -125 315 -323q90 -162 86 -312zM1063 -225q289 -18 465 207q158 201 158 493q0 272 -140 457 q-156 205 -424 205q-68 0 -143 -15q-31 -33 -35 -633q2 279 2 -651q14 -14 58.5 -31.5t58.5 -31.5z" />
<glyph unicode="E" horiz-adv-x="1933" d="M2177 1309q-41 -25 -84 -27q-55 -4 -84 -16q-63 -25 -162 -105v-307q-14 0 -62 -15.5t-61 -15.5q-37 18 -65.5 72.5t-28.5 101.5q-84 106 -254 125l-250 4l-49 -47q2 -123 4 -245q4 -129 21 -234q162 -8 287 29q80 74 79 162h103v-570h-103q0 14 -15 57.5t-15 57.5 q-57 59 -162 74q-57 8 -201 4q0 -352 31 -561l49 -50q227 -4 328 29q190 63 235 272q150 0 215 -61q-25 -96 -49 -190q-33 -123 -67 -211q-150 0 -470.5 5t-484.5 5q-291 0 -518 -12q-31 33 -31 106q12 0 56.5 15.5t58.5 15.5q16 10 30.5 20t14.5 51v1178q-33 117 -151 164 q-102 23 -206 47.5t-110 93.5q57 199 150 291q20 8 39 8q49 0 96 -82t90 -164q61 -94 139 -114q172 -16 416 -17q147 0 383 7q322 10 377 10q80 41 188 215q88 143 174 137q53 -12 91 -95t38 -161q0 -34 -10 -57z" />
<glyph unicode="F" horiz-adv-x="1804" d="M2118 1313q-150 -16 -234 -56t-86 -90v-321q-35 -20 -90 -21q-53 0 -94 21q0 29 -12.5 81t-14.5 81q-106 74 -237 94q-70 10 -228 6q-14 -14 -36.5 -23.5t-36.5 -21.5q4 -49 -2 -123q-6 -88 -7 -117q0 -121 58 -227q111 -4 254 27q78 72 78 159h98v-555h-101 q6 82 -75 158q-78 27 -256 27l-47 -47q0 -94 13 -289t13 -289q45 -18 90 -39q55 -27 72 -45q-4 -20 -35 -70q-205 23 -432 23q-221 0 -436 -21q-12 27 -33 66q25 25 79 54.5t81 58.5q0 133 9 463.5t9 508.5q0 104 -2 197q-66 137 -170 223q-94 14 -186 31q-109 20 -115 92 q57 199 146 287q14 10 28 10q35 0 86 -82q94 -152 105 -164q76 -100 161 -133q176 -18 422 -18q199 0 641 18q98 35 162 133q41 84 85 165t108 81q23 0 51 -10q127 -119 127 -230q0 -36 -10 -73z" />
<glyph unicode="G" horiz-adv-x="2039" d="M2152 1309q-94 -33 -268 -121q6 -260 -31 -465h-178q-25 27 -63 135q-45 119 -76 166q-53 84 -129 94q-123 43 -236 43q-242 0 -393 -192q-141 -180 -141 -432q0 -268 164 -451q184 -207 518 -211q-4 76 -4 313q-10 55 -132 84t-122 74q0 16 10 37q162 16 393 16 q117 0 582 -14q-12 -72 -54 -80t-81 -14q-14 -92 -15 -240q0 -139 -14 -221q-385 -190 -829 -190q-461 0 -711 221q-274 242 -274 606q0 379 299 598q0 14 13 34.5t13 35.5q-35 20 -139 47q-113 31 -158 51q-76 37 -84 94q57 199 148 289q23 16 43 16q45 0 104.5 -94 t118.5 -188q82 -113 170 -142q211 90 512 90q256 0 518 -63q125 45 318 350l94 31q37 -35 78 -119q45 -90 45 -151q-1 -23 -9 -37z" />
<glyph unicode="H" horiz-adv-x="2082" d="M2066 -283q-4 -20 -34 -65q-195 20 -412 20t-432 -20q-31 31 -31 100q8 0 56.5 14.5t76.5 14.5q55 80 56 244q0 98 -31 356h-529v-555q29 -27 78 -45q61 -23 78 -33v-94q-186 18 -399 18q-223 0 -451 -20q-31 31 -31 100q53 0 129 76q20 57 19 590q0 537 -19 596 q-6 8 -84 71q-45 41 -45 74q39 12 132 23q102 10 151 22q-25 12 -168 68q-109 41 -170 86q8 10 24.5 76.5t41.5 105.5q37 63 106 92q115 -115 268 -368q127 -80 261 -80q25 0 74.5 3t76.5 3q29 0 55 -2q29 -45 29 -70q-2 -2 -156 -78q0 -340 23 -479q356 0 530 25 q6 242 -28 428q-20 25 -86 55q-43 18 -43 70q0 20 4 49q53 -20 114 -21q160 0 320 122t240 313q31 31 94 30q35 -33 74 -112q43 -88 43 -146q0 -20 -9 -37q-57 -35 -168 -71q-125 -41 -168 -64q55 -27 275 -12q23 0 22 -51q0 -35 -16 -52q-59 -14 -96 -88q-27 -53 -27 -84 q0 -451 6 -729q4 -193 13 -299q6 -90 6 -86l82 -32q48 -21 75 -52z" />
<glyph unicode="I" horiz-adv-x="872" d="M860 -287q-4 -20 -33 -63q-188 18 -393 18t-393 -18q-33 31 -33 92q25 14 76 26.5t76 24.5v1143q8 55 -78 78.5t-74 81.5q53 14 168 26q127 16 184 27q8 86 -28 215q-41 137 -41 180q0 49 24 86q111 0 267 -104q8 -20 8 -49q0 -47 -25.5 -98.5t-50.5 -67.5q-4 -37 -9 -74 t-22 -70q-10 -12 -10 -22q0 -16 35 -17h321q29 -45 29 -69q-90 -39 -149 -98v-1168q63 -27 151 -80z" />
<glyph unicode="J" horiz-adv-x="1181" d="M1165 1360q-29 -18 -131 -39q-80 -16 -141 -84l8 -1053q0 -270 -166 -407q-154 -127 -428 -127q-135 0 -293 33q20 25 125 47q113 27 164 67q84 68 98 209q0 535 -8 850q-6 223 -14 320q-8 84 -8 61q-49 47 -156 76q-94 29 -119 65q-6 16 -6 39q0 55 37 107q43 61 119 94 q14 -14 88 -141q53 -96 121 -111h356q92 59 178 227l78 25q33 -29 66 -98q37 -78 36 -127q0 -21 -4 -33z" />
<glyph unicode="K" horiz-adv-x="2017" d="M2057.5 1268.5q-70.5 -21.5 -130.5 -70.5q-348 -281 -616 -551q174 -256 350 -510q238 -319 405 -405v-74q-176 -16 -372 -16q-221 0 -434 20q-8 20 -9 35q0 20 27 39q47 33 59 45q-92 139 -182 280q-109 160 -256 277v-526q8 -39 75.5 -61.5t67.5 -55.5q0 -14 -8 -33 q-63 0 -280 -8t-324 -8q-270 0 -270 43q0 8 10 20q10 27 70 51q70 27 94 52v1318q-18 55 -111 80q-76 16 -150.5 37t-64.5 76q57 201 146 289q12 6 22 6q43 0 100.5 -87t112.5 -173q74 -100 152 -119h282q209 -8 215 -76q-4 -4 -54 -28.5t-83 -57.5q0 -385 19 -497 q299 299 444 518q-16 25 -53 30q-27 4 -54 9q-8 16 -8 41q0 27 13 53q94 -8 356 8q109 45 176 147l86 160q43 74 105 74q20 0 45 -8q39 -37 84 -111q51 -90 51 -147q0 -31 -18.5 -47.5t-89 -38z" />
<glyph unicode="L" horiz-adv-x="1855" d="M1843 57q0 -193 -88 -415q-156 0 -484.5 6t-498.5 6q-297 0 -530 -12q-33 33 -33 108q68 -8 143 29q49 41 49 131q0 475 -6 778q-4 209 -12 332q-8 104 -8 100q-33 63 -125 94q-78 20 -157 41t-87 66q61 209 154 301q68 6 155 -137q96 -158 138 -168q106 -45 262 -45 q182 0 315 71q61 92 124 186.5t144 92.5q39 -37 80 -123q47 -94 47 -158q0 -25 -8 -38q-55 -35 -188 -87.5t-207 -97.5q-25 -207 -25 -1124q0 -109 76 -184q18 0 69.5 -2.5t82.5 -2.5q348 0 399 285q139 8 219 -33z" />
<glyph unicode="M" horiz-adv-x="2686" d="M2906 1327q-63 -41 -182 -84q-141 -51 -184 -72q-16 -16 -33 -34.5t-17 -63.5v-1225q-2 -43 101.5 -66.5t103.5 -53.5q0 -14 -10 -31q-385 -35 -942 -35q-33 47 -33 74q35 35 121 35q72 4 72 571q0 250 -17 436q-96 -182 -273 -558t-274 -558h-211q-102 160 -236 531.5 t-251 556.5v-928q115 -53 170 -53v-80q-225 -39 -575 -8v57q63 33 79 43q45 27 82 65v1246q-76 61 -209 124.5t-182 100.5q49 168 115 266q20 12 41 12q61 0 149 -114q123 -160 133 -168q219 -39 445 -39q72 0 141 4q115 -195 196 -427.5t163 -463.5q102 178 251 459 q197 375 244 461q117 -20 264 -21q170 0 322 27q68 96 137 192q98 127 180 137q39 -37 80 -120q45 -94 45 -156q0 -25 -6 -39z" />
<glyph unicode="N" horiz-adv-x="2209" d="M2515 1272q-186 -39 -262 -82q-4 -4 -158 -123v-1429h-405q-262 268 -525 536q-303 309 -522 496v-875q111 -53 168 -53v-104q-53 0 -176 6t-191 6q-117 0 -208 -15q-12 31 -35 72q72 31 196 88v1219q0 43 -17.5 72.5t-33.5 58.5q-49 61 -201 90q-129 25 -139 84 q59 207 152 299q68 6 133 -62q27 -31 112 -153q70 -102 123 -143q43 0 144 6q109 8 155 8q37 0 66 -4q225 -219 450 -441q289 -281 512 -469v760q-57 16 -114 31q-68 25 -58 94q57 14 131 17q49 2 136 -5q94 -4 133 -4q43 43 121 152q96 133 127 172q43 12 69 12 q37 -37 78 -121q45 -94 45 -155q0 -25 -6 -41z" />
<glyph unicode="O" horiz-adv-x="2074" d="M2124 1300q-35 -27 -189 -61q-135 -33 -213 -119q219 -156 293 -319q55 -125 56 -350q0 -438 -328 -652q-258 -166 -649 -166q-383 0 -660 174q-344 219 -344 644q0 369 260 596l21 47q14 31 14 45q-94 82 -229 110q-113 27 -146 80q-4 16 -4 33q0 78 64 172q57 86 82 86 q4 0 4 -4q4 2 8 2q23 0 98 -98q111 -141 158 -191q102 -104 178 -117q14 -2 176 27q180 31 334 29q29 -2 185.5 -29t189.5 -27q111 0 248 125q131 119 184 248q53 20 82 21q8 0 14 -2q115 -92 113 -160v-144zM1509 424q0 207 -79 381q-113 248 -336 248q-233 0 -338 -211 q-78 -156 -78 -406q0 -231 67 -385q100 -231 336 -231q70 0 142 24q98 35 141 103q49 41 98 207q47 159 47 270z" />
<glyph unicode="P" horiz-adv-x="1998" d="M2271 1300q-63 -41 -184 -81q-139 -47 -184 -70q100 -123 100 -330q0 -90 -27 -162q-100 -188 -286 -272q-135 -63 -353 -80q-164 -12 -327 -24v-445q16 -16 96 -45q61 -20 61 -59q0 -23 -16 -56q-510 0 -842 -32q-20 0 -45.5 42t-25.5 66q27 14 85 28.5t87 29.5v1306 q-49 59 -154 86q-80 20 -160 42t-90 79q10 10 27.5 83t44.5 118q41 70 117 102q23 -23 104 -172q61 -111 131 -117h1053q41 0 112 -30q102 -47 123 -56q158 -8 332 342l100 33q39 -37 82 -125q47 -96 47 -162q0 -23 -8 -39zM1075 1192q-29 -29 -61 -35v-674q92 -35 172 -34 q154 0 244 120q80 109 79 267q0 154 -75 262q-86 119 -228 119q-61 0 -131 -25z" />
<glyph unicode="Q" horiz-adv-x="2131" d="M2150 1300q-53 -29 -174 -68.5t-174 -68.5v-26q209 -172 270.5 -299t53.5 -355q-8 -207 -88 -362q-45 -78 -92 -154q39 -25 109.5 -91t127.5 -101q92 -57 225 -97q10 -31 -59 -49q-57 -14 -133 -14q-27 0 -45 2q-82 6 -166 14q-94 20 -285 133q-332 -131 -626 -131 q-446 0 -727 285q-248 250 -248 565q0 25 -2 60t-2 51q0 84 45 178q57 117 229 356q-45 74 -129 101q-72 16 -143 31q-78 20 -107 73q-4 25 -4 45q0 80 49 142q51 51 103 102q8 8 20 8q45 0 184 -172q160 -201 230 -248q88 66 258 80q45 4 272 4q174 0 500 -55 q125 43 320 354q51 20 79 21q10 0 17 -4q115 -94 112 -162v-148zM1556 457q0 205 -81 385q-117 260 -353 260q-219 0 -329 -242q-78 -176 -78 -389q0 -219 51 -369q96 -291 356 -290q211 0 336 243q98 193 98 402z" />
<glyph unicode="R" horiz-adv-x="1994" d="M2238 1284q-10 -6 -208 -88q-127 -51 -211 -119q12 -43 12 -96q0 -164 -94 -301q-117 -170 -342 -223q141 -43 286 -199q139 -150 172 -278q16 -61 89 -140.5t149 -122.5q2 -41 -25 -92q-309 -8 -493 33q-117 61 -195 197q-29 47 -118 262q-68 164 -142 243 q-106 6 -178 -24v-469q-6 -39 74 -64.5t80 -68.5q0 -20 -15 -49q-489 0 -831 -35q-18 0 -33 43q-10 33 -10 61q12 12 59 29q59 18 84 31q0 6 8 127q8 143 13 364q8 324 8 825q-41 61 -135 80q-76 8 -151 20.5t-85 76.5q-4 70 29 143q47 109 158 154q20 -20 100 -172 q57 -111 131 -113q59 -4 139 -4q76 0 256 7t275 7q410 0 573 -121q104 8 197 127q80 119 159 238l97 31q39 -35 80 -123q47 -94 47 -158q-1 -25 -9 -39zM1249 647q63 106 64 230q0 123 -66 215q-84 55 -303 55v-557q225 0 305 57z" />
<glyph unicode="S" horiz-adv-x="1873" d="M2118 1315q-47 -31 -160 -67t-166 -66q-86 -37 -100 -160q-2 -115 -4 -231q-76 2 -207 8q4 20 4 39q0 129 -126 231t-280 102q-168 0 -272 -133v-178q106 -66 520 -209q362 -125 461 -227q33 -37 82 -129q23 -135 0 -275q-238 -385 -848 -385q-391 0 -719 140 q-12 240 29 448q78 -2 207 -14q-4 -20 -4 -43q0 -158 153.5 -281t331.5 -123q197 0 299 158v156q-18 68 -180 139q-168 57 -334 113q-252 90 -391 190q-188 133 -189 287q0 129 129 268q0 14 14.5 34.5t14.5 35.5q-43 55 -217 90q-152 31 -160 100q-12 188 146 285 q74 -4 135 -94l110 -176q80 -102 187 -131q197 76 485 75q199 0 530 -43q66 4 175 133q96 113 137 205l94 31q37 -35 76 -117q45 -90 45 -149q0 -23 -8 -37z" />
<glyph unicode="T" horiz-adv-x="1867" d="M2118 1319q-35 -16 -121 -29q-78 -10 -125 -41q-12 -12 -22.5 -35.5t-22.5 -37.5q0 -45 18 -129q27 -119 35 -166q-66 -37 -182 -31q0 10 -15.5 59t-15.5 80q-27 27 -77 64t-77 63q-102 6 -170 -22v-1299q68 -29 162 -84q-4 -23 -35 -69q-299 31 -872 30q-31 94 6 95 q104 35 111 38q35 27 41 121v1116q-39 39 -39 41q-29 20 -80 23q-80 0 -100 -2q-45 -8 -82 -41q-41 -80 -80 -213q-121 -8 -180 33q2 6 65 139q45 94 45 160q-33 43 -176 69q-123 23 -123 88q57 195 146 285q8 2 14 2q61 0 172 -194.5t164 -194.5q14 0 28 12h1065 q86 0 318 344l92 29q37 -33 76 -115q45 -90 45 -149q0 -23 -8 -39z" />
<glyph unicode="U" horiz-adv-x="2105" d="M2486 1305q-25 -16 -162 -58q-119 -35 -221 -123q-43 -160 -14 -528q29 -354 -25 -518q-90 -266 -422 -404q-260 -41 -430 -41q-672 0 -843 521v1001q-39 33 -195 74q-135 37 -168 96q18 76 39 154q39 98 145 141q76 -45 138 -180q55 -121 143 -156q346 -12 641 29 l66 -70q-20 -25 -95 -57.5t-100 -59.5v-1024q63 -104 173 -161.5t237 -57.5q207 0 364 142q102 227 103 694q0 258 -37 434q-4 2 -94 37q-59 20 -76 53q6 23 39 70q182 -45 360 -29q43 43 123 154q96 133 127 170q43 12 68 12q39 -35 79 -121q45 -92 45 -156q0 -22 -8 -38z " />
<glyph unicode="V" horiz-adv-x="2144" d="M2449 1288q-74 -61 -196 -84q-111 -41 -211 -170q-74 -94 -150 -250q-51 -106 -102 -215q-174 -315 -512 -927h-231q-231 504 -719 1521q-37 70 -152 109q-152 49 -166 59q-4 18 -4 39q0 100 152 252q10 6 20 6q31 0 82 -82q78 -133 109 -170q80 -100 176 -129 q80 -12 198 -12h78q51 2 72 2q150 0 164 -41q-2 -68 -17 -82q-27 -14 -55 -27q94 -223 186 -448q125 -285 234 -375q186 305 424 826l-47 47h-168q0 -12 -6 53q-4 33 12 51q98 -10 156 -10q150 0 249 63q123 76 216 271l94 28q37 -35 78 -116q45 -92 45 -152q-1 -23 -9 -37z " />
<glyph unicode="W" horiz-adv-x="2928" d="M3260 1296q-29 -49 -82 -54t-110 -11q-80 -18 -160 -94q-418 -922 -627 -1459h-315q-47 119 -141 395.5t-150 418.5q-133 -285 -399 -840h-313q-268 528 -435 1038q-39 123 -67 191q-49 123 -111 213q-31 66 -123 110q-74 29 -148.5 60.5t-72.5 76.5q57 201 148 291 q12 4 26 4q43 0 94.5 -85t102.5 -169q74 -100 164 -125q84 -8 190 -8q221 0 406 29q35 -35 34 -102q-55 -12 -161 -52q139 -516 313 -931q186 367 248 663q-29 76 -58 154q-35 78 -88 123q-23 0 -56.5 -3.5t-43.5 -3.5q-35 0 -49 24t-21 95q377 33 936 33q35 0 35 -107 q-10 4 -22 5q-31 0 -136 -54q63 -358 205 -876q207 414 367 852q-172 29 -201 39q-49 16 -49 59q0 14 6 45q61 18 191 16h198q84 61 193 218q84 119 164 129q39 -35 80 -117q45 -94 45 -154q-1 -23 -7 -37z" />
<glyph unicode="X" horiz-adv-x="2134" d="M2216 1307q-43 -47 -137 -63.5t-174 -92.5q-125 -135 -250 -268q-143 -158 -248 -297q68 -90 223 -344q129 -213 213 -303q123 -137 256 -160q35 -35 35 -62q-6 -18 -37 -65q-172 20 -450 20q-279 0 -510 -20l-64 69q31 33 86 52.5t111 36.5q-35 86 -127 217 q-84 119 -168 239q-215 -256 -322 -432q29 -29 113 -56.5t111 -53.5q-4 -23 -37 -72q-281 31 -768 31q0 72 34 108q45 -23 91 -22q113 0 239 133q74 74 217 276q131 184 197 242q-123 154 -275 383q-125 193 -249 387q-55 57 -189 78q-111 16 -125 75q-6 14 -6 37 q0 66 43 133q51 80 148 119q70 -23 125 -168q51 -133 129 -139h698q33 -51 33 -76q-102 -35 -193 -80q147 -246 293 -430q90 119 293 377q-68 59 -82 65.5t-76 6.5q-33 33 -33 135q45 0 182.5 -13.5t213.5 -13.5q86 57 131 166t119 160q41 10 67 10q121 -137 121 -284 q0 -23 -2 -41z" />
<glyph unicode="Y" horiz-adv-x="2144" d="M2365 1290q-184 -49 -350 -213q-111 -109 -266 -334q-174 -254 -244 -331q-4 -84 -4 -562q16 -33 73.5 -67.5t115.5 -69.5l-64 -69q-305 31 -883 30q-14 45 -14 74q0 45 62 57q84 18 112 48q0 102 3 223t3 147q0 121 -37 189q-20 39 -176 231q-199 246 -411 551 q-47 47 -185 76q-104 20 -92 65q57 203 148 291q8 2 18 2q45 0 92 -82q90 -154 101 -168q74 -98 174 -127q84 -8 190 -8q203 0 434 29q35 -33 35 -101q-53 -12 -162 -51q80 -162 340 -526q147 172 367 502l-47 43h-135q-20 20 -21 51q0 35 23 55q139 2 276 4 q100 8 160.5 69.5t155.5 250.5l94 28q55 -39 90 -111.5t35 -137.5q-1 -35 -11 -58z" />
<glyph unicode="Z" horiz-adv-x="1937" d="M2177 1305q-145 -29 -152 -31q-63 -20 -120 -84q35 -25 26 -141q-303 -354 -962 -1178l47 -43q41 4 88 4q45 0 130 -6t128 -6q174 0 299 86q14 27 28.5 97.5t28.5 96.5q133 8 187 -32v-369l-64 -64q-1042 0 -1243 -4q-209 -2 -250 -22q-4 2 -60.5 29.5t-88.5 60.5 q-6 111 37 178q311 371 944 1124q2 2 4 9q6 20 -15 59q-96 -2 -233 4q-150 8 -193 8q-137 0 -206 -41q-84 -51 -119 -184q-31 -33 -31 -59q-66 -16 -160 30q41 96 109 303q-35 27 -191 84q-117 41 -139 111q59 203 150 293q55 -14 120 -111q57 -86 115 -172q74 -94 154 -102 h1095q117 0 222 158q51 98 104 196l94 31q57 -12 94 -94q33 -74 33 -152q0 -42 -10 -67z" />
<glyph unicode="[" horiz-adv-x="720" d="M711 -219q-2 -16 -27 -53q-156 16 -326 16t-327 -16q-27 27 -27 77q43 10 125 41v951q-29 33 -123 80v75h680q25 -35 25 -53q-41 -20 -125 -82v-971q53 -22 125 -65z" />
<glyph unicode="\" d="M2236 684h-180q0 4 19 25q-41 96 -115 186q-33 -100 12 -170q-113 -4 -190 10q14 8 39 25v301q-4 4 -13 18q-8 8 -14 15q-8 10 0 22h176q29 -18 -18 -47q0 -86 8 -115q37 43 94 127q-2 4 -15.5 11.5t-13.5 13.5q131 6 175 -2q-45 -29 -50 -33q-29 -23 -106 -102 q66 -106 92 -150q53 -82 100 -135zM1800 969q-4 -6 -11 -17.5t-11 -15.5q-145 0 -213 -10q-2 -8 -2 -17q0 -33 34.5 -62.5t67.5 -29.5q16 0 27 8q29 18 86 47q4 -57 -62 -92q-53 -31 -117 -30q-25 0 -38 6q-113 41 -113 178q0 96 72 160q43 23 104 22q74 0 121 -33 q55 -38 55 -114zM1530 723q-18 0 -45 -10q-16 -6 -33 -6q-53 0 -102 67q-37 53 -54 111q-41 4 -53 -8v-74q4 -47 41 -68h-203q14 6 41 25v319q-16 8 -41 25q12 2 93 8q61 6 100 6q109 0 160 -43q12 -20 12 -47q0 -70 -82 -115q8 -6 78 -98q47 -65 88 -92zM1069 1116 q0 -18 -31 -47v-299q31 -31 31 -37q-127 0 -211 15q18 0 41 22v137q-35 8 -133 -10v-119q2 -6 41 -43q-150 0 -209 10q37 37 37 148q0 180 0 168q-2 4 -41 43q119 16 211 2q0 -6 -12 -14q-18 -12 -27 -23q0 -80 8 -115q88 0 125 9v108q-31 29 -31 45h201zM694 1257 q-35 -10 -67 -18q-45 -16 -74 -57q4 -45 -12 -95q-18 0 -56 5q-4 57 -49 92q-37 29 -84 28q-20 0 -37 -6q-33 -4 -57 -53q20 -78 160 -119q152 -43 192 -123q8 -117 -80 -176q-72 -51 -194 -51q-145 0 -240 61q-2 82 13 138q49 4 73 -13q-6 -51 43 -102t109 -51q66 0 96 71 v50q-33 33 -215 110q-143 61 -143 133q0 45 45 105q4 20 -29 53q-49 0 -82 23q0 33 21 98q6 0 18 5t16 5q41 -55 132 -141q47 25 139 24q37 0 184 -14q16 8 111 121h35q32 -48 32 -103zM1688 977q0 10 -4.5 33.5t-4.5 33.5q-35 33 -57 33q-18 -14 -35.5 -49t-17.5 -51h119z M1323 956q10 20 10 45q0 47 -33 74h-55q0 -106 10 -139q33 0 68 20zM207 584q0 -53 -6 -76l-13 2q2 29 7 55q6 35 32 35q20 0 21 -20q0 -16 -14.5 -22.5t-26.5 -12.5q-2 0 -4 -2v6q-2 2 -2 6l8 2q14 6 20 6q33 0 33 -26q0 -31 -65 -25q-4 4 0 10q53 -4 53 15q0 14 -21 14 q-4 0 -18 -4l-6 -4h-2v6l-2 -6q-14 4 0 12q12 4 24.5 9t12.5 16v8h-11q-18 0 -21 -28t-5 -50l-13 2q6 20 7 72q0 6 6 6t6 -6zM279 584q10 -12 24 -25q2 2 12 23l11 -4q-10 -25 -29 -76q-2 -6 -8 -4t-4 8q10 23 30 76l11 -7q-14 -29 -23 -28q-6 0 -33 28q1 7 9 9zM438 586 q-6 -29 -14 -90q-6 -2 -12 2q4 31 14 92q6 2 12 -4zM420 549q20 18 61 55q8 -2 8 -10q-6 -4 -61 -53q-6 2 -8 8zM436 555q16 -20 53 -66q4 -4 0 -8q-6 -4 -8 0q-10 12 -26.5 34t-26.5 32q2 8 8 8zM471 555q39 0 39 10q0 6 -10 6q-14 0 -15 -24q0 -20 19 -21q4 0 12 6 q6 0 8 -6q-10 -12 -20 -12q-31 0 -31 33q0 37 27 37q23 0 22 -19q0 -20 -51 -20q-4 0 -4 6q0 4 4 4zM543 571q2 -14 10 -43q6 20 16 56q8 2 13 -4q-6 -18 -10.5 -39t-24.5 -29q-6 16 -17 57q5 4 13 2zM604 569q-2 -18 -2 -49q0 -6 -4 -6q-6 0 -6 6v51q6 4 12 -2zM592 608 q0 6 6 6q4 0 4 -6t-4 -6q-6 0 -6 6zM629 545q0 -16 -6 -31q-6 0 -11 4q4 12 4 27v14q-2 8 -2 14t7 7q8 0 8 -35zM618 561q10 8 19.5 16.5t19.5 8.5q12 0 15 -15q2 -10 0 -30q-2 -23 -2 -25t-6 -2t-7 4q0 -6 5 31q2 25 -5 24q2 0 -32 -20q-7 2 -7 8zM770 528q-8 -23 -27 -32 q-2 10 -10 102q-2 6 4 6q6 2 6 -4q2 -29 9 -84q6 18 20 49q4 -23 19 -51q12 45 16 100q6 2 12 -2q-6 -57 -20 -112q-23 3 -29 28zM840 565q-2 -39 -2 -43t-7 -4q-6 0 -6 6q0 2 2 41q0 6 7 6q6 -2 6 -6zM831 600q0 4 7 4q4 0 4 -4q0 -6 -4 -6q-7 0 -7 6zM866 614 q-2 -31 -16 -104q-2 -4 -8 -4q-6 2 -4 8q10 35 18 102q0 6 6 5q4 -1 4 -7zM885 565q6 -12 14 -39q0 -16 -20 -16q-10 0 -17 14q4 6 10 4q2 -2 7 -6q10 0 6 15q-14 39 -2 41q6 0 20 -5q2 -8 -2 -12q-10 4 -14 4h-2zM944 563q-25 0 -24 -20q0 -14 22 -15q16 0 16 17 q0 20 -20 20q-4 0 -4 6t4 7q31 0 31 -33q0 -29 -27 -29q-33 0 -33 27q0 31 35 30q4 0 4 -4q0 -6 -4 -6zM985 551v-25q0 -6 -4 -6q-6 0 -6 7.5t-2 22.5t-2 23q0 6 6 7q6 0 6 -7.5t2 -21.5zM979 567q27 25 35 25q16 0 16 -62q0 -6 -6 -6q-4 0 -4 6q0 51 -6 52q-4 0 -27 -23 q-8 2 -8 8zM49 434q-23 -45 -6 -45q10 0 14 27q6 2 13 -2q-6 -37 -27 -37q-16 0 -16 20q0 16 12 43q6 0 10 -6zM74 412q0 -23 6 -29q18 0 12 51q4 4 10 2q10 -63 -20 -63q-20 0 -21 39q0 6 7 6q6 0 6 -6zM131 428q0 -49 10 -49q12 8 13 33q0 6 6 6q4 0 4 -6q0 -43 -23 -43 t-22 59q0 6 6 6t6 -6zM164 412q6 -29 16 -29t0 47q4 4 10 2q14 -59 -10 -59q-20 0 -26 37q-2 6 4 8q6 0 6 -6zM229 430q-14 -51 -2 -51q14 0 15 31q0 6 6 6t6 -6q0 -41 -27 -41t-8 63q6 2 10 -2zM256 408q2 -33 14 -33q10 0 9 20q-2 18 -7 27q4 6 11 6q8 -16 8 -39 q-2 -27 -21 -27q-23 0 -26 46q6 4 12 0zM319 383q0 6 7 6q6 0 6 -6q0 -4 -6 -4q-7 0 -7 4zM313 379q0 4 6 4t7 -4q0 -6 -7 -6q-6 0 -6 6zM317 381q0 4 7 4q4 0 4 -4q0 -6 -4 -6q-7 0 -7 6zM317 377q0 6 7 6q4 0 4 -6t-4 -6q-7 0 -7 6zM389 432q2 -14 0 -37q-4 -29 -4 -36 t-4 -7q-6 0 -6 4q0 10 2 39q2 23 2 37q-2 4 4 6q6 0 6 -6zM387 438q16 0 29 4q4 2 6 -2q2 -6 -2 -8q-14 -4 -33 -6q-4 6 0 12zM387 406q8 4 25 8q6 -6 2 -13q-6 -2 -25 -8q-6 7 -2 13zM432 420q0 6 6 6t6 -6t-6 -6t-6 6zM444 420q0 -37 -4 -53q0 -6 -6 -5q-6 0 -4 7 q2 16 2 51q0 6 6 6t6 -6zM438 424q16 8 21 8q16 0 16 -14q0 -29 -33 -33q-4 4 0 10q12 4 21 17q4 8 -4 8q-2 0 -15 -6q-6 2 -6 10zM453 397q18 -23 30 -41q2 -4 -2 -8q-6 -2 -8 2q-10 18 -29 39q3 6 9 8zM498 420q0 -43 0 -35q2 -14 16 -14q4 0 4 -6t-4 -7q-25 0 -27 23 q0 -2 0 39q0 6 7 6q4 0 4 -6zM498 401l18 -2q6 -2 6 -8q-2 -4 -8 -4l-18 4q-6 0 -4 6q0 6 6 4zM496 428l32 4q6 2 7 -4q2 -6 -5 -6l-32 -6q-6 0 -6 4q-2 6 4 8zM547 416q2 -33 2 -51h20q4 0 4 -5q0 -6 -4 -6h-32v6q0 16 -2 54q0 6 6 6t6 -4zM547 395l20 2q6 0 6 -6t-4 -6 l-20 -2q-6 0 -6 6t4 6zM543 416l30 10q4 -4 2 -10l-28 -10q-6 4 -4 10zM604 426v-39q-2 -25 -2 -34t-4 -9q-6 0 -6 6v36v40q0 4 6 4t6 -4zM592 354q12 14 35 52q2 6 8 2q4 -2 2 -9q-10 -14 -35 -53q-4 -4 -8 0t-2 8zM637 406q10 -14 25 -54q-6 -6 -13 -2q-2 10 -22 51 q-2 4 4 7q4 4 6 -2zM649 354q2 27 15 80q2 6 8 2q4 -2 2 -6q-2 -6 -12 -78q-2 -6 -7 -6q-6 2 -6 8zM715 416q-31 -2 -29 -33v-18q16 0 27 4q6 -4 4 -11q-10 -4 -41 -8v6v47q6 23 39 25q4 -6 0 -12zM682 393l25 6q6 0 8 -6q0 -4 -4 -6l-25 -6q-6 0 -8 4q0 6 4 8zM739 424 q4 -59 4 -51q0 -4 -6 -4t-6 4q0 -8 -4 51q6 4 12 0zM762 432q-4 2 -19 -8l-4 -2q-2 -2 -4 -2q-6 0 -6 6q0 4 6 4h-2l4 2q25 18 35 6q2 -2 2 -6q0 -16 -35 -35q-6 4 -4 11q21 12 27 24zM737 410q53 0 54 -25q0 -20 -52 -16q-2 4 2 10l27 -2q10 2 10 8q0 12 -24 12q2 0 -17 0 q-4 0 -4 6q0 7 4 7zM823 416h-4l-2 2q-4 2 -8 2v-2q12 -10 20 -21q20 -33 -20 -32q-6 0 -6 6t6 6q18 0 10 14q-8 10 -22 23v2q0 23 24 12h2q6 0 6 -6t-6 -6zM848 371v6q0 6 6 6t6 -6v-6q0 -6 -6 -6t-6 6zM848 373q0 6 6 6t6 -6q0 -4 -6 -4t-6 4zM856 373q0 6 4 6q6 0 6 -6 q0 -4 -6 -4q-4 0 -4 4zM854 381q0 4 6 4t6 -4q0 -6 -6 -6t-6 6zM930 422q-37 0 -37 -29q0 -18 29 -18q4 -4 2 -10q-43 -2 -43 28q0 41 49 41q6 0 6 -6t-6 -6zM958 416q-16 -4 -16 -15q0 -8 10 -8q14 0 13 8q-2 10 -9.5 15.5t-7.5 9.5t4 4q18 0 23 -27q4 -23 -23 -22 q-23 0 -22 20q0 18 24 27q6 -6 4 -12zM995 422v-20.5v-20.5q0 -6 -4 -6q-6 0 -6 6v20q-2 12 -2 21q0 6 6 6t6 -6zM995 424q6 -8 19 -23q-2 -6 -8 -6q-6 6 -21 23q-2 4 2 6q4 4 8 0zM1030 430l-14 -35q-8 -2 -10 4l14 35q2 4 6 2q6 -2 4 -6zM1034 430q8 -47 8 -49q0 -6 -4 -6 q-6 0 -6 4t-10 49q0 4 6 6q4 0 6 -4zM1094 461q-16 -43 -37 -131q0 -6 -6 -6q-6 2 -4 6q0 6 36 135q0 4 7 4q6 -2 4 -8zM1159 434v-24q-2 -14 -2 -21.5t-6 -7.5t-6 6q0 8 2 22.5t2 22.5t6 8q4 0 4 -6zM1118 434q16 6 64 27q6 -4 4 -10q-18 -10 -64 -27q-6 -2 -8 2q-2 6 4 8z M1208 469q0 -37 -4 -70q-2 -6 -6 -6q-6 2 -6 8q4 31 4 68q0 6 6 6t6 -6zM1223 426h-2q-2 0 -19 -4q-4 -2 -6 4q-2 4 4 6q14 6 21 6q10 2 12 -6v-14q-4 -27 -8 -27t-4 6v15q2 10 2 14zM1247 430q6 0 4 -4q-10 0 -4 -18q6 -16 19 -17q6 0 6 -6q0 -4 -6 -4q-31 0 -31 37 q0 18 16 18t6 -12q-8 -12 -18 -12q-6 0 -6 6t6 7t8 5zM1311 463q2 -33 8 -101q2 -6 -4 -8q-6 0 -7 5.5t-10 101.5q0 6 7 6q6 0 6 -4zM1305 467q18 8 57 27q4 4 6 -2q4 -4 0 -7q-20 -10 -57 -28q-6 4 -6 10zM1334.5 430q13.5 4 21.5 8q6 0 8 -4q0 -6 -4 -8q-14 -4 -45 -14 q-4 0 -6 4q-2 6 5 8t20.5 6zM1384 465v-74q0 -6 -6 -6q-4 0 -4 6v74q0 6 4 6q6 0 6 -6zM1415 436v0l-4 -12q0 -10 4 -22.5t6 -18.5q-2 -4 -10 -4q-2 8 -10 31q-8 39 14 39q12 0 12 -11q0 -27 -30 -26q-6 0 -6 6q0 4 11 7t13 11zM1438 393l-15 -10q-4 -4 -8 0q-2 4 2 8l13 10 q4 4 8 0t0 -8zM1470 430h-8q-6 2 -10 2q-6 0 -6 -6q0 -16 10 -16q8 0 8 22q0 6 6 6q4 0 5 -6q0 -35 -19 -35q-23 0 -22 29q0 23 30 16h4q2 -2 4.5 -2t2.5 -4q-1 -6 -5 -6zM1479 434q4 -12 10 -35q-4 -6 -10 -4q-4 10 -11 35q-2 6 5 8q4 0 6 -4zM1528 485v-100q0 -4 -6 -4 t-6 4v100q0 6 6 7q6 -1 6 -7zM1495 487q41 20 53 21q29 0 29 -29q0 -41 -59 -47q-4 0 -7 4q0 6 7 6q47 6 47 37q0 16 -17 17q-10 0 -49 -19q-6 4 -4 10zM1579 420l-2 -39q0 -6 -6 -6t-6 6l2 39q0 6 6 6t6 -6zM1575 451q0 6 4 6q6 0 6 -6q0 -4 -6 -5q-4 1 -4 5zM1616 463 q-2 -12 -10 -62q-2 -8 -2 -10h18q4 0 4 -4q0 -6 -4 -6q-33 -2 -29 22q4 20 11 60q2 6 6 6q6 -2 6 -6zM1593 430l41 8q6 0 6 -6q2 -4 -4 -6l-41 -8q-6 0 -8 4q0 6 6 8z" />
<glyph unicode="]" horiz-adv-x="1505" d="M1495 340q0 -328 -246 -487q-195 -127 -489 -127q-289 0 -496 133q-260 164 -260 481q0 311 234 473q205 141 532 141q291 0 485 -133q240 -164 240 -481zM1073 322q0 156 -61 286q-84 186 -252 187q-176 0 -254 -160q-57 -117 -57 -305q0 -172 49 -289q76 -174 252 -174 q47 0 104 20q72 25 109 66q43 55 76.5 171t33.5 198z" />
<glyph unicode="^" horiz-adv-x="1787" d="M1933 1034q-45 -20 -121 -45q-61 -18 -120 -35q29 -55 28 -96q0 -12 -10 -57q-209 102 -467 102q-266 0 -438 -112q-195 -127 -195 -361q315 174 613 174q373 0 532 -278q2 -12 21.5 -68.5t19.5 -91.5q0 -23 -6 -43q-92 -244 -346 -359q-209 -98 -504 -98q-307 0 -537 88 q-145 86 -223 220.5t-78 289.5q0 307 271 551q-45 113 -123 146q-18 8 -135 26q-76 10 -111 68q51 176 135 258q49 -2 170 -160q129 -170 226 -201q59 -2 196 37q145 43 191 45q334 18 632 -16q37 39 107 135q82 115 111 150q37 10 59 10q33 -33 70 -107q39 -82 38 -137 q0 -21 -6 -35zM1223 -127q25 63 24 147q0 190 -106 302q-94 82 -209 81q-133 0 -242 -124q-2 -37 -2 -70q0 -186 91 -295t251 -109q70 0 146 21q0 47 47 47z" />
<glyph unicode="_" d="M2236 684h-180q0 4 19 25q-41 96 -115 186q-33 -100 12 -170q-113 -4 -190 10q14 8 39 25v301q-4 4 -13 18q-8 8 -14 15q-8 10 0 22h176q29 -18 -18 -47q0 -86 8 -115q37 43 94 127q-2 4 -15.5 11.5t-13.5 13.5q131 6 175 -2q-45 -29 -50 -33q-29 -23 -106 -102 q66 -106 92 -150q53 -82 100 -135zM1800 969q-4 -6 -11 -17.5t-11 -15.5q-145 0 -213 -10q-2 -8 -2 -17q0 -33 34.5 -62.5t67.5 -29.5q16 0 27 8q29 18 86 47q4 -57 -62 -92q-53 -31 -117 -30q-25 0 -38 6q-113 41 -113 178q0 96 72 160q43 23 104 22q74 0 121 -33 q55 -38 55 -114zM1530 723q-18 0 -45 -10q-16 -6 -33 -6q-53 0 -102 67q-37 53 -54 111q-41 4 -53 -8v-74q4 -47 41 -68h-203q14 6 41 25v319q-16 8 -41 25q12 2 93 8q61 6 100 6q109 0 160 -43q12 -20 12 -47q0 -70 -82 -115q8 -6 78 -98q47 -65 88 -92zM1069 1116 q0 -18 -31 -47v-299q31 -31 31 -37q-127 0 -211 15q18 0 41 22v137q-35 8 -133 -10v-119q2 -6 41 -43q-150 0 -209 10q37 37 37 148q0 180 0 168q-2 4 -41 43q119 16 211 2q0 -6 -12 -14q-18 -12 -27 -23q0 -80 8 -115q88 0 125 9v108q-31 29 -31 45h201zM694 1257 q-35 -10 -67 -18q-45 -16 -74 -57q4 -45 -12 -95q-18 0 -56 5q-4 57 -49 92q-37 29 -84 28q-20 0 -37 -6q-33 -4 -57 -53q20 -78 160 -119q152 -43 192 -123q8 -117 -80 -176q-72 -51 -194 -51q-145 0 -240 61q-2 82 13 138q49 4 73 -13q-6 -51 43 -102t109 -51q66 0 96 71 v50q-33 33 -215 110q-143 61 -143 133q0 45 45 105q4 20 -29 53q-49 0 -82 23q0 33 21 98q6 0 18 5t16 5q41 -55 132 -141q47 25 139 24q37 0 184 -14q16 8 111 121h35q32 -48 32 -103zM1688 977q0 10 -4.5 33.5t-4.5 33.5q-35 33 -57 33q-18 -14 -35.5 -49t-17.5 -51h119z M1323 956q10 20 10 45q0 47 -33 74h-55q0 -106 10 -139q33 0 68 20zM207 584q0 -53 -6 -76l-13 2q2 29 7 55q6 35 32 35q20 0 21 -20q0 -16 -14.5 -22.5t-26.5 -12.5q-2 0 -4 -2v6q-2 2 -2 6l8 2q14 6 20 6q33 0 33 -26q0 -31 -65 -25q-4 4 0 10q53 -4 53 15q0 14 -21 14 q-4 0 -18 -4l-6 -4h-2v6l-2 -6q-14 4 0 12q12 4 24.5 9t12.5 16v8h-11q-18 0 -21 -28t-5 -50l-13 2q6 20 7 72q0 6 6 6t6 -6zM279 584q10 -12 24 -25q2 2 12 23l11 -4q-10 -25 -29 -76q-2 -6 -8 -4t-4 8q10 23 30 76l11 -7q-14 -29 -23 -28q-6 0 -33 28q1 7 9 9zM438 586 q-6 -29 -14 -90q-6 -2 -12 2q4 31 14 92q6 2 12 -4zM420 549q20 18 61 55q8 -2 8 -10q-6 -4 -61 -53q-6 2 -8 8zM436 555q16 -20 53 -66q4 -4 0 -8q-6 -4 -8 0q-10 12 -26.5 34t-26.5 32q2 8 8 8zM471 555q39 0 39 10q0 6 -10 6q-14 0 -15 -24q0 -20 19 -21q4 0 12 6 q6 0 8 -6q-10 -12 -20 -12q-31 0 -31 33q0 37 27 37q23 0 22 -19q0 -20 -51 -20q-4 0 -4 6q0 4 4 4zM543 571q2 -14 10 -43q6 20 16 56q8 2 13 -4q-6 -18 -10.5 -39t-24.5 -29q-6 16 -17 57q5 4 13 2zM604 569q-2 -18 -2 -49q0 -6 -4 -6q-6 0 -6 6v51q6 4 12 -2zM592 608 q0 6 6 6q4 0 4 -6t-4 -6q-6 0 -6 6zM629 545q0 -16 -6 -31q-6 0 -11 4q4 12 4 27v14q-2 8 -2 14t7 7q8 0 8 -35zM618 561q10 8 19.5 16.5t19.5 8.5q12 0 15 -15q2 -10 0 -30q-2 -23 -2 -25t-6 -2t-7 4q0 -6 5 31q2 25 -5 24q2 0 -32 -20q-7 2 -7 8zM770 528q-8 -23 -27 -32 q-2 10 -10 102q-2 6 4 6q6 2 6 -4q2 -29 9 -84q6 18 20 49q4 -23 19 -51q12 45 16 100q6 2 12 -2q-6 -57 -20 -112q-23 3 -29 28zM840 565q-2 -39 -2 -43t-7 -4q-6 0 -6 6q0 2 2 41q0 6 7 6q6 -2 6 -6zM831 600q0 4 7 4q4 0 4 -4q0 -6 -4 -6q-7 0 -7 6zM866 614 q-2 -31 -16 -104q-2 -4 -8 -4q-6 2 -4 8q10 35 18 102q0 6 6 5q4 -1 4 -7zM885 565q6 -12 14 -39q0 -16 -20 -16q-10 0 -17 14q4 6 10 4q2 -2 7 -6q10 0 6 15q-14 39 -2 41q6 0 20 -5q2 -8 -2 -12q-10 4 -14 4h-2zM944 563q-25 0 -24 -20q0 -14 22 -15q16 0 16 17 q0 20 -20 20q-4 0 -4 6t4 7q31 0 31 -33q0 -29 -27 -29q-33 0 -33 27q0 31 35 30q4 0 4 -4q0 -6 -4 -6zM985 551v-25q0 -6 -4 -6q-6 0 -6 7.5t-2 22.5t-2 23q0 6 6 7q6 0 6 -7.5t2 -21.5zM979 567q27 25 35 25q16 0 16 -62q0 -6 -6 -6q-4 0 -4 6q0 51 -6 52q-4 0 -27 -23 q-8 2 -8 8zM49 434q-23 -45 -6 -45q10 0 14 27q6 2 13 -2q-6 -37 -27 -37q-16 0 -16 20q0 16 12 43q6 0 10 -6zM74 412q0 -23 6 -29q18 0 12 51q4 4 10 2q10 -63 -20 -63q-20 0 -21 39q0 6 7 6q6 0 6 -6zM131 428q0 -49 10 -49q12 8 13 33q0 6 6 6q4 0 4 -6q0 -43 -23 -43 t-22 59q0 6 6 6t6 -6zM164 412q6 -29 16 -29t0 47q4 4 10 2q14 -59 -10 -59q-20 0 -26 37q-2 6 4 8q6 0 6 -6zM229 430q-14 -51 -2 -51q14 0 15 31q0 6 6 6t6 -6q0 -41 -27 -41t-8 63q6 2 10 -2zM256 408q2 -33 14 -33q10 0 9 20q-2 18 -7 27q4 6 11 6q8 -16 8 -39 q-2 -27 -21 -27q-23 0 -26 46q6 4 12 0zM319 383q0 6 7 6q6 0 6 -6q0 -4 -6 -4q-7 0 -7 4zM313 379q0 4 6 4t7 -4q0 -6 -7 -6q-6 0 -6 6zM317 381q0 4 7 4q4 0 4 -4q0 -6 -4 -6q-7 0 -7 6zM317 377q0 6 7 6q4 0 4 -6t-4 -6q-7 0 -7 6zM389 432q2 -14 0 -37q-4 -29 -4 -36 t-4 -7q-6 0 -6 4q0 10 2 39q2 23 2 37q-2 4 4 6q6 0 6 -6zM387 438q16 0 29 4q4 2 6 -2q2 -6 -2 -8q-14 -4 -33 -6q-4 6 0 12zM387 406q8 4 25 8q6 -6 2 -13q-6 -2 -25 -8q-6 7 -2 13zM432 420q0 6 6 6t6 -6t-6 -6t-6 6zM444 420q0 -37 -4 -53q0 -6 -6 -5q-6 0 -4 7 q2 16 2 51q0 6 6 6t6 -6zM438 424q16 8 21 8q16 0 16 -14q0 -29 -33 -33q-4 4 0 10q12 4 21 17q4 8 -4 8q-2 0 -15 -6q-6 2 -6 10zM453 397q18 -23 30 -41q2 -4 -2 -8q-6 -2 -8 2q-10 18 -29 39q3 6 9 8zM498 420q0 -43 0 -35q2 -14 16 -14q4 0 4 -6t-4 -7q-25 0 -27 23 q0 -2 0 39q0 6 7 6q4 0 4 -6zM498 401l18 -2q6 -2 6 -8q-2 -4 -8 -4l-18 4q-6 0 -4 6q0 6 6 4zM496 428l32 4q6 2 7 -4q2 -6 -5 -6l-32 -6q-6 0 -6 4q-2 6 4 8zM547 416q2 -33 2 -51h20q4 0 4 -5q0 -6 -4 -6h-32v6q0 16 -2 54q0 6 6 6t6 -4zM547 395l20 2q6 0 6 -6t-4 -6 l-20 -2q-6 0 -6 6t4 6zM543 416l30 10q4 -4 2 -10l-28 -10q-6 4 -4 10zM604 426v-39q-2 -25 -2 -34t-4 -9q-6 0 -6 6v36v40q0 4 6 4t6 -4zM592 354q12 14 35 52q2 6 8 2q4 -2 2 -9q-10 -14 -35 -53q-4 -4 -8 0t-2 8zM637 406q10 -14 25 -54q-6 -6 -13 -2q-2 10 -22 51 q-2 4 4 7q4 4 6 -2zM649 354q2 27 15 80q2 6 8 2q4 -2 2 -6q-2 -6 -12 -78q-2 -6 -7 -6q-6 2 -6 8zM715 416q-31 -2 -29 -33v-18q16 0 27 4q6 -4 4 -11q-10 -4 -41 -8v6v47q6 23 39 25q4 -6 0 -12zM682 393l25 6q6 0 8 -6q0 -4 -4 -6l-25 -6q-6 0 -8 4q0 6 4 8zM739 424 q4 -59 4 -51q0 -4 -6 -4t-6 4q0 -8 -4 51q6 4 12 0zM762 432q-4 2 -19 -8l-4 -2q-2 -2 -4 -2q-6 0 -6 6q0 4 6 4h-2l4 2q25 18 35 6q2 -2 2 -6q0 -16 -35 -35q-6 4 -4 11q21 12 27 24zM737 410q53 0 54 -25q0 -20 -52 -16q-2 4 2 10l27 -2q10 2 10 8q0 12 -24 12q2 0 -17 0 q-4 0 -4 6q0 7 4 7zM823 416h-4l-2 2q-4 2 -8 2v-2q12 -10 20 -21q20 -33 -20 -32q-6 0 -6 6t6 6q18 0 10 14q-8 10 -22 23v2q0 23 24 12h2q6 0 6 -6t-6 -6zM848 371v6q0 6 6 6t6 -6v-6q0 -6 -6 -6t-6 6zM848 373q0 6 6 6t6 -6q0 -4 -6 -4t-6 4zM856 373q0 6 4 6q6 0 6 -6 q0 -4 -6 -4q-4 0 -4 4zM854 381q0 4 6 4t6 -4q0 -6 -6 -6t-6 6zM930 422q-37 0 -37 -29q0 -18 29 -18q4 -4 2 -10q-43 -2 -43 28q0 41 49 41q6 0 6 -6t-6 -6zM958 416q-16 -4 -16 -15q0 -8 10 -8q14 0 13 8q-2 10 -9.5 15.5t-7.5 9.5t4 4q18 0 23 -27q4 -23 -23 -22 q-23 0 -22 20q0 18 24 27q6 -6 4 -12zM995 422v-20.5v-20.5q0 -6 -4 -6q-6 0 -6 6v20q-2 12 -2 21q0 6 6 6t6 -6zM995 424q6 -8 19 -23q-2 -6 -8 -6q-6 6 -21 23q-2 4 2 6q4 4 8 0zM1030 430l-14 -35q-8 -2 -10 4l14 35q2 4 6 2q6 -2 4 -6zM1034 430q8 -47 8 -49q0 -6 -4 -6 q-6 0 -6 4t-10 49q0 4 6 6q4 0 6 -4zM1094 461q-16 -43 -37 -131q0 -6 -6 -6q-6 2 -4 6q0 6 36 135q0 4 7 4q6 -2 4 -8zM1159 434v-24q-2 -14 -2 -21.5t-6 -7.5t-6 6q0 8 2 22.5t2 22.5t6 8q4 0 4 -6zM1118 434q16 6 64 27q6 -4 4 -10q-18 -10 -64 -27q-6 -2 -8 2q-2 6 4 8z M1208 469q0 -37 -4 -70q-2 -6 -6 -6q-6 2 -6 8q4 31 4 68q0 6 6 6t6 -6zM1223 426h-2q-2 0 -19 -4q-4 -2 -6 4q-2 4 4 6q14 6 21 6q10 2 12 -6v-14q-4 -27 -8 -27t-4 6v15q2 10 2 14zM1247 430q6 0 4 -4q-10 0 -4 -18q6 -16 19 -17q6 0 6 -6q0 -4 -6 -4q-31 0 -31 37 q0 18 16 18t6 -12q-8 -12 -18 -12q-6 0 -6 6t6 7t8 5zM1311 463q2 -33 8 -101q2 -6 -4 -8q-6 0 -7 5.5t-10 101.5q0 6 7 6q6 0 6 -4zM1305 467q18 8 57 27q4 4 6 -2q4 -4 0 -7q-20 -10 -57 -28q-6 4 -6 10zM1334.5 430q13.5 4 21.5 8q6 0 8 -4q0 -6 -4 -8q-14 -4 -45 -14 q-4 0 -6 4q-2 6 5 8t20.5 6zM1384 465v-74q0 -6 -6 -6q-4 0 -4 6v74q0 6 4 6q6 0 6 -6zM1415 436v0l-4 -12q0 -10 4 -22.5t6 -18.5q-2 -4 -10 -4q-2 8 -10 31q-8 39 14 39q12 0 12 -11q0 -27 -30 -26q-6 0 -6 6q0 4 11 7t13 11zM1438 393l-15 -10q-4 -4 -8 0q-2 4 2 8l13 10 q4 4 8 0t0 -8zM1470 430h-8q-6 2 -10 2q-6 0 -6 -6q0 -16 10 -16q8 0 8 22q0 6 6 6q4 0 5 -6q0 -35 -19 -35q-23 0 -22 29q0 23 30 16h4q2 -2 4.5 -2t2.5 -4q-1 -6 -5 -6zM1479 434q4 -12 10 -35q-4 -6 -10 -4q-4 10 -11 35q-2 6 5 8q4 0 6 -4zM1528 485v-100q0 -4 -6 -4 t-6 4v100q0 6 6 7q6 -1 6 -7zM1495 487q41 20 53 21q29 0 29 -29q0 -41 -59 -47q-4 0 -7 4q0 6 7 6q47 6 47 37q0 16 -17 17q-10 0 -49 -19q-6 4 -4 10zM1579 420l-2 -39q0 -6 -6 -6t-6 6l2 39q0 6 6 6t6 -6zM1575 451q0 6 4 6q6 0 6 -6q0 -4 -6 -5q-4 1 -4 5zM1616 463 q-2 -12 -10 -62q-2 -8 -2 -10h18q4 0 4 -4q0 -6 -4 -6q-33 -2 -29 22q4 20 11 60q2 6 6 6q6 -2 6 -6zM1593 430l41 8q6 0 6 -6q2 -4 -4 -6l-41 -8q-6 0 -8 4q0 6 6 8z" />
<glyph unicode="`" d="M2236 684h-180q0 4 19 25q-41 96 -115 186q-33 -100 12 -170q-113 -4 -190 10q14 8 39 25v301q-4 4 -13 18q-8 8 -14 15q-8 10 0 22h176q29 -18 -18 -47q0 -86 8 -115q37 43 94 127q-2 4 -15.5 11.5t-13.5 13.5q131 6 175 -2q-45 -29 -50 -33q-29 -23 -106 -102 q66 -106 92 -150q53 -82 100 -135zM1800 969q-4 -6 -11 -17.5t-11 -15.5q-145 0 -213 -10q-2 -8 -2 -17q0 -33 34.5 -62.5t67.5 -29.5q16 0 27 8q29 18 86 47q4 -57 -62 -92q-53 -31 -117 -30q-25 0 -38 6q-113 41 -113 178q0 96 72 160q43 23 104 22q74 0 121 -33 q55 -38 55 -114zM1530 723q-18 0 -45 -10q-16 -6 -33 -6q-53 0 -102 67q-37 53 -54 111q-41 4 -53 -8v-74q4 -47 41 -68h-203q14 6 41 25v319q-16 8 -41 25q12 2 93 8q61 6 100 6q109 0 160 -43q12 -20 12 -47q0 -70 -82 -115q8 -6 78 -98q47 -65 88 -92zM1069 1116 q0 -18 -31 -47v-299q31 -31 31 -37q-127 0 -211 15q18 0 41 22v137q-35 8 -133 -10v-119q2 -6 41 -43q-150 0 -209 10q37 37 37 148q0 180 0 168q-2 4 -41 43q119 16 211 2q0 -6 -12 -14q-18 -12 -27 -23q0 -80 8 -115q88 0 125 9v108q-31 29 -31 45h201zM694 1257 q-35 -10 -67 -18q-45 -16 -74 -57q4 -45 -12 -95q-18 0 -56 5q-4 57 -49 92q-37 29 -84 28q-20 0 -37 -6q-33 -4 -57 -53q20 -78 160 -119q152 -43 192 -123q8 -117 -80 -176q-72 -51 -194 -51q-145 0 -240 61q-2 82 13 138q49 4 73 -13q-6 -51 43 -102t109 -51q66 0 96 71 v50q-33 33 -215 110q-143 61 -143 133q0 45 45 105q4 20 -29 53q-49 0 -82 23q0 33 21 98q6 0 18 5t16 5q41 -55 132 -141q47 25 139 24q37 0 184 -14q16 8 111 121h35q32 -48 32 -103zM1688 977q0 10 -4.5 33.5t-4.5 33.5q-35 33 -57 33q-18 -14 -35.5 -49t-17.5 -51h119z M1323 956q10 20 10 45q0 47 -33 74h-55q0 -106 10 -139q33 0 68 20zM207 584q0 -53 -6 -76l-13 2q2 29 7 55q6 35 32 35q20 0 21 -20q0 -16 -14.5 -22.5t-26.5 -12.5q-2 0 -4 -2v6q-2 2 -2 6l8 2q14 6 20 6q33 0 33 -26q0 -31 -65 -25q-4 4 0 10q53 -4 53 15q0 14 -21 14 q-4 0 -18 -4l-6 -4h-2v6l-2 -6q-14 4 0 12q12 4 24.5 9t12.5 16v8h-11q-18 0 -21 -28t-5 -50l-13 2q6 20 7 72q0 6 6 6t6 -6zM279 584q10 -12 24 -25q2 2 12 23l11 -4q-10 -25 -29 -76q-2 -6 -8 -4t-4 8q10 23 30 76l11 -7q-14 -29 -23 -28q-6 0 -33 28q1 7 9 9zM438 586 q-6 -29 -14 -90q-6 -2 -12 2q4 31 14 92q6 2 12 -4zM420 549q20 18 61 55q8 -2 8 -10q-6 -4 -61 -53q-6 2 -8 8zM436 555q16 -20 53 -66q4 -4 0 -8q-6 -4 -8 0q-10 12 -26.5 34t-26.5 32q2 8 8 8zM471 555q39 0 39 10q0 6 -10 6q-14 0 -15 -24q0 -20 19 -21q4 0 12 6 q6 0 8 -6q-10 -12 -20 -12q-31 0 -31 33q0 37 27 37q23 0 22 -19q0 -20 -51 -20q-4 0 -4 6q0 4 4 4zM543 571q2 -14 10 -43q6 20 16 56q8 2 13 -4q-6 -18 -10.5 -39t-24.5 -29q-6 16 -17 57q5 4 13 2zM604 569q-2 -18 -2 -49q0 -6 -4 -6q-6 0 -6 6v51q6 4 12 -2zM592 608 q0 6 6 6q4 0 4 -6t-4 -6q-6 0 -6 6zM629 545q0 -16 -6 -31q-6 0 -11 4q4 12 4 27v14q-2 8 -2 14t7 7q8 0 8 -35zM618 561q10 8 19.5 16.5t19.5 8.5q12 0 15 -15q2 -10 0 -30q-2 -23 -2 -25t-6 -2t-7 4q0 -6 5 31q2 25 -5 24q2 0 -32 -20q-7 2 -7 8zM770 528q-8 -23 -27 -32 q-2 10 -10 102q-2 6 4 6q6 2 6 -4q2 -29 9 -84q6 18 20 49q4 -23 19 -51q12 45 16 100q6 2 12 -2q-6 -57 -20 -112q-23 3 -29 28zM840 565q-2 -39 -2 -43t-7 -4q-6 0 -6 6q0 2 2 41q0 6 7 6q6 -2 6 -6zM831 600q0 4 7 4q4 0 4 -4q0 -6 -4 -6q-7 0 -7 6zM866 614 q-2 -31 -16 -104q-2 -4 -8 -4q-6 2 -4 8q10 35 18 102q0 6 6 5q4 -1 4 -7zM885 565q6 -12 14 -39q0 -16 -20 -16q-10 0 -17 14q4 6 10 4q2 -2 7 -6q10 0 6 15q-14 39 -2 41q6 0 20 -5q2 -8 -2 -12q-10 4 -14 4h-2zM944 563q-25 0 -24 -20q0 -14 22 -15q16 0 16 17 q0 20 -20 20q-4 0 -4 6t4 7q31 0 31 -33q0 -29 -27 -29q-33 0 -33 27q0 31 35 30q4 0 4 -4q0 -6 -4 -6zM985 551v-25q0 -6 -4 -6q-6 0 -6 7.5t-2 22.5t-2 23q0 6 6 7q6 0 6 -7.5t2 -21.5zM979 567q27 25 35 25q16 0 16 -62q0 -6 -6 -6q-4 0 -4 6q0 51 -6 52q-4 0 -27 -23 q-8 2 -8 8zM49 434q-23 -45 -6 -45q10 0 14 27q6 2 13 -2q-6 -37 -27 -37q-16 0 -16 20q0 16 12 43q6 0 10 -6zM74 412q0 -23 6 -29q18 0 12 51q4 4 10 2q10 -63 -20 -63q-20 0 -21 39q0 6 7 6q6 0 6 -6zM131 428q0 -49 10 -49q12 8 13 33q0 6 6 6q4 0 4 -6q0 -43 -23 -43 t-22 59q0 6 6 6t6 -6zM164 412q6 -29 16 -29t0 47q4 4 10 2q14 -59 -10 -59q-20 0 -26 37q-2 6 4 8q6 0 6 -6zM229 430q-14 -51 -2 -51q14 0 15 31q0 6 6 6t6 -6q0 -41 -27 -41t-8 63q6 2 10 -2zM256 408q2 -33 14 -33q10 0 9 20q-2 18 -7 27q4 6 11 6q8 -16 8 -39 q-2 -27 -21 -27q-23 0 -26 46q6 4 12 0zM319 383q0 6 7 6q6 0 6 -6q0 -4 -6 -4q-7 0 -7 4zM313 379q0 4 6 4t7 -4q0 -6 -7 -6q-6 0 -6 6zM317 381q0 4 7 4q4 0 4 -4q0 -6 -4 -6q-7 0 -7 6zM317 377q0 6 7 6q4 0 4 -6t-4 -6q-7 0 -7 6zM389 432q2 -14 0 -37q-4 -29 -4 -36 t-4 -7q-6 0 -6 4q0 10 2 39q2 23 2 37q-2 4 4 6q6 0 6 -6zM387 438q16 0 29 4q4 2 6 -2q2 -6 -2 -8q-14 -4 -33 -6q-4 6 0 12zM387 406q8 4 25 8q6 -6 2 -13q-6 -2 -25 -8q-6 7 -2 13zM432 420q0 6 6 6t6 -6t-6 -6t-6 6zM444 420q0 -37 -4 -53q0 -6 -6 -5q-6 0 -4 7 q2 16 2 51q0 6 6 6t6 -6zM438 424q16 8 21 8q16 0 16 -14q0 -29 -33 -33q-4 4 0 10q12 4 21 17q4 8 -4 8q-2 0 -15 -6q-6 2 -6 10zM453 397q18 -23 30 -41q2 -4 -2 -8q-6 -2 -8 2q-10 18 -29 39q3 6 9 8zM498 420q0 -43 0 -35q2 -14 16 -14q4 0 4 -6t-4 -7q-25 0 -27 23 q0 -2 0 39q0 6 7 6q4 0 4 -6zM498 401l18 -2q6 -2 6 -8q-2 -4 -8 -4l-18 4q-6 0 -4 6q0 6 6 4zM496 428l32 4q6 2 7 -4q2 -6 -5 -6l-32 -6q-6 0 -6 4q-2 6 4 8zM547 416q2 -33 2 -51h20q4 0 4 -5q0 -6 -4 -6h-32v6q0 16 -2 54q0 6 6 6t6 -4zM547 395l20 2q6 0 6 -6t-4 -6 l-20 -2q-6 0 -6 6t4 6zM543 416l30 10q4 -4 2 -10l-28 -10q-6 4 -4 10zM604 426v-39q-2 -25 -2 -34t-4 -9q-6 0 -6 6v36v40q0 4 6 4t6 -4zM592 354q12 14 35 52q2 6 8 2q4 -2 2 -9q-10 -14 -35 -53q-4 -4 -8 0t-2 8zM637 406q10 -14 25 -54q-6 -6 -13 -2q-2 10 -22 51 q-2 4 4 7q4 4 6 -2zM649 354q2 27 15 80q2 6 8 2q4 -2 2 -6q-2 -6 -12 -78q-2 -6 -7 -6q-6 2 -6 8zM715 416q-31 -2 -29 -33v-18q16 0 27 4q6 -4 4 -11q-10 -4 -41 -8v6v47q6 23 39 25q4 -6 0 -12zM682 393l25 6q6 0 8 -6q0 -4 -4 -6l-25 -6q-6 0 -8 4q0 6 4 8zM739 424 q4 -59 4 -51q0 -4 -6 -4t-6 4q0 -8 -4 51q6 4 12 0zM762 432q-4 2 -19 -8l-4 -2q-2 -2 -4 -2q-6 0 -6 6q0 4 6 4h-2l4 2q25 18 35 6q2 -2 2 -6q0 -16 -35 -35q-6 4 -4 11q21 12 27 24zM737 410q53 0 54 -25q0 -20 -52 -16q-2 4 2 10l27 -2q10 2 10 8q0 12 -24 12q2 0 -17 0 q-4 0 -4 6q0 7 4 7zM823 416h-4l-2 2q-4 2 -8 2v-2q12 -10 20 -21q20 -33 -20 -32q-6 0 -6 6t6 6q18 0 10 14q-8 10 -22 23v2q0 23 24 12h2q6 0 6 -6t-6 -6zM848 371v6q0 6 6 6t6 -6v-6q0 -6 -6 -6t-6 6zM848 373q0 6 6 6t6 -6q0 -4 -6 -4t-6 4zM856 373q0 6 4 6q6 0 6 -6 q0 -4 -6 -4q-4 0 -4 4zM854 381q0 4 6 4t6 -4q0 -6 -6 -6t-6 6zM930 422q-37 0 -37 -29q0 -18 29 -18q4 -4 2 -10q-43 -2 -43 28q0 41 49 41q6 0 6 -6t-6 -6zM958 416q-16 -4 -16 -15q0 -8 10 -8q14 0 13 8q-2 10 -9.5 15.5t-7.5 9.5t4 4q18 0 23 -27q4 -23 -23 -22 q-23 0 -22 20q0 18 24 27q6 -6 4 -12zM995 422v-20.5v-20.5q0 -6 -4 -6q-6 0 -6 6v20q-2 12 -2 21q0 6 6 6t6 -6zM995 424q6 -8 19 -23q-2 -6 -8 -6q-6 6 -21 23q-2 4 2 6q4 4 8 0zM1030 430l-14 -35q-8 -2 -10 4l14 35q2 4 6 2q6 -2 4 -6zM1034 430q8 -47 8 -49q0 -6 -4 -6 q-6 0 -6 4t-10 49q0 4 6 6q4 0 6 -4zM1094 461q-16 -43 -37 -131q0 -6 -6 -6q-6 2 -4 6q0 6 36 135q0 4 7 4q6 -2 4 -8zM1159 434v-24q-2 -14 -2 -21.5t-6 -7.5t-6 6q0 8 2 22.5t2 22.5t6 8q4 0 4 -6zM1118 434q16 6 64 27q6 -4 4 -10q-18 -10 -64 -27q-6 -2 -8 2q-2 6 4 8z M1208 469q0 -37 -4 -70q-2 -6 -6 -6q-6 2 -6 8q4 31 4 68q0 6 6 6t6 -6zM1223 426h-2q-2 0 -19 -4q-4 -2 -6 4q-2 4 4 6q14 6 21 6q10 2 12 -6v-14q-4 -27 -8 -27t-4 6v15q2 10 2 14zM1247 430q6 0 4 -4q-10 0 -4 -18q6 -16 19 -17q6 0 6 -6q0 -4 -6 -4q-31 0 -31 37 q0 18 16 18t6 -12q-8 -12 -18 -12q-6 0 -6 6t6 7t8 5zM1311 463q2 -33 8 -101q2 -6 -4 -8q-6 0 -7 5.5t-10 101.5q0 6 7 6q6 0 6 -4zM1305 467q18 8 57 27q4 4 6 -2q4 -4 0 -7q-20 -10 -57 -28q-6 4 -6 10zM1334.5 430q13.5 4 21.5 8q6 0 8 -4q0 -6 -4 -8q-14 -4 -45 -14 q-4 0 -6 4q-2 6 5 8t20.5 6zM1384 465v-74q0 -6 -6 -6q-4 0 -4 6v74q0 6 4 6q6 0 6 -6zM1415 436v0l-4 -12q0 -10 4 -22.5t6 -18.5q-2 -4 -10 -4q-2 8 -10 31q-8 39 14 39q12 0 12 -11q0 -27 -30 -26q-6 0 -6 6q0 4 11 7t13 11zM1438 393l-15 -10q-4 -4 -8 0q-2 4 2 8l13 10 q4 4 8 0t0 -8zM1470 430h-8q-6 2 -10 2q-6 0 -6 -6q0 -16 10 -16q8 0 8 22q0 6 6 6q4 0 5 -6q0 -35 -19 -35q-23 0 -22 29q0 23 30 16h4q2 -2 4.5 -2t2.5 -4q-1 -6 -5 -6zM1479 434q4 -12 10 -35q-4 -6 -10 -4q-4 10 -11 35q-2 6 5 8q4 0 6 -4zM1528 485v-100q0 -4 -6 -4 t-6 4v100q0 6 6 7q6 -1 6 -7zM1495 487q41 20 53 21q29 0 29 -29q0 -41 -59 -47q-4 0 -7 4q0 6 7 6q47 6 47 37q0 16 -17 17q-10 0 -49 -19q-6 4 -4 10zM1579 420l-2 -39q0 -6 -6 -6t-6 6l2 39q0 6 6 6t6 -6zM1575 451q0 6 4 6q6 0 6 -6q0 -4 -6 -5q-4 1 -4 5zM1616 463 q-2 -12 -10 -62q-2 -8 -2 -10h18q4 0 4 -4q0 -6 -4 -6q-33 -2 -29 22q4 20 11 60q2 6 6 6q6 -2 6 -6zM1593 430l41 8q6 0 6 -6q2 -4 -4 -6l-41 -8q-6 0 -8 4q0 6 6 8z" />
<glyph unicode="a" horiz-adv-x="1323" d="M1313 -2q-178 -203 -369 -203q-137 0 -221 119q-147 -113 -358 -113q-279 0 -361 238q10 172 131 270q92 76 271 121q145 31 290 59q6 164 -18 242q-10 12 -92 53q-18 0 -54 -10t-57 -10q-55 -37 -55 -125q0 -14 2 -35.5t2 -25.5q-82 -76 -186 -76q-66 0 -119 33 q-41 66 -41 145q61 96 213 147q137 45 309 45q319 0 432 -118q72 -96 72 -314q0 -45 -3 -135t-3 -135q0 -49 2 -88q10 -8 17 -25.5t16 -27.5q25 0 67 22q33 18 66 37q49 -49 47 -90zM694 55q0 -18 6 152q4 90 -8 149h-67q-238 -98 -238 -223q18 -18 21 -41q76 -80 176 -80 q69 0 110 43z" />
<glyph unicode="b" horiz-adv-x="1443" d="M1405 109q29 -45 29 -93q0 -109 -140 -209q-127 -90 -227 -88q-492 2 -768 -8q-115 -6 -229 -12q-14 0 -33 29.5t-19 46.5q27 27 70 26q16 12 35.5 28.5t19.5 47.5v871q-2 61 -70.5 87.5t-68.5 47.5q0 14 16 39q725 6 1092 -23q82 -10 138.5 -92t56.5 -178 q0 -63 -27 -115q-78 -88 -203 -125q-20 -8 -14 -29q94 -39 188 -79q123 -66 154 -172zM913 537q10 166 -45 241q-127 33 -262 33q-8 -150 -2 -358q35 -10 76 -11q72 0 190 31q0 21 43 64zM952 -154q45 57 45 140q0 117 -79 204q-88 96 -226 97q-43 0 -88 -11v-471 q239 -6 348 41z" />
<glyph unicode="c" horiz-adv-x="1366" d="M1356 16q-274 -283 -649 -282q-186 0 -353.5 78.5t-279.5 222.5q-70 123 -70 282q0 174 88 318q100 166 303 254q162 70 361 69q131 0 331 -36q27 -4 160 -4q27 -25 47 -25v-332l-45 -45h-108q-27 41 -42.5 115t-35.5 104q-35 55 -121 94q-104 10 -147 11 q-174 0 -260 -101q-109 -186 -109 -366q0 -295 299 -459q45 -8 90 -8q203 0 467 196q14 6 44 -25.5t30 -60.5z" />
<glyph unicode="d" horiz-adv-x="1554" d="M1544 403q-25 -412 -330 -561q-207 -98 -651 -98h-122h-119q-186 0 -295 -14q-23 29 -23 45q0 18 56.5 39.5t56.5 72.5v910q-39 51 -103 82v75h924q197 12 399 -151q219 -177 207 -400zM664 -168q219 -14 350 156q121 152 121 374q0 205 -107 345q-117 156 -319 155 q-53 0 -109 -10q-25 -25 -27 -479q2 211 2 -494q10 -10 44.5 -23.5t44.5 -23.5z" />
<glyph unicode="e" horiz-adv-x="1136" d="M1126 391q-23 -27 -22 -45l-707 -18q-4 -51 27 -148q106 -152 268 -151q63 0 127 24q23 8 105 68q66 51 104 51q23 0 39 -12q-72 -182 -213 -277q-129 -84 -293 -84q-217 0 -383 140q-174 145 -174 358q0 59 14 119q10 49 37 147q66 217 334 291q258 74 479 -43 q248 -129 258 -420zM754 528q-10 240 -230 228q-55 -33 -92 -117q-33 -72 -33 -129q0 -18 4 -29h312q31 0 37 23q4 10 2 24z" />
<glyph unicode="f" horiz-adv-x="1159" d="M1149 653q-63 -39 -139 -2q0 23 -9.5 63t-11.5 62q-82 57 -182 72q-53 8 -174 6q-10 -10 -27.5 -18.5t-27.5 -18.5q2 -35 0 -110q-4 -94 -5 -121q0 -131 41 -125q84 -2 195 22q59 55 59 121h76v-424h-76q4 61 -59 121q-59 20 -197 21l-34 -37q0 -72 10 -220.5t10 -220.5 q51 -20 123 -65q-2 -16 -27 -51q-319 31 -663 0q-8 20 -27 49q20 18 62.5 41.5t62.5 44.5q0 88 8 430q8 289 4 465q2 70 -28 96q-10 8 -60 20q-33 10 -33 39q0 14 9 39q221 -12 559 -8q555 8 561 8v-299z" />
<glyph unicode="g" horiz-adv-x="1488" d="M1479 285q6 -53 -31 -58.5t-72 -11.5q0 -221 -20 -342q-104 -70 -258 -100q-74 -14 -314 -41q-352 16 -559 168q-221 162 -221 448q0 102 31 219q246 387 770 387q106 0 258 -14q125 -12 248 -25q27 -23 45 -22q0 -233 -21 -358h-133q-12 12 -39 45q-2 139 -94 213 q-82 66 -207 65q-193 0 -307 -121q-111 -133 -111 -331q0 -201 113 -347q123 -158 326 -157q27 0 55 4q-2 47 -2 233q-4 49 -51 64q-45 8 -90 15t-45 38q0 12 4 29q356 31 725 0z" />
<glyph unicode="h" horiz-adv-x="1579" d="M1606 -219q-2 -16 -27 -53q-322 33 -674 0q-25 25 -24 79q6 0 44 11.5t62 11.5q43 63 43 197q0 78 -24 284h-422v-444q23 -20 61 -35q51 -18 64 -27v-75q-315 31 -678 -2q-25 25 -25 79q41 0 103 62q14 47 14 473q0 428 -14 475q-8 12 -105 62v75h680q25 -37 25 -55 q-2 -2 -125 -63q0 -268 18 -381q285 0 424 18q4 199 -22 342q8 33 -58 53q-72 20 -72 47q0 6 5 15q262 27 675 26q16 0 19 -32q2 -33 -14 -50q-47 -12 -78 -69q-20 -43 -21 -68q0 -358 4 -581q4 -154 11 -240q4 -72 4 -68q35 -14 71 -28t56 -39z" />
<glyph unicode="i" horiz-adv-x="493" d="M356 666q-47 -51 -102 -52q-57 0 -102.5 53.5t-45.5 114.5q0 74 72 95q68 12 148 -15q43 -47 43 -135q-1 -41 -13 -61zM483 -190q-205 -25 -477 -5v29q29 8 82 43v549q-25 31 -54.5 45t-29.5 25q0 12 16 39q176 -6 332 57q16 -8 47 -33v-682q27 -27 84 -27v-40z" />
<glyph unicode="j" horiz-adv-x="714" d="M705 930q6 -59 -38 -63.5t-40 -24.5v-750q0 -188 -117 -285q-106 -90 -299 -90q-96 0 -207 23q16 18 88 35q80 16 115 47q59 45 69 145q0 375 -4 598q-4 158 -8 230q-4 63 -4 47q-8 10 -78 45q0 41 19 59q178 -16 504 -16z" />
<glyph unicode="k" horiz-adv-x="1388" d="M1591 -401q-299 -29 -618 4q-4 37 15.5 54t43.5 36q-104 145 -207 291q-145 199 -262 288v-403q70 -10 88.5 -19.5t18.5 -35.5v-25q-2 -20 -2 -35q-485 0 -658 10q0 61 39 76t80 31v971q-16 20 -57 37q-66 23 -68 24q10 25 27 55h614q25 -37 25 -55q-2 -4 -41 -21.5 t-64 -41.5q0 -295 15 -381q233 231 340 395q-8 27 -57.5 34t-49.5 60q86 10 535 10q29 0 28 -57q-106 -27 -248 -149q-2 0 -249 -242q174 -252 348 -506q260 -354 344 -354q12 0 20 6v-57z" />
<glyph unicode="l" horiz-adv-x="1222" d="M1212 35q0 -141 -65 -305q35 0 -549 6q-340 4 -565 -8q-25 25 -25 79q49 -6 107 23q37 29 37 96q0 358 -7 582q-2 154 -8 237q-6 74 -6 70q4 41 -43 41q-4 0 -12 -2h-13q-68 0 -57 76q104 10 334.5 13t345.5 13q25 -25 25 -79q-10 0 -43 -11.5t-43 -11.5 q-37 -74 -37 -117q0 -342 6 -553q4 -147 10 -229q4 -70 4 -68l37 -37q14 2 49 0q41 -2 64 -2q254 0 293 209q102 7 161 -22z" />
<glyph unicode="m" horiz-adv-x="1849" d="M1837 -244q-289 -27 -702 -26q-27 35 -27 53q27 29 90 29q70 43 70 313q0 141 -27 436q-74 -135 -205 -415.5t-205 -415.5h-155q-76 119 -176.5 396t-188.5 415v-693q86 -41 127 -41v-57q-168 -31 -428 -6v41q47 25 60 33q33 20 59 49v930q-66 74 -125 104q12 25 29 55 q195 -23 569 -22q86 -145 146.5 -318.5t119.5 -347.5q123 229 371 686q258 -29 576 -22q4 -16 4 -29q0 -31 -64.5 -44t-64.5 -77v-915q18 -41 90 -43q59 -2 59 -41q0 -13 -2 -27z" />
<glyph unicode="n" horiz-adv-x="1525" d="M1567 918q6 -14 6 -23q0 -29 -68 -41q-76 -14 -88 -37v-1087h-303q-195 199 -391 399q-225 229 -389 369v-652q84 -39 125 -39v-77q27 0 -205 6q-135 4 -223 -8q-8 23 -27 53q53 23 148 65v949q-20 27 -44 54.5t-57 27.5q-10 0 -22 -3v78q123 -4 243 -10q154 -4 246 6 q168 -166 338 -330q215 -209 381 -350v568q-10 16 -72.5 33.5t-62.5 37.5q0 10 8 21q127 -16 219 -17q35 0 119 4q66 5 119 3z" />
<glyph unicode="o" horiz-adv-x="1196" d="M1036 741q150 -135 150 -364q0 -193 -111 -342q-121 -166 -334 -209q-164 -33 -331 4q-193 49 -304 203q-102 141 -102 323q0 188 111 332q121 158 334 199q209 2 305 -15q173 -29 282 -131zM721 709q-70 82 -158 82q-78 -37 -123 -158q-41 -111 -41 -256q0 -150 41 -268 q45 -127 121 -168q49 -25 86 0q141 147 141 411q1 181 -67 357z" />
<glyph unicode="p" horiz-adv-x="1294" d="M1266 463q-74 -137 -207 -199q-98 -45 -256 -57q-119 -8 -240 -19v-321q35 -27 84 -39q35 -8 35 -27q0 -14 -14 -49q-371 0 -613 -24q-14 0 -32.5 30.5t-18.5 46.5q43 10 125 41v992q-27 39 -123 39q0 55 25 79h833q45 0 133 -28q96 -33 168 -78q119 -104 119 -250 q0 -55 -18 -137zM612 850q-20 -20 -45 -25v-489q66 -25 125 -25q111 0 176 88q59 78 60 193q0 111 -59.5 193.5t-161.5 82.5q-46 0 -95 -18z" />
<glyph unicode="q" horiz-adv-x="1372" d="M1362 367q0 -219 -84 -342q-106 -156 -393 -252q29 -18 80 -84q55 -72 90 -103q63 -53 143 -67q6 -4 6 -8q0 -20 -95 -51t-132 -31q-94 0 -186 116q-125 160 -211 213q-268 23 -422 185.5t-154 423.5q0 317 215 462q172 119 465 119q678 1 678 -581zM977 346 q0 147 -55 277q-78 188 -238 188q-150 0 -223 -176q-53 -123 -53 -279t34 -266q66 -207 242 -207q141 0 225 174q68 139 68 289z" />
<glyph unicode="r" horiz-adv-x="1220" d="M1372 -270q-225 -6 -358 24q-84 43 -142 142q-18 35 -84 188q-51 119 -102 176q-78 6 -129 -16v-340q14 -47 64 -60q43 -12 43 -37q0 -12 -7 -34q-354 0 -602 -25q-31 0 -30 76q33 10 104 41q0 6 4 94q6 102 10 262q4 236 4 598q-20 20 -143 82q10 25 27 55h805 q53 -10 108 -18q68 -16 162 -74q86 -84 86 -198q0 -109 -78 -199q-82 -96 -229 -135q106 -33 211.5 -143.5t120.5 -202.5q10 -66 61 -117q29 -29 88 -68q47 -31 47 -43q0 -14 -41 -28zM780 467q47 80 47 168t-49 153q-59 41 -219 41v-403q162 0 221 41z" />
<glyph unicode="s" horiz-adv-x="1236" d="M1227 37q-178 -309 -627 -309q-268 0 -553 106q-8 178 23 336q59 -2 155 -10q-2 -16 -2 -33q0 -123 115 -215q109 -88 244 -88q152 0 229 119v114q-121 109 -313 176q-145 51 -291 101q-143 66 -197 188q0 14 -2 51q-4 31 -4 52q0 84 49 147q215 193 563 193 q274 0 537 -113q-12 -96 -43 -293q-27 -12 -49 -12q-57 0 -111 108q-63 131 -133 174q-12 2 -84 25q-59 20 -102 20q-109 0 -205 -112q-6 -20 -6 -39q0 -12 31 -92q111 -72 299 -131q217 -68 274 -99q137 -68 201 -194q18 -37 2 -170z" />
<glyph unicode="t" horiz-adv-x="1300" d="M1290 952q0 -197 -20 -303h-115q-29 51 -25 129q-74 80 -137 80q-35 0 -110 -22v-992q51 -23 125 -65q-4 -16 -29 -51q-227 23 -666 22q-8 25 -8 41q0 37 72 37q20 27 38.5 56.5t18.5 60.5v852q-8 18 -37 57q-29 18 -63 18q-70 0 -127 -59q-59 -66 -64 -162 q-96 -6 -139 23q0 41 2 139v139h1284z" />
<glyph unicode="u" horiz-adv-x="1341" d="M1331 -174q-188 -23 -514 -23q-29 29 -24 101q-4 8 -29 20q-68 -55 -213 -117q-27 0 -79 -3t-79 -3q-119 0 -196 66q-100 106 -101 362q0 31 2 95v94q0 162 -28 260q-6 8 -31 15t-33 18q-14 0 -16 30q0 31 14 45q129 16 262 34t232 42q0 10 6 -35q4 -53 10 -178 q4 -178 6 -489q2 -145 199 -146l53 72q31 297 2 590q-27 14 -53 29q-37 29 -43 77q104 14 211 29q121 16 262 72l45 -45q0 -385 4 -621q4 -166 10 -254q4 -76 4 -69q41 -20 64 -21q10 0 18 4l7 4q1 0 28 -55z" />
<glyph unicode="v" horiz-adv-x="1597" d="M1587 915q4 -47 -35 -53t-79 -10q-51 -14 -70 -78q-309 -600 -572 -1044h-178q-178 367 -510 1087q-12 25 -61 49q-39 16 -78 35q10 23 27 55q410 0 723 -14q16 -12 16 -22q0 -18 -83 -37t-83 -35q0 -4 4 -10q70 -170 142 -342q96 -219 180 -289q221 369 323 653 q-20 16 -163 17q0 -12 -7 38q-2 27 11 41q307 0 493 -41z" />
<glyph unicode="w" horiz-adv-x="2189" d="M2179 879q-49 -29 -125 -23q-326 -731 -471 -1106h-237q-68 203 -220 612q-100 -215 -301 -632h-237q-72 156 -213 510q-162 410 -228 557q8 61 -67.5 73.5t-75.5 44.5q0 16 10 37q340 -31 707 4q25 -27 24 -77q-41 -8 -120 -39q104 -389 235 -703q141 276 187 502 q-20 57 -44 115.5t-65 91.5q-43 8 -86 14q-53 14 -41 70q283 27 705 26q27 0 26 -79q-8 2 -16 2q-25 0 -103 -39q49 -270 156 -662q156 311 274 641q0 43 -93 54.5t-93 39.5q0 8 2 17q272 0 461 26q14 0 31.5 -29.5t17.5 -47.5z" />
<glyph unicode="x" horiz-adv-x="1546" d="M1534 932q6 -74 -27 -82q-80 -10 -157 -23q-92 -98 -183 -196q-106 -117 -182 -217q119 -186 240 -373q133 -199 268 -221q25 -25 25 -45q-4 -12 -27 -47q-299 37 -705 0l-47 51q25 25 144 65q-25 61 -92 158q-61 88 -123 176q-158 -188 -236 -317q20 -20 81.5 -41 t82.5 -41q-4 -14 -27 -51q-207 23 -565 22q0 53 27 78q33 -14 67 -14q82 0 174 96q53 55 160 203q96 135 143 178q-115 193 -231 387q-141 215 -256 215q-33 0 -63 -16q0 53 24 77h748q23 -37 22 -55q-20 -10 -70.5 -29.5t-70.5 -29.5q109 -180 215 -314q68 88 215 279 q0 8 7 18.5t7 16.5t-8 14h-123q-23 23 -22 98q184 -20 565 -20z" />
<glyph unicode="y" horiz-adv-x="1566" d="M1556 909q8 -55 -38 -55h-88q-84 -92 -209 -260q-106 -143 -211 -287q-4 -68 -4 -424q12 -25 55 -51.5t88 -52.5l-49 -51q-229 23 -666 22q-12 29 -12 47q0 31 47 45q66 20 86 43q4 193 -8 381q-145 250 -291 498q-76 121 -164 121q-31 0 -82 -8q-6 20 -6 75 q362 -29 750 2q25 -25 24 -75q-41 -10 -121 -39q59 -121 256 -396q111 129 277 377l-35 33h-102q-16 16 -17 41q0 25 17 39q321 0 503 -25z" />
<glyph unicode="z" horiz-adv-x="1325" d="M1315 817q-227 -266 -727 -891l35 -32q31 2 67 2q33 0 97.5 -4.5t97.5 -4.5q131 0 225 66q10 18 22.5 72.5t22.5 74.5q100 6 137 -24v-346q-786 14 -979 14q-164 0 -196 -16q-2 2 -45 22.5t-68 44.5q-4 84 29 135q236 281 712 850q2 2 5 8q4 14 -11 43q-29 -6 -67 -6 q-37 0 -123 8.5t-129 8.5q-209 0 -250 -170q-23 -27 -23 -45q-98 -6 -141 22v305h1262q47 -47 47 -137z" />
<glyph unicode="{" d="M2236 684h-180q0 4 19 25q-41 96 -115 186q-33 -100 12 -170q-113 -4 -190 10q14 8 39 25v301q-4 4 -13 18q-8 8 -14 15q-8 10 0 22h176q29 -18 -18 -47q0 -86 8 -115q37 43 94 127q-2 4 -15.5 11.5t-13.5 13.5q131 6 175 -2q-45 -29 -50 -33q-29 -23 -106 -102 q66 -106 92 -150q53 -82 100 -135zM1800 969q-4 -6 -11 -17.5t-11 -15.5q-145 0 -213 -10q-2 -8 -2 -17q0 -33 34.5 -62.5t67.5 -29.5q16 0 27 8q29 18 86 47q4 -57 -62 -92q-53 -31 -117 -30q-25 0 -38 6q-113 41 -113 178q0 96 72 160q43 23 104 22q74 0 121 -33 q55 -38 55 -114zM1530 723q-18 0 -45 -10q-16 -6 -33 -6q-53 0 -102 67q-37 53 -54 111q-41 4 -53 -8v-74q4 -47 41 -68h-203q14 6 41 25v319q-16 8 -41 25q12 2 93 8q61 6 100 6q109 0 160 -43q12 -20 12 -47q0 -70 -82 -115q8 -6 78 -98q47 -65 88 -92zM1069 1116 q0 -18 -31 -47v-299q31 -31 31 -37q-127 0 -211 15q18 0 41 22v137q-35 8 -133 -10v-119q2 -6 41 -43q-150 0 -209 10q37 37 37 148q0 180 0 168q-2 4 -41 43q119 16 211 2q0 -6 -12 -14q-18 -12 -27 -23q0 -80 8 -115q88 0 125 9v108q-31 29 -31 45h201zM694 1257 q-35 -10 -67 -18q-45 -16 -74 -57q4 -45 -12 -95q-18 0 -56 5q-4 57 -49 92q-37 29 -84 28q-20 0 -37 -6q-33 -4 -57 -53q20 -78 160 -119q152 -43 192 -123q8 -117 -80 -176q-72 -51 -194 -51q-145 0 -240 61q-2 82 13 138q49 4 73 -13q-6 -51 43 -102t109 -51q66 0 96 71 v50q-33 33 -215 110q-143 61 -143 133q0 45 45 105q4 20 -29 53q-49 0 -82 23q0 33 21 98q6 0 18 5t16 5q41 -55 132 -141q47 25 139 24q37 0 184 -14q16 8 111 121h35q32 -48 32 -103zM1688 977q0 10 -4.5 33.5t-4.5 33.5q-35 33 -57 33q-18 -14 -35.5 -49t-17.5 -51h119z M1323 956q10 20 10 45q0 47 -33 74h-55q0 -106 10 -139q33 0 68 20zM207 584q0 -53 -6 -76l-13 2q2 29 7 55q6 35 32 35q20 0 21 -20q0 -16 -14.5 -22.5t-26.5 -12.5q-2 0 -4 -2v6q-2 2 -2 6l8 2q14 6 20 6q33 0 33 -26q0 -31 -65 -25q-4 4 0 10q53 -4 53 15q0 14 -21 14 q-4 0 -18 -4l-6 -4h-2v6l-2 -6q-14 4 0 12q12 4 24.5 9t12.5 16v8h-11q-18 0 -21 -28t-5 -50l-13 2q6 20 7 72q0 6 6 6t6 -6zM279 584q10 -12 24 -25q2 2 12 23l11 -4q-10 -25 -29 -76q-2 -6 -8 -4t-4 8q10 23 30 76l11 -7q-14 -29 -23 -28q-6 0 -33 28q1 7 9 9zM438 586 q-6 -29 -14 -90q-6 -2 -12 2q4 31 14 92q6 2 12 -4zM420 549q20 18 61 55q8 -2 8 -10q-6 -4 -61 -53q-6 2 -8 8zM436 555q16 -20 53 -66q4 -4 0 -8q-6 -4 -8 0q-10 12 -26.5 34t-26.5 32q2 8 8 8zM471 555q39 0 39 10q0 6 -10 6q-14 0 -15 -24q0 -20 19 -21q4 0 12 6 q6 0 8 -6q-10 -12 -20 -12q-31 0 -31 33q0 37 27 37q23 0 22 -19q0 -20 -51 -20q-4 0 -4 6q0 4 4 4zM543 571q2 -14 10 -43q6 20 16 56q8 2 13 -4q-6 -18 -10.5 -39t-24.5 -29q-6 16 -17 57q5 4 13 2zM604 569q-2 -18 -2 -49q0 -6 -4 -6q-6 0 -6 6v51q6 4 12 -2zM592 608 q0 6 6 6q4 0 4 -6t-4 -6q-6 0 -6 6zM629 545q0 -16 -6 -31q-6 0 -11 4q4 12 4 27v14q-2 8 -2 14t7 7q8 0 8 -35zM618 561q10 8 19.5 16.5t19.5 8.5q12 0 15 -15q2 -10 0 -30q-2 -23 -2 -25t-6 -2t-7 4q0 -6 5 31q2 25 -5 24q2 0 -32 -20q-7 2 -7 8zM770 528q-8 -23 -27 -32 q-2 10 -10 102q-2 6 4 6q6 2 6 -4q2 -29 9 -84q6 18 20 49q4 -23 19 -51q12 45 16 100q6 2 12 -2q-6 -57 -20 -112q-23 3 -29 28zM840 565q-2 -39 -2 -43t-7 -4q-6 0 -6 6q0 2 2 41q0 6 7 6q6 -2 6 -6zM831 600q0 4 7 4q4 0 4 -4q0 -6 -4 -6q-7 0 -7 6zM866 614 q-2 -31 -16 -104q-2 -4 -8 -4q-6 2 -4 8q10 35 18 102q0 6 6 5q4 -1 4 -7zM885 565q6 -12 14 -39q0 -16 -20 -16q-10 0 -17 14q4 6 10 4q2 -2 7 -6q10 0 6 15q-14 39 -2 41q6 0 20 -5q2 -8 -2 -12q-10 4 -14 4h-2zM944 563q-25 0 -24 -20q0 -14 22 -15q16 0 16 17 q0 20 -20 20q-4 0 -4 6t4 7q31 0 31 -33q0 -29 -27 -29q-33 0 -33 27q0 31 35 30q4 0 4 -4q0 -6 -4 -6zM985 551v-25q0 -6 -4 -6q-6 0 -6 7.5t-2 22.5t-2 23q0 6 6 7q6 0 6 -7.5t2 -21.5zM979 567q27 25 35 25q16 0 16 -62q0 -6 -6 -6q-4 0 -4 6q0 51 -6 52q-4 0 -27 -23 q-8 2 -8 8zM49 434q-23 -45 -6 -45q10 0 14 27q6 2 13 -2q-6 -37 -27 -37q-16 0 -16 20q0 16 12 43q6 0 10 -6zM74 412q0 -23 6 -29q18 0 12 51q4 4 10 2q10 -63 -20 -63q-20 0 -21 39q0 6 7 6q6 0 6 -6zM131 428q0 -49 10 -49q12 8 13 33q0 6 6 6q4 0 4 -6q0 -43 -23 -43 t-22 59q0 6 6 6t6 -6zM164 412q6 -29 16 -29t0 47q4 4 10 2q14 -59 -10 -59q-20 0 -26 37q-2 6 4 8q6 0 6 -6zM229 430q-14 -51 -2 -51q14 0 15 31q0 6 6 6t6 -6q0 -41 -27 -41t-8 63q6 2 10 -2zM256 408q2 -33 14 -33q10 0 9 20q-2 18 -7 27q4 6 11 6q8 -16 8 -39 q-2 -27 -21 -27q-23 0 -26 46q6 4 12 0zM319 383q0 6 7 6q6 0 6 -6q0 -4 -6 -4q-7 0 -7 4zM313 379q0 4 6 4t7 -4q0 -6 -7 -6q-6 0 -6 6zM317 381q0 4 7 4q4 0 4 -4q0 -6 -4 -6q-7 0 -7 6zM317 377q0 6 7 6q4 0 4 -6t-4 -6q-7 0 -7 6zM389 432q2 -14 0 -37q-4 -29 -4 -36 t-4 -7q-6 0 -6 4q0 10 2 39q2 23 2 37q-2 4 4 6q6 0 6 -6zM387 438q16 0 29 4q4 2 6 -2q2 -6 -2 -8q-14 -4 -33 -6q-4 6 0 12zM387 406q8 4 25 8q6 -6 2 -13q-6 -2 -25 -8q-6 7 -2 13zM432 420q0 6 6 6t6 -6t-6 -6t-6 6zM444 420q0 -37 -4 -53q0 -6 -6 -5q-6 0 -4 7 q2 16 2 51q0 6 6 6t6 -6zM438 424q16 8 21 8q16 0 16 -14q0 -29 -33 -33q-4 4 0 10q12 4 21 17q4 8 -4 8q-2 0 -15 -6q-6 2 -6 10zM453 397q18 -23 30 -41q2 -4 -2 -8q-6 -2 -8 2q-10 18 -29 39q3 6 9 8zM498 420q0 -43 0 -35q2 -14 16 -14q4 0 4 -6t-4 -7q-25 0 -27 23 q0 -2 0 39q0 6 7 6q4 0 4 -6zM498 401l18 -2q6 -2 6 -8q-2 -4 -8 -4l-18 4q-6 0 -4 6q0 6 6 4zM496 428l32 4q6 2 7 -4q2 -6 -5 -6l-32 -6q-6 0 -6 4q-2 6 4 8zM547 416q2 -33 2 -51h20q4 0 4 -5q0 -6 -4 -6h-32v6q0 16 -2 54q0 6 6 6t6 -4zM547 395l20 2q6 0 6 -6t-4 -6 l-20 -2q-6 0 -6 6t4 6zM543 416l30 10q4 -4 2 -10l-28 -10q-6 4 -4 10zM604 426v-39q-2 -25 -2 -34t-4 -9q-6 0 -6 6v36v40q0 4 6 4t6 -4zM592 354q12 14 35 52q2 6 8 2q4 -2 2 -9q-10 -14 -35 -53q-4 -4 -8 0t-2 8zM637 406q10 -14 25 -54q-6 -6 -13 -2q-2 10 -22 51 q-2 4 4 7q4 4 6 -2zM649 354q2 27 15 80q2 6 8 2q4 -2 2 -6q-2 -6 -12 -78q-2 -6 -7 -6q-6 2 -6 8zM715 416q-31 -2 -29 -33v-18q16 0 27 4q6 -4 4 -11q-10 -4 -41 -8v6v47q6 23 39 25q4 -6 0 -12zM682 393l25 6q6 0 8 -6q0 -4 -4 -6l-25 -6q-6 0 -8 4q0 6 4 8zM739 424 q4 -59 4 -51q0 -4 -6 -4t-6 4q0 -8 -4 51q6 4 12 0zM762 432q-4 2 -19 -8l-4 -2q-2 -2 -4 -2q-6 0 -6 6q0 4 6 4h-2l4 2q25 18 35 6q2 -2 2 -6q0 -16 -35 -35q-6 4 -4 11q21 12 27 24zM737 410q53 0 54 -25q0 -20 -52 -16q-2 4 2 10l27 -2q10 2 10 8q0 12 -24 12q2 0 -17 0 q-4 0 -4 6q0 7 4 7zM823 416h-4l-2 2q-4 2 -8 2v-2q12 -10 20 -21q20 -33 -20 -32q-6 0 -6 6t6 6q18 0 10 14q-8 10 -22 23v2q0 23 24 12h2q6 0 6 -6t-6 -6zM848 371v6q0 6 6 6t6 -6v-6q0 -6 -6 -6t-6 6zM848 373q0 6 6 6t6 -6q0 -4 -6 -4t-6 4zM856 373q0 6 4 6q6 0 6 -6 q0 -4 -6 -4q-4 0 -4 4zM854 381q0 4 6 4t6 -4q0 -6 -6 -6t-6 6zM930 422q-37 0 -37 -29q0 -18 29 -18q4 -4 2 -10q-43 -2 -43 28q0 41 49 41q6 0 6 -6t-6 -6zM958 416q-16 -4 -16 -15q0 -8 10 -8q14 0 13 8q-2 10 -9.5 15.5t-7.5 9.5t4 4q18 0 23 -27q4 -23 -23 -22 q-23 0 -22 20q0 18 24 27q6 -6 4 -12zM995 422v-20.5v-20.5q0 -6 -4 -6q-6 0 -6 6v20q-2 12 -2 21q0 6 6 6t6 -6zM995 424q6 -8 19 -23q-2 -6 -8 -6q-6 6 -21 23q-2 4 2 6q4 4 8 0zM1030 430l-14 -35q-8 -2 -10 4l14 35q2 4 6 2q6 -2 4 -6zM1034 430q8 -47 8 -49q0 -6 -4 -6 q-6 0 -6 4t-10 49q0 4 6 6q4 0 6 -4zM1094 461q-16 -43 -37 -131q0 -6 -6 -6q-6 2 -4 6q0 6 36 135q0 4 7 4q6 -2 4 -8zM1159 434v-24q-2 -14 -2 -21.5t-6 -7.5t-6 6q0 8 2 22.5t2 22.5t6 8q4 0 4 -6zM1118 434q16 6 64 27q6 -4 4 -10q-18 -10 -64 -27q-6 -2 -8 2q-2 6 4 8z M1208 469q0 -37 -4 -70q-2 -6 -6 -6q-6 2 -6 8q4 31 4 68q0 6 6 6t6 -6zM1223 426h-2q-2 0 -19 -4q-4 -2 -6 4q-2 4 4 6q14 6 21 6q10 2 12 -6v-14q-4 -27 -8 -27t-4 6v15q2 10 2 14zM1247 430q6 0 4 -4q-10 0 -4 -18q6 -16 19 -17q6 0 6 -6q0 -4 -6 -4q-31 0 -31 37 q0 18 16 18t6 -12q-8 -12 -18 -12q-6 0 -6 6t6 7t8 5zM1311 463q2 -33 8 -101q2 -6 -4 -8q-6 0 -7 5.5t-10 101.5q0 6 7 6q6 0 6 -4zM1305 467q18 8 57 27q4 4 6 -2q4 -4 0 -7q-20 -10 -57 -28q-6 4 -6 10zM1334.5 430q13.5 4 21.5 8q6 0 8 -4q0 -6 -4 -8q-14 -4 -45 -14 q-4 0 -6 4q-2 6 5 8t20.5 6zM1384 465v-74q0 -6 -6 -6q-4 0 -4 6v74q0 6 4 6q6 0 6 -6zM1415 436v0l-4 -12q0 -10 4 -22.5t6 -18.5q-2 -4 -10 -4q-2 8 -10 31q-8 39 14 39q12 0 12 -11q0 -27 -30 -26q-6 0 -6 6q0 4 11 7t13 11zM1438 393l-15 -10q-4 -4 -8 0q-2 4 2 8l13 10 q4 4 8 0t0 -8zM1470 430h-8q-6 2 -10 2q-6 0 -6 -6q0 -16 10 -16q8 0 8 22q0 6 6 6q4 0 5 -6q0 -35 -19 -35q-23 0 -22 29q0 23 30 16h4q2 -2 4.5 -2t2.5 -4q-1 -6 -5 -6zM1479 434q4 -12 10 -35q-4 -6 -10 -4q-4 10 -11 35q-2 6 5 8q4 0 6 -4zM1528 485v-100q0 -4 -6 -4 t-6 4v100q0 6 6 7q6 -1 6 -7zM1495 487q41 20 53 21q29 0 29 -29q0 -41 -59 -47q-4 0 -7 4q0 6 7 6q47 6 47 37q0 16 -17 17q-10 0 -49 -19q-6 4 -4 10zM1579 420l-2 -39q0 -6 -6 -6t-6 6l2 39q0 6 6 6t6 -6zM1575 451q0 6 4 6q6 0 6 -6q0 -4 -6 -5q-4 1 -4 5zM1616 463 q-2 -12 -10 -62q-2 -8 -2 -10h18q4 0 4 -4q0 -6 -4 -6q-33 -2 -29 22q4 20 11 60q2 6 6 6q6 -2 6 -6zM1593 430l41 8q6 0 6 -6q2 -4 -4 -6l-41 -8q-6 0 -8 4q0 6 6 8z" />
<glyph unicode="|" d="M2236 684h-180q0 4 19 25q-41 96 -115 186q-33 -100 12 -170q-113 -4 -190 10q14 8 39 25v301q-4 4 -13 18q-8 8 -14 15q-8 10 0 22h176q29 -18 -18 -47q0 -86 8 -115q37 43 94 127q-2 4 -15.5 11.5t-13.5 13.5q131 6 175 -2q-45 -29 -50 -33q-29 -23 -106 -102 q66 -106 92 -150q53 -82 100 -135zM1800 969q-4 -6 -11 -17.5t-11 -15.5q-145 0 -213 -10q-2 -8 -2 -17q0 -33 34.5 -62.5t67.5 -29.5q16 0 27 8q29 18 86 47q4 -57 -62 -92q-53 -31 -117 -30q-25 0 -38 6q-113 41 -113 178q0 96 72 160q43 23 104 22q74 0 121 -33 q55 -38 55 -114zM1530 723q-18 0 -45 -10q-16 -6 -33 -6q-53 0 -102 67q-37 53 -54 111q-41 4 -53 -8v-74q4 -47 41 -68h-203q14 6 41 25v319q-16 8 -41 25q12 2 93 8q61 6 100 6q109 0 160 -43q12 -20 12 -47q0 -70 -82 -115q8 -6 78 -98q47 -65 88 -92zM1069 1116 q0 -18 -31 -47v-299q31 -31 31 -37q-127 0 -211 15q18 0 41 22v137q-35 8 -133 -10v-119q2 -6 41 -43q-150 0 -209 10q37 37 37 148q0 180 0 168q-2 4 -41 43q119 16 211 2q0 -6 -12 -14q-18 -12 -27 -23q0 -80 8 -115q88 0 125 9v108q-31 29 -31 45h201zM694 1257 q-35 -10 -67 -18q-45 -16 -74 -57q4 -45 -12 -95q-18 0 -56 5q-4 57 -49 92q-37 29 -84 28q-20 0 -37 -6q-33 -4 -57 -53q20 -78 160 -119q152 -43 192 -123q8 -117 -80 -176q-72 -51 -194 -51q-145 0 -240 61q-2 82 13 138q49 4 73 -13q-6 -51 43 -102t109 -51q66 0 96 71 v50q-33 33 -215 110q-143 61 -143 133q0 45 45 105q4 20 -29 53q-49 0 -82 23q0 33 21 98q6 0 18 5t16 5q41 -55 132 -141q47 25 139 24q37 0 184 -14q16 8 111 121h35q32 -48 32 -103zM1688 977q0 10 -4.5 33.5t-4.5 33.5q-35 33 -57 33q-18 -14 -35.5 -49t-17.5 -51h119z M1323 956q10 20 10 45q0 47 -33 74h-55q0 -106 10 -139q33 0 68 20zM207 584q0 -53 -6 -76l-13 2q2 29 7 55q6 35 32 35q20 0 21 -20q0 -16 -14.5 -22.5t-26.5 -12.5q-2 0 -4 -2v6q-2 2 -2 6l8 2q14 6 20 6q33 0 33 -26q0 -31 -65 -25q-4 4 0 10q53 -4 53 15q0 14 -21 14 q-4 0 -18 -4l-6 -4h-2v6l-2 -6q-14 4 0 12q12 4 24.5 9t12.5 16v8h-11q-18 0 -21 -28t-5 -50l-13 2q6 20 7 72q0 6 6 6t6 -6zM279 584q10 -12 24 -25q2 2 12 23l11 -4q-10 -25 -29 -76q-2 -6 -8 -4t-4 8q10 23 30 76l11 -7q-14 -29 -23 -28q-6 0 -33 28q1 7 9 9zM438 586 q-6 -29 -14 -90q-6 -2 -12 2q4 31 14 92q6 2 12 -4zM420 549q20 18 61 55q8 -2 8 -10q-6 -4 -61 -53q-6 2 -8 8zM436 555q16 -20 53 -66q4 -4 0 -8q-6 -4 -8 0q-10 12 -26.5 34t-26.5 32q2 8 8 8zM471 555q39 0 39 10q0 6 -10 6q-14 0 -15 -24q0 -20 19 -21q4 0 12 6 q6 0 8 -6q-10 -12 -20 -12q-31 0 -31 33q0 37 27 37q23 0 22 -19q0 -20 -51 -20q-4 0 -4 6q0 4 4 4zM543 571q2 -14 10 -43q6 20 16 56q8 2 13 -4q-6 -18 -10.5 -39t-24.5 -29q-6 16 -17 57q5 4 13 2zM604 569q-2 -18 -2 -49q0 -6 -4 -6q-6 0 -6 6v51q6 4 12 -2zM592 608 q0 6 6 6q4 0 4 -6t-4 -6q-6 0 -6 6zM629 545q0 -16 -6 -31q-6 0 -11 4q4 12 4 27v14q-2 8 -2 14t7 7q8 0 8 -35zM618 561q10 8 19.5 16.5t19.5 8.5q12 0 15 -15q2 -10 0 -30q-2 -23 -2 -25t-6 -2t-7 4q0 -6 5 31q2 25 -5 24q2 0 -32 -20q-7 2 -7 8zM770 528q-8 -23 -27 -32 q-2 10 -10 102q-2 6 4 6q6 2 6 -4q2 -29 9 -84q6 18 20 49q4 -23 19 -51q12 45 16 100q6 2 12 -2q-6 -57 -20 -112q-23 3 -29 28zM840 565q-2 -39 -2 -43t-7 -4q-6 0 -6 6q0 2 2 41q0 6 7 6q6 -2 6 -6zM831 600q0 4 7 4q4 0 4 -4q0 -6 -4 -6q-7 0 -7 6zM866 614 q-2 -31 -16 -104q-2 -4 -8 -4q-6 2 -4 8q10 35 18 102q0 6 6 5q4 -1 4 -7zM885 565q6 -12 14 -39q0 -16 -20 -16q-10 0 -17 14q4 6 10 4q2 -2 7 -6q10 0 6 15q-14 39 -2 41q6 0 20 -5q2 -8 -2 -12q-10 4 -14 4h-2zM944 563q-25 0 -24 -20q0 -14 22 -15q16 0 16 17 q0 20 -20 20q-4 0 -4 6t4 7q31 0 31 -33q0 -29 -27 -29q-33 0 -33 27q0 31 35 30q4 0 4 -4q0 -6 -4 -6zM985 551v-25q0 -6 -4 -6q-6 0 -6 7.5t-2 22.5t-2 23q0 6 6 7q6 0 6 -7.5t2 -21.5zM979 567q27 25 35 25q16 0 16 -62q0 -6 -6 -6q-4 0 -4 6q0 51 -6 52q-4 0 -27 -23 q-8 2 -8 8zM49 434q-23 -45 -6 -45q10 0 14 27q6 2 13 -2q-6 -37 -27 -37q-16 0 -16 20q0 16 12 43q6 0 10 -6zM74 412q0 -23 6 -29q18 0 12 51q4 4 10 2q10 -63 -20 -63q-20 0 -21 39q0 6 7 6q6 0 6 -6zM131 428q0 -49 10 -49q12 8 13 33q0 6 6 6q4 0 4 -6q0 -43 -23 -43 t-22 59q0 6 6 6t6 -6zM164 412q6 -29 16 -29t0 47q4 4 10 2q14 -59 -10 -59q-20 0 -26 37q-2 6 4 8q6 0 6 -6zM229 430q-14 -51 -2 -51q14 0 15 31q0 6 6 6t6 -6q0 -41 -27 -41t-8 63q6 2 10 -2zM256 408q2 -33 14 -33q10 0 9 20q-2 18 -7 27q4 6 11 6q8 -16 8 -39 q-2 -27 -21 -27q-23 0 -26 46q6 4 12 0zM319 383q0 6 7 6q6 0 6 -6q0 -4 -6 -4q-7 0 -7 4zM313 379q0 4 6 4t7 -4q0 -6 -7 -6q-6 0 -6 6zM317 381q0 4 7 4q4 0 4 -4q0 -6 -4 -6q-7 0 -7 6zM317 377q0 6 7 6q4 0 4 -6t-4 -6q-7 0 -7 6zM389 432q2 -14 0 -37q-4 -29 -4 -36 t-4 -7q-6 0 -6 4q0 10 2 39q2 23 2 37q-2 4 4 6q6 0 6 -6zM387 438q16 0 29 4q4 2 6 -2q2 -6 -2 -8q-14 -4 -33 -6q-4 6 0 12zM387 406q8 4 25 8q6 -6 2 -13q-6 -2 -25 -8q-6 7 -2 13zM432 420q0 6 6 6t6 -6t-6 -6t-6 6zM444 420q0 -37 -4 -53q0 -6 -6 -5q-6 0 -4 7 q2 16 2 51q0 6 6 6t6 -6zM438 424q16 8 21 8q16 0 16 -14q0 -29 -33 -33q-4 4 0 10q12 4 21 17q4 8 -4 8q-2 0 -15 -6q-6 2 -6 10zM453 397q18 -23 30 -41q2 -4 -2 -8q-6 -2 -8 2q-10 18 -29 39q3 6 9 8zM498 420q0 -43 0 -35q2 -14 16 -14q4 0 4 -6t-4 -7q-25 0 -27 23 q0 -2 0 39q0 6 7 6q4 0 4 -6zM498 401l18 -2q6 -2 6 -8q-2 -4 -8 -4l-18 4q-6 0 -4 6q0 6 6 4zM496 428l32 4q6 2 7 -4q2 -6 -5 -6l-32 -6q-6 0 -6 4q-2 6 4 8zM547 416q2 -33 2 -51h20q4 0 4 -5q0 -6 -4 -6h-32v6q0 16 -2 54q0 6 6 6t6 -4zM547 395l20 2q6 0 6 -6t-4 -6 l-20 -2q-6 0 -6 6t4 6zM543 416l30 10q4 -4 2 -10l-28 -10q-6 4 -4 10zM604 426v-39q-2 -25 -2 -34t-4 -9q-6 0 -6 6v36v40q0 4 6 4t6 -4zM592 354q12 14 35 52q2 6 8 2q4 -2 2 -9q-10 -14 -35 -53q-4 -4 -8 0t-2 8zM637 406q10 -14 25 -54q-6 -6 -13 -2q-2 10 -22 51 q-2 4 4 7q4 4 6 -2zM649 354q2 27 15 80q2 6 8 2q4 -2 2 -6q-2 -6 -12 -78q-2 -6 -7 -6q-6 2 -6 8zM715 416q-31 -2 -29 -33v-18q16 0 27 4q6 -4 4 -11q-10 -4 -41 -8v6v47q6 23 39 25q4 -6 0 -12zM682 393l25 6q6 0 8 -6q0 -4 -4 -6l-25 -6q-6 0 -8 4q0 6 4 8zM739 424 q4 -59 4 -51q0 -4 -6 -4t-6 4q0 -8 -4 51q6 4 12 0zM762 432q-4 2 -19 -8l-4 -2q-2 -2 -4 -2q-6 0 -6 6q0 4 6 4h-2l4 2q25 18 35 6q2 -2 2 -6q0 -16 -35 -35q-6 4 -4 11q21 12 27 24zM737 410q53 0 54 -25q0 -20 -52 -16q-2 4 2 10l27 -2q10 2 10 8q0 12 -24 12q2 0 -17 0 q-4 0 -4 6q0 7 4 7zM823 416h-4l-2 2q-4 2 -8 2v-2q12 -10 20 -21q20 -33 -20 -32q-6 0 -6 6t6 6q18 0 10 14q-8 10 -22 23v2q0 23 24 12h2q6 0 6 -6t-6 -6zM848 371v6q0 6 6 6t6 -6v-6q0 -6 -6 -6t-6 6zM848 373q0 6 6 6t6 -6q0 -4 -6 -4t-6 4zM856 373q0 6 4 6q6 0 6 -6 q0 -4 -6 -4q-4 0 -4 4zM854 381q0 4 6 4t6 -4q0 -6 -6 -6t-6 6zM930 422q-37 0 -37 -29q0 -18 29 -18q4 -4 2 -10q-43 -2 -43 28q0 41 49 41q6 0 6 -6t-6 -6zM958 416q-16 -4 -16 -15q0 -8 10 -8q14 0 13 8q-2 10 -9.5 15.5t-7.5 9.5t4 4q18 0 23 -27q4 -23 -23 -22 q-23 0 -22 20q0 18 24 27q6 -6 4 -12zM995 422v-20.5v-20.5q0 -6 -4 -6q-6 0 -6 6v20q-2 12 -2 21q0 6 6 6t6 -6zM995 424q6 -8 19 -23q-2 -6 -8 -6q-6 6 -21 23q-2 4 2 6q4 4 8 0zM1030 430l-14 -35q-8 -2 -10 4l14 35q2 4 6 2q6 -2 4 -6zM1034 430q8 -47 8 -49q0 -6 -4 -6 q-6 0 -6 4t-10 49q0 4 6 6q4 0 6 -4zM1094 461q-16 -43 -37 -131q0 -6 -6 -6q-6 2 -4 6q0 6 36 135q0 4 7 4q6 -2 4 -8zM1159 434v-24q-2 -14 -2 -21.5t-6 -7.5t-6 6q0 8 2 22.5t2 22.5t6 8q4 0 4 -6zM1118 434q16 6 64 27q6 -4 4 -10q-18 -10 -64 -27q-6 -2 -8 2q-2 6 4 8z M1208 469q0 -37 -4 -70q-2 -6 -6 -6q-6 2 -6 8q4 31 4 68q0 6 6 6t6 -6zM1223 426h-2q-2 0 -19 -4q-4 -2 -6 4q-2 4 4 6q14 6 21 6q10 2 12 -6v-14q-4 -27 -8 -27t-4 6v15q2 10 2 14zM1247 430q6 0 4 -4q-10 0 -4 -18q6 -16 19 -17q6 0 6 -6q0 -4 -6 -4q-31 0 -31 37 q0 18 16 18t6 -12q-8 -12 -18 -12q-6 0 -6 6t6 7t8 5zM1311 463q2 -33 8 -101q2 -6 -4 -8q-6 0 -7 5.5t-10 101.5q0 6 7 6q6 0 6 -4zM1305 467q18 8 57 27q4 4 6 -2q4 -4 0 -7q-20 -10 -57 -28q-6 4 -6 10zM1334.5 430q13.5 4 21.5 8q6 0 8 -4q0 -6 -4 -8q-14 -4 -45 -14 q-4 0 -6 4q-2 6 5 8t20.5 6zM1384 465v-74q0 -6 -6 -6q-4 0 -4 6v74q0 6 4 6q6 0 6 -6zM1415 436v0l-4 -12q0 -10 4 -22.5t6 -18.5q-2 -4 -10 -4q-2 8 -10 31q-8 39 14 39q12 0 12 -11q0 -27 -30 -26q-6 0 -6 6q0 4 11 7t13 11zM1438 393l-15 -10q-4 -4 -8 0q-2 4 2 8l13 10 q4 4 8 0t0 -8zM1470 430h-8q-6 2 -10 2q-6 0 -6 -6q0 -16 10 -16q8 0 8 22q0 6 6 6q4 0 5 -6q0 -35 -19 -35q-23 0 -22 29q0 23 30 16h4q2 -2 4.5 -2t2.5 -4q-1 -6 -5 -6zM1479 434q4 -12 10 -35q-4 -6 -10 -4q-4 10 -11 35q-2 6 5 8q4 0 6 -4zM1528 485v-100q0 -4 -6 -4 t-6 4v100q0 6 6 7q6 -1 6 -7zM1495 487q41 20 53 21q29 0 29 -29q0 -41 -59 -47q-4 0 -7 4q0 6 7 6q47 6 47 37q0 16 -17 17q-10 0 -49 -19q-6 4 -4 10zM1579 420l-2 -39q0 -6 -6 -6t-6 6l2 39q0 6 6 6t6 -6zM1575 451q0 6 4 6q6 0 6 -6q0 -4 -6 -5q-4 1 -4 5zM1616 463 q-2 -12 -10 -62q-2 -8 -2 -10h18q4 0 4 -4q0 -6 -4 -6q-33 -2 -29 22q4 20 11 60q2 6 6 6q6 -2 6 -6zM1593 430l41 8q6 0 6 -6q2 -4 -4 -6l-41 -8q-6 0 -8 4q0 6 6 8z" />
<glyph unicode="}" d="M2236 684h-180q0 4 19 25q-41 96 -115 186q-33 -100 12 -170q-113 -4 -190 10q14 8 39 25v301q-4 4 -13 18q-8 8 -14 15q-8 10 0 22h176q29 -18 -18 -47q0 -86 8 -115q37 43 94 127q-2 4 -15.5 11.5t-13.5 13.5q131 6 175 -2q-45 -29 -50 -33q-29 -23 -106 -102 q66 -106 92 -150q53 -82 100 -135zM1800 969q-4 -6 -11 -17.5t-11 -15.5q-145 0 -213 -10q-2 -8 -2 -17q0 -33 34.5 -62.5t67.5 -29.5q16 0 27 8q29 18 86 47q4 -57 -62 -92q-53 -31 -117 -30q-25 0 -38 6q-113 41 -113 178q0 96 72 160q43 23 104 22q74 0 121 -33 q55 -38 55 -114zM1530 723q-18 0 -45 -10q-16 -6 -33 -6q-53 0 -102 67q-37 53 -54 111q-41 4 -53 -8v-74q4 -47 41 -68h-203q14 6 41 25v319q-16 8 -41 25q12 2 93 8q61 6 100 6q109 0 160 -43q12 -20 12 -47q0 -70 -82 -115q8 -6 78 -98q47 -65 88 -92zM1069 1116 q0 -18 -31 -47v-299q31 -31 31 -37q-127 0 -211 15q18 0 41 22v137q-35 8 -133 -10v-119q2 -6 41 -43q-150 0 -209 10q37 37 37 148q0 180 0 168q-2 4 -41 43q119 16 211 2q0 -6 -12 -14q-18 -12 -27 -23q0 -80 8 -115q88 0 125 9v108q-31 29 -31 45h201zM694 1257 q-35 -10 -67 -18q-45 -16 -74 -57q4 -45 -12 -95q-18 0 -56 5q-4 57 -49 92q-37 29 -84 28q-20 0 -37 -6q-33 -4 -57 -53q20 -78 160 -119q152 -43 192 -123q8 -117 -80 -176q-72 -51 -194 -51q-145 0 -240 61q-2 82 13 138q49 4 73 -13q-6 -51 43 -102t109 -51q66 0 96 71 v50q-33 33 -215 110q-143 61 -143 133q0 45 45 105q4 20 -29 53q-49 0 -82 23q0 33 21 98q6 0 18 5t16 5q41 -55 132 -141q47 25 139 24q37 0 184 -14q16 8 111 121h35q32 -48 32 -103zM1688 977q0 10 -4.5 33.5t-4.5 33.5q-35 33 -57 33q-18 -14 -35.5 -49t-17.5 -51h119z M1323 956q10 20 10 45q0 47 -33 74h-55q0 -106 10 -139q33 0 68 20zM207 584q0 -53 -6 -76l-13 2q2 29 7 55q6 35 32 35q20 0 21 -20q0 -16 -14.5 -22.5t-26.5 -12.5q-2 0 -4 -2v6q-2 2 -2 6l8 2q14 6 20 6q33 0 33 -26q0 -31 -65 -25q-4 4 0 10q53 -4 53 15q0 14 -21 14 q-4 0 -18 -4l-6 -4h-2v6l-2 -6q-14 4 0 12q12 4 24.5 9t12.5 16v8h-11q-18 0 -21 -28t-5 -50l-13 2q6 20 7 72q0 6 6 6t6 -6zM279 584q10 -12 24 -25q2 2 12 23l11 -4q-10 -25 -29 -76q-2 -6 -8 -4t-4 8q10 23 30 76l11 -7q-14 -29 -23 -28q-6 0 -33 28q1 7 9 9zM438 586 q-6 -29 -14 -90q-6 -2 -12 2q4 31 14 92q6 2 12 -4zM420 549q20 18 61 55q8 -2 8 -10q-6 -4 -61 -53q-6 2 -8 8zM436 555q16 -20 53 -66q4 -4 0 -8q-6 -4 -8 0q-10 12 -26.5 34t-26.5 32q2 8 8 8zM471 555q39 0 39 10q0 6 -10 6q-14 0 -15 -24q0 -20 19 -21q4 0 12 6 q6 0 8 -6q-10 -12 -20 -12q-31 0 -31 33q0 37 27 37q23 0 22 -19q0 -20 -51 -20q-4 0 -4 6q0 4 4 4zM543 571q2 -14 10 -43q6 20 16 56q8 2 13 -4q-6 -18 -10.5 -39t-24.5 -29q-6 16 -17 57q5 4 13 2zM604 569q-2 -18 -2 -49q0 -6 -4 -6q-6 0 -6 6v51q6 4 12 -2zM592 608 q0 6 6 6q4 0 4 -6t-4 -6q-6 0 -6 6zM629 545q0 -16 -6 -31q-6 0 -11 4q4 12 4 27v14q-2 8 -2 14t7 7q8 0 8 -35zM618 561q10 8 19.5 16.5t19.5 8.5q12 0 15 -15q2 -10 0 -30q-2 -23 -2 -25t-6 -2t-7 4q0 -6 5 31q2 25 -5 24q2 0 -32 -20q-7 2 -7 8zM770 528q-8 -23 -27 -32 q-2 10 -10 102q-2 6 4 6q6 2 6 -4q2 -29 9 -84q6 18 20 49q4 -23 19 -51q12 45 16 100q6 2 12 -2q-6 -57 -20 -112q-23 3 -29 28zM840 565q-2 -39 -2 -43t-7 -4q-6 0 -6 6q0 2 2 41q0 6 7 6q6 -2 6 -6zM831 600q0 4 7 4q4 0 4 -4q0 -6 -4 -6q-7 0 -7 6zM866 614 q-2 -31 -16 -104q-2 -4 -8 -4q-6 2 -4 8q10 35 18 102q0 6 6 5q4 -1 4 -7zM885 565q6 -12 14 -39q0 -16 -20 -16q-10 0 -17 14q4 6 10 4q2 -2 7 -6q10 0 6 15q-14 39 -2 41q6 0 20 -5q2 -8 -2 -12q-10 4 -14 4h-2zM944 563q-25 0 -24 -20q0 -14 22 -15q16 0 16 17 q0 20 -20 20q-4 0 -4 6t4 7q31 0 31 -33q0 -29 -27 -29q-33 0 -33 27q0 31 35 30q4 0 4 -4q0 -6 -4 -6zM985 551v-25q0 -6 -4 -6q-6 0 -6 7.5t-2 22.5t-2 23q0 6 6 7q6 0 6 -7.5t2 -21.5zM979 567q27 25 35 25q16 0 16 -62q0 -6 -6 -6q-4 0 -4 6q0 51 -6 52q-4 0 -27 -23 q-8 2 -8 8zM49 434q-23 -45 -6 -45q10 0 14 27q6 2 13 -2q-6 -37 -27 -37q-16 0 -16 20q0 16 12 43q6 0 10 -6zM74 412q0 -23 6 -29q18 0 12 51q4 4 10 2q10 -63 -20 -63q-20 0 -21 39q0 6 7 6q6 0 6 -6zM131 428q0 -49 10 -49q12 8 13 33q0 6 6 6q4 0 4 -6q0 -43 -23 -43 t-22 59q0 6 6 6t6 -6zM164 412q6 -29 16 -29t0 47q4 4 10 2q14 -59 -10 -59q-20 0 -26 37q-2 6 4 8q6 0 6 -6zM229 430q-14 -51 -2 -51q14 0 15 31q0 6 6 6t6 -6q0 -41 -27 -41t-8 63q6 2 10 -2zM256 408q2 -33 14 -33q10 0 9 20q-2 18 -7 27q4 6 11 6q8 -16 8 -39 q-2 -27 -21 -27q-23 0 -26 46q6 4 12 0zM319 383q0 6 7 6q6 0 6 -6q0 -4 -6 -4q-7 0 -7 4zM313 379q0 4 6 4t7 -4q0 -6 -7 -6q-6 0 -6 6zM317 381q0 4 7 4q4 0 4 -4q0 -6 -4 -6q-7 0 -7 6zM317 377q0 6 7 6q4 0 4 -6t-4 -6q-7 0 -7 6zM389 432q2 -14 0 -37q-4 -29 -4 -36 t-4 -7q-6 0 -6 4q0 10 2 39q2 23 2 37q-2 4 4 6q6 0 6 -6zM387 438q16 0 29 4q4 2 6 -2q2 -6 -2 -8q-14 -4 -33 -6q-4 6 0 12zM387 406q8 4 25 8q6 -6 2 -13q-6 -2 -25 -8q-6 7 -2 13zM432 420q0 6 6 6t6 -6t-6 -6t-6 6zM444 420q0 -37 -4 -53q0 -6 -6 -5q-6 0 -4 7 q2 16 2 51q0 6 6 6t6 -6zM438 424q16 8 21 8q16 0 16 -14q0 -29 -33 -33q-4 4 0 10q12 4 21 17q4 8 -4 8q-2 0 -15 -6q-6 2 -6 10zM453 397q18 -23 30 -41q2 -4 -2 -8q-6 -2 -8 2q-10 18 -29 39q3 6 9 8zM498 420q0 -43 0 -35q2 -14 16 -14q4 0 4 -6t-4 -7q-25 0 -27 23 q0 -2 0 39q0 6 7 6q4 0 4 -6zM498 401l18 -2q6 -2 6 -8q-2 -4 -8 -4l-18 4q-6 0 -4 6q0 6 6 4zM496 428l32 4q6 2 7 -4q2 -6 -5 -6l-32 -6q-6 0 -6 4q-2 6 4 8zM547 416q2 -33 2 -51h20q4 0 4 -5q0 -6 -4 -6h-32v6q0 16 -2 54q0 6 6 6t6 -4zM547 395l20 2q6 0 6 -6t-4 -6 l-20 -2q-6 0 -6 6t4 6zM543 416l30 10q4 -4 2 -10l-28 -10q-6 4 -4 10zM604 426v-39q-2 -25 -2 -34t-4 -9q-6 0 -6 6v36v40q0 4 6 4t6 -4zM592 354q12 14 35 52q2 6 8 2q4 -2 2 -9q-10 -14 -35 -53q-4 -4 -8 0t-2 8zM637 406q10 -14 25 -54q-6 -6 -13 -2q-2 10 -22 51 q-2 4 4 7q4 4 6 -2zM649 354q2 27 15 80q2 6 8 2q4 -2 2 -6q-2 -6 -12 -78q-2 -6 -7 -6q-6 2 -6 8zM715 416q-31 -2 -29 -33v-18q16 0 27 4q6 -4 4 -11q-10 -4 -41 -8v6v47q6 23 39 25q4 -6 0 -12zM682 393l25 6q6 0 8 -6q0 -4 -4 -6l-25 -6q-6 0 -8 4q0 6 4 8zM739 424 q4 -59 4 -51q0 -4 -6 -4t-6 4q0 -8 -4 51q6 4 12 0zM762 432q-4 2 -19 -8l-4 -2q-2 -2 -4 -2q-6 0 -6 6q0 4 6 4h-2l4 2q25 18 35 6q2 -2 2 -6q0 -16 -35 -35q-6 4 -4 11q21 12 27 24zM737 410q53 0 54 -25q0 -20 -52 -16q-2 4 2 10l27 -2q10 2 10 8q0 12 -24 12q2 0 -17 0 q-4 0 -4 6q0 7 4 7zM823 416h-4l-2 2q-4 2 -8 2v-2q12 -10 20 -21q20 -33 -20 -32q-6 0 -6 6t6 6q18 0 10 14q-8 10 -22 23v2q0 23 24 12h2q6 0 6 -6t-6 -6zM848 371v6q0 6 6 6t6 -6v-6q0 -6 -6 -6t-6 6zM848 373q0 6 6 6t6 -6q0 -4 -6 -4t-6 4zM856 373q0 6 4 6q6 0 6 -6 q0 -4 -6 -4q-4 0 -4 4zM854 381q0 4 6 4t6 -4q0 -6 -6 -6t-6 6zM930 422q-37 0 -37 -29q0 -18 29 -18q4 -4 2 -10q-43 -2 -43 28q0 41 49 41q6 0 6 -6t-6 -6zM958 416q-16 -4 -16 -15q0 -8 10 -8q14 0 13 8q-2 10 -9.5 15.5t-7.5 9.5t4 4q18 0 23 -27q4 -23 -23 -22 q-23 0 -22 20q0 18 24 27q6 -6 4 -12zM995 422v-20.5v-20.5q0 -6 -4 -6q-6 0 -6 6v20q-2 12 -2 21q0 6 6 6t6 -6zM995 424q6 -8 19 -23q-2 -6 -8 -6q-6 6 -21 23q-2 4 2 6q4 4 8 0zM1030 430l-14 -35q-8 -2 -10 4l14 35q2 4 6 2q6 -2 4 -6zM1034 430q8 -47 8 -49q0 -6 -4 -6 q-6 0 -6 4t-10 49q0 4 6 6q4 0 6 -4zM1094 461q-16 -43 -37 -131q0 -6 -6 -6q-6 2 -4 6q0 6 36 135q0 4 7 4q6 -2 4 -8zM1159 434v-24q-2 -14 -2 -21.5t-6 -7.5t-6 6q0 8 2 22.5t2 22.5t6 8q4 0 4 -6zM1118 434q16 6 64 27q6 -4 4 -10q-18 -10 -64 -27q-6 -2 -8 2q-2 6 4 8z M1208 469q0 -37 -4 -70q-2 -6 -6 -6q-6 2 -6 8q4 31 4 68q0 6 6 6t6 -6zM1223 426h-2q-2 0 -19 -4q-4 -2 -6 4q-2 4 4 6q14 6 21 6q10 2 12 -6v-14q-4 -27 -8 -27t-4 6v15q2 10 2 14zM1247 430q6 0 4 -4q-10 0 -4 -18q6 -16 19 -17q6 0 6 -6q0 -4 -6 -4q-31 0 -31 37 q0 18 16 18t6 -12q-8 -12 -18 -12q-6 0 -6 6t6 7t8 5zM1311 463q2 -33 8 -101q2 -6 -4 -8q-6 0 -7 5.5t-10 101.5q0 6 7 6q6 0 6 -4zM1305 467q18 8 57 27q4 4 6 -2q4 -4 0 -7q-20 -10 -57 -28q-6 4 -6 10zM1334.5 430q13.5 4 21.5 8q6 0 8 -4q0 -6 -4 -8q-14 -4 -45 -14 q-4 0 -6 4q-2 6 5 8t20.5 6zM1384 465v-74q0 -6 -6 -6q-4 0 -4 6v74q0 6 4 6q6 0 6 -6zM1415 436v0l-4 -12q0 -10 4 -22.5t6 -18.5q-2 -4 -10 -4q-2 8 -10 31q-8 39 14 39q12 0 12 -11q0 -27 -30 -26q-6 0 -6 6q0 4 11 7t13 11zM1438 393l-15 -10q-4 -4 -8 0q-2 4 2 8l13 10 q4 4 8 0t0 -8zM1470 430h-8q-6 2 -10 2q-6 0 -6 -6q0 -16 10 -16q8 0 8 22q0 6 6 6q4 0 5 -6q0 -35 -19 -35q-23 0 -22 29q0 23 30 16h4q2 -2 4.5 -2t2.5 -4q-1 -6 -5 -6zM1479 434q4 -12 10 -35q-4 -6 -10 -4q-4 10 -11 35q-2 6 5 8q4 0 6 -4zM1528 485v-100q0 -4 -6 -4 t-6 4v100q0 6 6 7q6 -1 6 -7zM1495 487q41 20 53 21q29 0 29 -29q0 -41 -59 -47q-4 0 -7 4q0 6 7 6q47 6 47 37q0 16 -17 17q-10 0 -49 -19q-6 4 -4 10zM1579 420l-2 -39q0 -6 -6 -6t-6 6l2 39q0 6 6 6t6 -6zM1575 451q0 6 4 6q6 0 6 -6q0 -4 -6 -5q-4 1 -4 5zM1616 463 q-2 -12 -10 -62q-2 -8 -2 -10h18q4 0 4 -4q0 -6 -4 -6q-33 -2 -29 22q4 20 11 60q2 6 6 6q6 -2 6 -6zM1593 430l41 8q6 0 6 -6q2 -4 -4 -6l-41 -8q-6 0 -8 4q0 6 6 8z" />
<glyph unicode="~" d="M2236 684h-180q0 4 19 25q-41 96 -115 186q-33 -100 12 -170q-113 -4 -190 10q14 8 39 25v301q-4 4 -13 18q-8 8 -14 15q-8 10 0 22h176q29 -18 -18 -47q0 -86 8 -115q37 43 94 127q-2 4 -15.5 11.5t-13.5 13.5q131 6 175 -2q-45 -29 -50 -33q-29 -23 -106 -102 q66 -106 92 -150q53 -82 100 -135zM1800 969q-4 -6 -11 -17.5t-11 -15.5q-145 0 -213 -10q-2 -8 -2 -17q0 -33 34.5 -62.5t67.5 -29.5q16 0 27 8q29 18 86 47q4 -57 -62 -92q-53 -31 -117 -30q-25 0 -38 6q-113 41 -113 178q0 96 72 160q43 23 104 22q74 0 121 -33 q55 -38 55 -114zM1530 723q-18 0 -45 -10q-16 -6 -33 -6q-53 0 -102 67q-37 53 -54 111q-41 4 -53 -8v-74q4 -47 41 -68h-203q14 6 41 25v319q-16 8 -41 25q12 2 93 8q61 6 100 6q109 0 160 -43q12 -20 12 -47q0 -70 -82 -115q8 -6 78 -98q47 -65 88 -92zM1069 1116 q0 -18 -31 -47v-299q31 -31 31 -37q-127 0 -211 15q18 0 41 22v137q-35 8 -133 -10v-119q2 -6 41 -43q-150 0 -209 10q37 37 37 148q0 180 0 168q-2 4 -41 43q119 16 211 2q0 -6 -12 -14q-18 -12 -27 -23q0 -80 8 -115q88 0 125 9v108q-31 29 -31 45h201zM694 1257 q-35 -10 -67 -18q-45 -16 -74 -57q4 -45 -12 -95q-18 0 -56 5q-4 57 -49 92q-37 29 -84 28q-20 0 -37 -6q-33 -4 -57 -53q20 -78 160 -119q152 -43 192 -123q8 -117 -80 -176q-72 -51 -194 -51q-145 0 -240 61q-2 82 13 138q49 4 73 -13q-6 -51 43 -102t109 -51q66 0 96 71 v50q-33 33 -215 110q-143 61 -143 133q0 45 45 105q4 20 -29 53q-49 0 -82 23q0 33 21 98q6 0 18 5t16 5q41 -55 132 -141q47 25 139 24q37 0 184 -14q16 8 111 121h35q32 -48 32 -103zM1688 977q0 10 -4.5 33.5t-4.5 33.5q-35 33 -57 33q-18 -14 -35.5 -49t-17.5 -51h119z M1323 956q10 20 10 45q0 47 -33 74h-55q0 -106 10 -139q33 0 68 20zM207 584q0 -53 -6 -76l-13 2q2 29 7 55q6 35 32 35q20 0 21 -20q0 -16 -14.5 -22.5t-26.5 -12.5q-2 0 -4 -2v6q-2 2 -2 6l8 2q14 6 20 6q33 0 33 -26q0 -31 -65 -25q-4 4 0 10q53 -4 53 15q0 14 -21 14 q-4 0 -18 -4l-6 -4h-2v6l-2 -6q-14 4 0 12q12 4 24.5 9t12.5 16v8h-11q-18 0 -21 -28t-5 -50l-13 2q6 20 7 72q0 6 6 6t6 -6zM279 584q10 -12 24 -25q2 2 12 23l11 -4q-10 -25 -29 -76q-2 -6 -8 -4t-4 8q10 23 30 76l11 -7q-14 -29 -23 -28q-6 0 -33 28q1 7 9 9zM438 586 q-6 -29 -14 -90q-6 -2 -12 2q4 31 14 92q6 2 12 -4zM420 549q20 18 61 55q8 -2 8 -10q-6 -4 -61 -53q-6 2 -8 8zM436 555q16 -20 53 -66q4 -4 0 -8q-6 -4 -8 0q-10 12 -26.5 34t-26.5 32q2 8 8 8zM471 555q39 0 39 10q0 6 -10 6q-14 0 -15 -24q0 -20 19 -21q4 0 12 6 q6 0 8 -6q-10 -12 -20 -12q-31 0 -31 33q0 37 27 37q23 0 22 -19q0 -20 -51 -20q-4 0 -4 6q0 4 4 4zM543 571q2 -14 10 -43q6 20 16 56q8 2 13 -4q-6 -18 -10.5 -39t-24.5 -29q-6 16 -17 57q5 4 13 2zM604 569q-2 -18 -2 -49q0 -6 -4 -6q-6 0 -6 6v51q6 4 12 -2zM592 608 q0 6 6 6q4 0 4 -6t-4 -6q-6 0 -6 6zM629 545q0 -16 -6 -31q-6 0 -11 4q4 12 4 27v14q-2 8 -2 14t7 7q8 0 8 -35zM618 561q10 8 19.5 16.5t19.5 8.5q12 0 15 -15q2 -10 0 -30q-2 -23 -2 -25t-6 -2t-7 4q0 -6 5 31q2 25 -5 24q2 0 -32 -20q-7 2 -7 8zM770 528q-8 -23 -27 -32 q-2 10 -10 102q-2 6 4 6q6 2 6 -4q2 -29 9 -84q6 18 20 49q4 -23 19 -51q12 45 16 100q6 2 12 -2q-6 -57 -20 -112q-23 3 -29 28zM840 565q-2 -39 -2 -43t-7 -4q-6 0 -6 6q0 2 2 41q0 6 7 6q6 -2 6 -6zM831 600q0 4 7 4q4 0 4 -4q0 -6 -4 -6q-7 0 -7 6zM866 614 q-2 -31 -16 -104q-2 -4 -8 -4q-6 2 -4 8q10 35 18 102q0 6 6 5q4 -1 4 -7zM885 565q6 -12 14 -39q0 -16 -20 -16q-10 0 -17 14q4 6 10 4q2 -2 7 -6q10 0 6 15q-14 39 -2 41q6 0 20 -5q2 -8 -2 -12q-10 4 -14 4h-2zM944 563q-25 0 -24 -20q0 -14 22 -15q16 0 16 17 q0 20 -20 20q-4 0 -4 6t4 7q31 0 31 -33q0 -29 -27 -29q-33 0 -33 27q0 31 35 30q4 0 4 -4q0 -6 -4 -6zM985 551v-25q0 -6 -4 -6q-6 0 -6 7.5t-2 22.5t-2 23q0 6 6 7q6 0 6 -7.5t2 -21.5zM979 567q27 25 35 25q16 0 16 -62q0 -6 -6 -6q-4 0 -4 6q0 51 -6 52q-4 0 -27 -23 q-8 2 -8 8zM49 434q-23 -45 -6 -45q10 0 14 27q6 2 13 -2q-6 -37 -27 -37q-16 0 -16 20q0 16 12 43q6 0 10 -6zM74 412q0 -23 6 -29q18 0 12 51q4 4 10 2q10 -63 -20 -63q-20 0 -21 39q0 6 7 6q6 0 6 -6zM131 428q0 -49 10 -49q12 8 13 33q0 6 6 6q4 0 4 -6q0 -43 -23 -43 t-22 59q0 6 6 6t6 -6zM164 412q6 -29 16 -29t0 47q4 4 10 2q14 -59 -10 -59q-20 0 -26 37q-2 6 4 8q6 0 6 -6zM229 430q-14 -51 -2 -51q14 0 15 31q0 6 6 6t6 -6q0 -41 -27 -41t-8 63q6 2 10 -2zM256 408q2 -33 14 -33q10 0 9 20q-2 18 -7 27q4 6 11 6q8 -16 8 -39 q-2 -27 -21 -27q-23 0 -26 46q6 4 12 0zM319 383q0 6 7 6q6 0 6 -6q0 -4 -6 -4q-7 0 -7 4zM313 379q0 4 6 4t7 -4q0 -6 -7 -6q-6 0 -6 6zM317 381q0 4 7 4q4 0 4 -4q0 -6 -4 -6q-7 0 -7 6zM317 377q0 6 7 6q4 0 4 -6t-4 -6q-7 0 -7 6zM389 432q2 -14 0 -37q-4 -29 -4 -36 t-4 -7q-6 0 -6 4q0 10 2 39q2 23 2 37q-2 4 4 6q6 0 6 -6zM387 438q16 0 29 4q4 2 6 -2q2 -6 -2 -8q-14 -4 -33 -6q-4 6 0 12zM387 406q8 4 25 8q6 -6 2 -13q-6 -2 -25 -8q-6 7 -2 13zM432 420q0 6 6 6t6 -6t-6 -6t-6 6zM444 420q0 -37 -4 -53q0 -6 -6 -5q-6 0 -4 7 q2 16 2 51q0 6 6 6t6 -6zM438 424q16 8 21 8q16 0 16 -14q0 -29 -33 -33q-4 4 0 10q12 4 21 17q4 8 -4 8q-2 0 -15 -6q-6 2 -6 10zM453 397q18 -23 30 -41q2 -4 -2 -8q-6 -2 -8 2q-10 18 -29 39q3 6 9 8zM498 420q0 -43 0 -35q2 -14 16 -14q4 0 4 -6t-4 -7q-25 0 -27 23 q0 -2 0 39q0 6 7 6q4 0 4 -6zM498 401l18 -2q6 -2 6 -8q-2 -4 -8 -4l-18 4q-6 0 -4 6q0 6 6 4zM496 428l32 4q6 2 7 -4q2 -6 -5 -6l-32 -6q-6 0 -6 4q-2 6 4 8zM547 416q2 -33 2 -51h20q4 0 4 -5q0 -6 -4 -6h-32v6q0 16 -2 54q0 6 6 6t6 -4zM547 395l20 2q6 0 6 -6t-4 -6 l-20 -2q-6 0 -6 6t4 6zM543 416l30 10q4 -4 2 -10l-28 -10q-6 4 -4 10zM604 426v-39q-2 -25 -2 -34t-4 -9q-6 0 -6 6v36v40q0 4 6 4t6 -4zM592 354q12 14 35 52q2 6 8 2q4 -2 2 -9q-10 -14 -35 -53q-4 -4 -8 0t-2 8zM637 406q10 -14 25 -54q-6 -6 -13 -2q-2 10 -22 51 q-2 4 4 7q4 4 6 -2zM649 354q2 27 15 80q2 6 8 2q4 -2 2 -6q-2 -6 -12 -78q-2 -6 -7 -6q-6 2 -6 8zM715 416q-31 -2 -29 -33v-18q16 0 27 4q6 -4 4 -11q-10 -4 -41 -8v6v47q6 23 39 25q4 -6 0 -12zM682 393l25 6q6 0 8 -6q0 -4 -4 -6l-25 -6q-6 0 -8 4q0 6 4 8zM739 424 q4 -59 4 -51q0 -4 -6 -4t-6 4q0 -8 -4 51q6 4 12 0zM762 432q-4 2 -19 -8l-4 -2q-2 -2 -4 -2q-6 0 -6 6q0 4 6 4h-2l4 2q25 18 35 6q2 -2 2 -6q0 -16 -35 -35q-6 4 -4 11q21 12 27 24zM737 410q53 0 54 -25q0 -20 -52 -16q-2 4 2 10l27 -2q10 2 10 8q0 12 -24 12q2 0 -17 0 q-4 0 -4 6q0 7 4 7zM823 416h-4l-2 2q-4 2 -8 2v-2q12 -10 20 -21q20 -33 -20 -32q-6 0 -6 6t6 6q18 0 10 14q-8 10 -22 23v2q0 23 24 12h2q6 0 6 -6t-6 -6zM848 371v6q0 6 6 6t6 -6v-6q0 -6 -6 -6t-6 6zM848 373q0 6 6 6t6 -6q0 -4 -6 -4t-6 4zM856 373q0 6 4 6q6 0 6 -6 q0 -4 -6 -4q-4 0 -4 4zM854 381q0 4 6 4t6 -4q0 -6 -6 -6t-6 6zM930 422q-37 0 -37 -29q0 -18 29 -18q4 -4 2 -10q-43 -2 -43 28q0 41 49 41q6 0 6 -6t-6 -6zM958 416q-16 -4 -16 -15q0 -8 10 -8q14 0 13 8q-2 10 -9.5 15.5t-7.5 9.5t4 4q18 0 23 -27q4 -23 -23 -22 q-23 0 -22 20q0 18 24 27q6 -6 4 -12zM995 422v-20.5v-20.5q0 -6 -4 -6q-6 0 -6 6v20q-2 12 -2 21q0 6 6 6t6 -6zM995 424q6 -8 19 -23q-2 -6 -8 -6q-6 6 -21 23q-2 4 2 6q4 4 8 0zM1030 430l-14 -35q-8 -2 -10 4l14 35q2 4 6 2q6 -2 4 -6zM1034 430q8 -47 8 -49q0 -6 -4 -6 q-6 0 -6 4t-10 49q0 4 6 6q4 0 6 -4zM1094 461q-16 -43 -37 -131q0 -6 -6 -6q-6 2 -4 6q0 6 36 135q0 4 7 4q6 -2 4 -8zM1159 434v-24q-2 -14 -2 -21.5t-6 -7.5t-6 6q0 8 2 22.5t2 22.5t6 8q4 0 4 -6zM1118 434q16 6 64 27q6 -4 4 -10q-18 -10 -64 -27q-6 -2 -8 2q-2 6 4 8z M1208 469q0 -37 -4 -70q-2 -6 -6 -6q-6 2 -6 8q4 31 4 68q0 6 6 6t6 -6zM1223 426h-2q-2 0 -19 -4q-4 -2 -6 4q-2 4 4 6q14 6 21 6q10 2 12 -6v-14q-4 -27 -8 -27t-4 6v15q2 10 2 14zM1247 430q6 0 4 -4q-10 0 -4 -18q6 -16 19 -17q6 0 6 -6q0 -4 -6 -4q-31 0 -31 37 q0 18 16 18t6 -12q-8 -12 -18 -12q-6 0 -6 6t6 7t8 5zM1311 463q2 -33 8 -101q2 -6 -4 -8q-6 0 -7 5.5t-10 101.5q0 6 7 6q6 0 6 -4zM1305 467q18 8 57 27q4 4 6 -2q4 -4 0 -7q-20 -10 -57 -28q-6 4 -6 10zM1334.5 430q13.5 4 21.5 8q6 0 8 -4q0 -6 -4 -8q-14 -4 -45 -14 q-4 0 -6 4q-2 6 5 8t20.5 6zM1384 465v-74q0 -6 -6 -6q-4 0 -4 6v74q0 6 4 6q6 0 6 -6zM1415 436v0l-4 -12q0 -10 4 -22.5t6 -18.5q-2 -4 -10 -4q-2 8 -10 31q-8 39 14 39q12 0 12 -11q0 -27 -30 -26q-6 0 -6 6q0 4 11 7t13 11zM1438 393l-15 -10q-4 -4 -8 0q-2 4 2 8l13 10 q4 4 8 0t0 -8zM1470 430h-8q-6 2 -10 2q-6 0 -6 -6q0 -16 10 -16q8 0 8 22q0 6 6 6q4 0 5 -6q0 -35 -19 -35q-23 0 -22 29q0 23 30 16h4q2 -2 4.5 -2t2.5 -4q-1 -6 -5 -6zM1479 434q4 -12 10 -35q-4 -6 -10 -4q-4 10 -11 35q-2 6 5 8q4 0 6 -4zM1528 485v-100q0 -4 -6 -4 t-6 4v100q0 6 6 7q6 -1 6 -7zM1495 487q41 20 53 21q29 0 29 -29q0 -41 -59 -47q-4 0 -7 4q0 6 7 6q47 6 47 37q0 16 -17 17q-10 0 -49 -19q-6 4 -4 10zM1579 420l-2 -39q0 -6 -6 -6t-6 6l2 39q0 6 6 6t6 -6zM1575 451q0 6 4 6q6 0 6 -6q0 -4 -6 -5q-4 1 -4 5zM1616 463 q-2 -12 -10 -62q-2 -8 -2 -10h18q4 0 4 -4q0 -6 -4 -6q-33 -2 -29 22q4 20 11 60q2 6 6 6q6 -2 6 -6zM1593 430l41 8q6 0 6 -6q2 -4 -4 -6l-41 -8q-6 0 -8 4q0 6 6 8z" />
<glyph unicode="&#xa1;" d="M2236 684h-180q0 4 19 25q-41 96 -115 186q-33 -100 12 -170q-113 -4 -190 10q14 8 39 25v301q-4 4 -13 18q-8 8 -14 15q-8 10 0 22h176q29 -18 -18 -47q0 -86 8 -115q37 43 94 127q-2 4 -15.5 11.5t-13.5 13.5q131 6 175 -2q-45 -29 -50 -33q-29 -23 -106 -102 q66 -106 92 -150q53 -82 100 -135zM1800 969q-4 -6 -11 -17.5t-11 -15.5q-145 0 -213 -10q-2 -8 -2 -17q0 -33 34.5 -62.5t67.5 -29.5q16 0 27 8q29 18 86 47q4 -57 -62 -92q-53 -31 -117 -30q-25 0 -38 6q-113 41 -113 178q0 96 72 160q43 23 104 22q74 0 121 -33 q55 -38 55 -114zM1530 723q-18 0 -45 -10q-16 -6 -33 -6q-53 0 -102 67q-37 53 -54 111q-41 4 -53 -8v-74q4 -47 41 -68h-203q14 6 41 25v319q-16 8 -41 25q12 2 93 8q61 6 100 6q109 0 160 -43q12 -20 12 -47q0 -70 -82 -115q8 -6 78 -98q47 -65 88 -92zM1069 1116 q0 -18 -31 -47v-299q31 -31 31 -37q-127 0 -211 15q18 0 41 22v137q-35 8 -133 -10v-119q2 -6 41 -43q-150 0 -209 10q37 37 37 148q0 180 0 168q-2 4 -41 43q119 16 211 2q0 -6 -12 -14q-18 -12 -27 -23q0 -80 8 -115q88 0 125 9v108q-31 29 -31 45h201zM694 1257 q-35 -10 -67 -18q-45 -16 -74 -57q4 -45 -12 -95q-18 0 -56 5q-4 57 -49 92q-37 29 -84 28q-20 0 -37 -6q-33 -4 -57 -53q20 -78 160 -119q152 -43 192 -123q8 -117 -80 -176q-72 -51 -194 -51q-145 0 -240 61q-2 82 13 138q49 4 73 -13q-6 -51 43 -102t109 -51q66 0 96 71 v50q-33 33 -215 110q-143 61 -143 133q0 45 45 105q4 20 -29 53q-49 0 -82 23q0 33 21 98q6 0 18 5t16 5q41 -55 132 -141q47 25 139 24q37 0 184 -14q16 8 111 121h35q32 -48 32 -103zM1688 977q0 10 -4.5 33.5t-4.5 33.5q-35 33 -57 33q-18 -14 -35.5 -49t-17.5 -51h119z M1323 956q10 20 10 45q0 47 -33 74h-55q0 -106 10 -139q33 0 68 20zM207 584q0 -53 -6 -76l-13 2q2 29 7 55q6 35 32 35q20 0 21 -20q0 -16 -14.5 -22.5t-26.5 -12.5q-2 0 -4 -2v6q-2 2 -2 6l8 2q14 6 20 6q33 0 33 -26q0 -31 -65 -25q-4 4 0 10q53 -4 53 15q0 14 -21 14 q-4 0 -18 -4l-6 -4h-2v6l-2 -6q-14 4 0 12q12 4 24.5 9t12.5 16v8h-11q-18 0 -21 -28t-5 -50l-13 2q6 20 7 72q0 6 6 6t6 -6zM279 584q10 -12 24 -25q2 2 12 23l11 -4q-10 -25 -29 -76q-2 -6 -8 -4t-4 8q10 23 30 76l11 -7q-14 -29 -23 -28q-6 0 -33 28q1 7 9 9zM438 586 q-6 -29 -14 -90q-6 -2 -12 2q4 31 14 92q6 2 12 -4zM420 549q20 18 61 55q8 -2 8 -10q-6 -4 -61 -53q-6 2 -8 8zM436 555q16 -20 53 -66q4 -4 0 -8q-6 -4 -8 0q-10 12 -26.5 34t-26.5 32q2 8 8 8zM471 555q39 0 39 10q0 6 -10 6q-14 0 -15 -24q0 -20 19 -21q4 0 12 6 q6 0 8 -6q-10 -12 -20 -12q-31 0 -31 33q0 37 27 37q23 0 22 -19q0 -20 -51 -20q-4 0 -4 6q0 4 4 4zM543 571q2 -14 10 -43q6 20 16 56q8 2 13 -4q-6 -18 -10.5 -39t-24.5 -29q-6 16 -17 57q5 4 13 2zM604 569q-2 -18 -2 -49q0 -6 -4 -6q-6 0 -6 6v51q6 4 12 -2zM592 608 q0 6 6 6q4 0 4 -6t-4 -6q-6 0 -6 6zM629 545q0 -16 -6 -31q-6 0 -11 4q4 12 4 27v14q-2 8 -2 14t7 7q8 0 8 -35zM618 561q10 8 19.5 16.5t19.5 8.5q12 0 15 -15q2 -10 0 -30q-2 -23 -2 -25t-6 -2t-7 4q0 -6 5 31q2 25 -5 24q2 0 -32 -20q-7 2 -7 8zM770 528q-8 -23 -27 -32 q-2 10 -10 102q-2 6 4 6q6 2 6 -4q2 -29 9 -84q6 18 20 49q4 -23 19 -51q12 45 16 100q6 2 12 -2q-6 -57 -20 -112q-23 3 -29 28zM840 565q-2 -39 -2 -43t-7 -4q-6 0 -6 6q0 2 2 41q0 6 7 6q6 -2 6 -6zM831 600q0 4 7 4q4 0 4 -4q0 -6 -4 -6q-7 0 -7 6zM866 614 q-2 -31 -16 -104q-2 -4 -8 -4q-6 2 -4 8q10 35 18 102q0 6 6 5q4 -1 4 -7zM885 565q6 -12 14 -39q0 -16 -20 -16q-10 0 -17 14q4 6 10 4q2 -2 7 -6q10 0 6 15q-14 39 -2 41q6 0 20 -5q2 -8 -2 -12q-10 4 -14 4h-2zM944 563q-25 0 -24 -20q0 -14 22 -15q16 0 16 17 q0 20 -20 20q-4 0 -4 6t4 7q31 0 31 -33q0 -29 -27 -29q-33 0 -33 27q0 31 35 30q4 0 4 -4q0 -6 -4 -6zM985 551v-25q0 -6 -4 -6q-6 0 -6 7.5t-2 22.5t-2 23q0 6 6 7q6 0 6 -7.5t2 -21.5zM979 567q27 25 35 25q16 0 16 -62q0 -6 -6 -6q-4 0 -4 6q0 51 -6 52q-4 0 -27 -23 q-8 2 -8 8zM49 434q-23 -45 -6 -45q10 0 14 27q6 2 13 -2q-6 -37 -27 -37q-16 0 -16 20q0 16 12 43q6 0 10 -6zM74 412q0 -23 6 -29q18 0 12 51q4 4 10 2q10 -63 -20 -63q-20 0 -21 39q0 6 7 6q6 0 6 -6zM131 428q0 -49 10 -49q12 8 13 33q0 6 6 6q4 0 4 -6q0 -43 -23 -43 t-22 59q0 6 6 6t6 -6zM164 412q6 -29 16 -29t0 47q4 4 10 2q14 -59 -10 -59q-20 0 -26 37q-2 6 4 8q6 0 6 -6zM229 430q-14 -51 -2 -51q14 0 15 31q0 6 6 6t6 -6q0 -41 -27 -41t-8 63q6 2 10 -2zM256 408q2 -33 14 -33q10 0 9 20q-2 18 -7 27q4 6 11 6q8 -16 8 -39 q-2 -27 -21 -27q-23 0 -26 46q6 4 12 0zM319 383q0 6 7 6q6 0 6 -6q0 -4 -6 -4q-7 0 -7 4zM313 379q0 4 6 4t7 -4q0 -6 -7 -6q-6 0 -6 6zM317 381q0 4 7 4q4 0 4 -4q0 -6 -4 -6q-7 0 -7 6zM317 377q0 6 7 6q4 0 4 -6t-4 -6q-7 0 -7 6zM389 432q2 -14 0 -37q-4 -29 -4 -36 t-4 -7q-6 0 -6 4q0 10 2 39q2 23 2 37q-2 4 4 6q6 0 6 -6zM387 438q16 0 29 4q4 2 6 -2q2 -6 -2 -8q-14 -4 -33 -6q-4 6 0 12zM387 406q8 4 25 8q6 -6 2 -13q-6 -2 -25 -8q-6 7 -2 13zM432 420q0 6 6 6t6 -6t-6 -6t-6 6zM444 420q0 -37 -4 -53q0 -6 -6 -5q-6 0 -4 7 q2 16 2 51q0 6 6 6t6 -6zM438 424q16 8 21 8q16 0 16 -14q0 -29 -33 -33q-4 4 0 10q12 4 21 17q4 8 -4 8q-2 0 -15 -6q-6 2 -6 10zM453 397q18 -23 30 -41q2 -4 -2 -8q-6 -2 -8 2q-10 18 -29 39q3 6 9 8zM498 420q0 -43 0 -35q2 -14 16 -14q4 0 4 -6t-4 -7q-25 0 -27 23 q0 -2 0 39q0 6 7 6q4 0 4 -6zM498 401l18 -2q6 -2 6 -8q-2 -4 -8 -4l-18 4q-6 0 -4 6q0 6 6 4zM496 428l32 4q6 2 7 -4q2 -6 -5 -6l-32 -6q-6 0 -6 4q-2 6 4 8zM547 416q2 -33 2 -51h20q4 0 4 -5q0 -6 -4 -6h-32v6q0 16 -2 54q0 6 6 6t6 -4zM547 395l20 2q6 0 6 -6t-4 -6 l-20 -2q-6 0 -6 6t4 6zM543 416l30 10q4 -4 2 -10l-28 -10q-6 4 -4 10zM604 426v-39q-2 -25 -2 -34t-4 -9q-6 0 -6 6v36v40q0 4 6 4t6 -4zM592 354q12 14 35 52q2 6 8 2q4 -2 2 -9q-10 -14 -35 -53q-4 -4 -8 0t-2 8zM637 406q10 -14 25 -54q-6 -6 -13 -2q-2 10 -22 51 q-2 4 4 7q4 4 6 -2zM649 354q2 27 15 80q2 6 8 2q4 -2 2 -6q-2 -6 -12 -78q-2 -6 -7 -6q-6 2 -6 8zM715 416q-31 -2 -29 -33v-18q16 0 27 4q6 -4 4 -11q-10 -4 -41 -8v6v47q6 23 39 25q4 -6 0 -12zM682 393l25 6q6 0 8 -6q0 -4 -4 -6l-25 -6q-6 0 -8 4q0 6 4 8zM739 424 q4 -59 4 -51q0 -4 -6 -4t-6 4q0 -8 -4 51q6 4 12 0zM762 432q-4 2 -19 -8l-4 -2q-2 -2 -4 -2q-6 0 -6 6q0 4 6 4h-2l4 2q25 18 35 6q2 -2 2 -6q0 -16 -35 -35q-6 4 -4 11q21 12 27 24zM737 410q53 0 54 -25q0 -20 -52 -16q-2 4 2 10l27 -2q10 2 10 8q0 12 -24 12q2 0 -17 0 q-4 0 -4 6q0 7 4 7zM823 416h-4l-2 2q-4 2 -8 2v-2q12 -10 20 -21q20 -33 -20 -32q-6 0 -6 6t6 6q18 0 10 14q-8 10 -22 23v2q0 23 24 12h2q6 0 6 -6t-6 -6zM848 371v6q0 6 6 6t6 -6v-6q0 -6 -6 -6t-6 6zM848 373q0 6 6 6t6 -6q0 -4 -6 -4t-6 4zM856 373q0 6 4 6q6 0 6 -6 q0 -4 -6 -4q-4 0 -4 4zM854 381q0 4 6 4t6 -4q0 -6 -6 -6t-6 6zM930 422q-37 0 -37 -29q0 -18 29 -18q4 -4 2 -10q-43 -2 -43 28q0 41 49 41q6 0 6 -6t-6 -6zM958 416q-16 -4 -16 -15q0 -8 10 -8q14 0 13 8q-2 10 -9.5 15.5t-7.5 9.5t4 4q18 0 23 -27q4 -23 -23 -22 q-23 0 -22 20q0 18 24 27q6 -6 4 -12zM995 422v-20.5v-20.5q0 -6 -4 -6q-6 0 -6 6v20q-2 12 -2 21q0 6 6 6t6 -6zM995 424q6 -8 19 -23q-2 -6 -8 -6q-6 6 -21 23q-2 4 2 6q4 4 8 0zM1030 430l-14 -35q-8 -2 -10 4l14 35q2 4 6 2q6 -2 4 -6zM1034 430q8 -47 8 -49q0 -6 -4 -6 q-6 0 -6 4t-10 49q0 4 6 6q4 0 6 -4zM1094 461q-16 -43 -37 -131q0 -6 -6 -6q-6 2 -4 6q0 6 36 135q0 4 7 4q6 -2 4 -8zM1159 434v-24q-2 -14 -2 -21.5t-6 -7.5t-6 6q0 8 2 22.5t2 22.5t6 8q4 0 4 -6zM1118 434q16 6 64 27q6 -4 4 -10q-18 -10 -64 -27q-6 -2 -8 2q-2 6 4 8z M1208 469q0 -37 -4 -70q-2 -6 -6 -6q-6 2 -6 8q4 31 4 68q0 6 6 6t6 -6zM1223 426h-2q-2 0 -19 -4q-4 -2 -6 4q-2 4 4 6q14 6 21 6q10 2 12 -6v-14q-4 -27 -8 -27t-4 6v15q2 10 2 14zM1247 430q6 0 4 -4q-10 0 -4 -18q6 -16 19 -17q6 0 6 -6q0 -4 -6 -4q-31 0 -31 37 q0 18 16 18t6 -12q-8 -12 -18 -12q-6 0 -6 6t6 7t8 5zM1311 463q2 -33 8 -101q2 -6 -4 -8q-6 0 -7 5.5t-10 101.5q0 6 7 6q6 0 6 -4zM1305 467q18 8 57 27q4 4 6 -2q4 -4 0 -7q-20 -10 -57 -28q-6 4 -6 10zM1334.5 430q13.5 4 21.5 8q6 0 8 -4q0 -6 -4 -8q-14 -4 -45 -14 q-4 0 -6 4q-2 6 5 8t20.5 6zM1384 465v-74q0 -6 -6 -6q-4 0 -4 6v74q0 6 4 6q6 0 6 -6zM1415 436v0l-4 -12q0 -10 4 -22.5t6 -18.5q-2 -4 -10 -4q-2 8 -10 31q-8 39 14 39q12 0 12 -11q0 -27 -30 -26q-6 0 -6 6q0 4 11 7t13 11zM1438 393l-15 -10q-4 -4 -8 0q-2 4 2 8l13 10 q4 4 8 0t0 -8zM1470 430h-8q-6 2 -10 2q-6 0 -6 -6q0 -16 10 -16q8 0 8 22q0 6 6 6q4 0 5 -6q0 -35 -19 -35q-23 0 -22 29q0 23 30 16h4q2 -2 4.5 -2t2.5 -4q-1 -6 -5 -6zM1479 434q4 -12 10 -35q-4 -6 -10 -4q-4 10 -11 35q-2 6 5 8q4 0 6 -4zM1528 485v-100q0 -4 -6 -4 t-6 4v100q0 6 6 7q6 -1 6 -7zM1495 487q41 20 53 21q29 0 29 -29q0 -41 -59 -47q-4 0 -7 4q0 6 7 6q47 6 47 37q0 16 -17 17q-10 0 -49 -19q-6 4 -4 10zM1579 420l-2 -39q0 -6 -6 -6t-6 6l2 39q0 6 6 6t6 -6zM1575 451q0 6 4 6q6 0 6 -6q0 -4 -6 -5q-4 1 -4 5zM1616 463 q-2 -12 -10 -62q-2 -8 -2 -10h18q4 0 4 -4q0 -6 -4 -6q-33 -2 -29 22q4 20 11 60q2 6 6 6q6 -2 6 -6zM1593 430l41 8q6 0 6 -6q2 -4 -4 -6l-41 -8q-6 0 -8 4q0 6 6 8z" />
<glyph unicode="&#xa2;" d="M2236 684h-180q0 4 19 25q-41 96 -115 186q-33 -100 12 -170q-113 -4 -190 10q14 8 39 25v301q-4 4 -13 18q-8 8 -14 15q-8 10 0 22h176q29 -18 -18 -47q0 -86 8 -115q37 43 94 127q-2 4 -15.5 11.5t-13.5 13.5q131 6 175 -2q-45 -29 -50 -33q-29 -23 -106 -102 q66 -106 92 -150q53 -82 100 -135zM1800 969q-4 -6 -11 -17.5t-11 -15.5q-145 0 -213 -10q-2 -8 -2 -17q0 -33 34.5 -62.5t67.5 -29.5q16 0 27 8q29 18 86 47q4 -57 -62 -92q-53 -31 -117 -30q-25 0 -38 6q-113 41 -113 178q0 96 72 160q43 23 104 22q74 0 121 -33 q55 -38 55 -114zM1530 723q-18 0 -45 -10q-16 -6 -33 -6q-53 0 -102 67q-37 53 -54 111q-41 4 -53 -8v-74q4 -47 41 -68h-203q14 6 41 25v319q-16 8 -41 25q12 2 93 8q61 6 100 6q109 0 160 -43q12 -20 12 -47q0 -70 -82 -115q8 -6 78 -98q47 -65 88 -92zM1069 1116 q0 -18 -31 -47v-299q31 -31 31 -37q-127 0 -211 15q18 0 41 22v137q-35 8 -133 -10v-119q2 -6 41 -43q-150 0 -209 10q37 37 37 148q0 180 0 168q-2 4 -41 43q119 16 211 2q0 -6 -12 -14q-18 -12 -27 -23q0 -80 8 -115q88 0 125 9v108q-31 29 -31 45h201zM694 1257 q-35 -10 -67 -18q-45 -16 -74 -57q4 -45 -12 -95q-18 0 -56 5q-4 57 -49 92q-37 29 -84 28q-20 0 -37 -6q-33 -4 -57 -53q20 -78 160 -119q152 -43 192 -123q8 -117 -80 -176q-72 -51 -194 -51q-145 0 -240 61q-2 82 13 138q49 4 73 -13q-6 -51 43 -102t109 -51q66 0 96 71 v50q-33 33 -215 110q-143 61 -143 133q0 45 45 105q4 20 -29 53q-49 0 -82 23q0 33 21 98q6 0 18 5t16 5q41 -55 132 -141q47 25 139 24q37 0 184 -14q16 8 111 121h35q32 -48 32 -103zM1688 977q0 10 -4.5 33.5t-4.5 33.5q-35 33 -57 33q-18 -14 -35.5 -49t-17.5 -51h119z M1323 956q10 20 10 45q0 47 -33 74h-55q0 -106 10 -139q33 0 68 20zM207 584q0 -53 -6 -76l-13 2q2 29 7 55q6 35 32 35q20 0 21 -20q0 -16 -14.5 -22.5t-26.5 -12.5q-2 0 -4 -2v6q-2 2 -2 6l8 2q14 6 20 6q33 0 33 -26q0 -31 -65 -25q-4 4 0 10q53 -4 53 15q0 14 -21 14 q-4 0 -18 -4l-6 -4h-2v6l-2 -6q-14 4 0 12q12 4 24.5 9t12.5 16v8h-11q-18 0 -21 -28t-5 -50l-13 2q6 20 7 72q0 6 6 6t6 -6zM279 584q10 -12 24 -25q2 2 12 23l11 -4q-10 -25 -29 -76q-2 -6 -8 -4t-4 8q10 23 30 76l11 -7q-14 -29 -23 -28q-6 0 -33 28q1 7 9 9zM438 586 q-6 -29 -14 -90q-6 -2 -12 2q4 31 14 92q6 2 12 -4zM420 549q20 18 61 55q8 -2 8 -10q-6 -4 -61 -53q-6 2 -8 8zM436 555q16 -20 53 -66q4 -4 0 -8q-6 -4 -8 0q-10 12 -26.5 34t-26.5 32q2 8 8 8zM471 555q39 0 39 10q0 6 -10 6q-14 0 -15 -24q0 -20 19 -21q4 0 12 6 q6 0 8 -6q-10 -12 -20 -12q-31 0 -31 33q0 37 27 37q23 0 22 -19q0 -20 -51 -20q-4 0 -4 6q0 4 4 4zM543 571q2 -14 10 -43q6 20 16 56q8 2 13 -4q-6 -18 -10.5 -39t-24.5 -29q-6 16 -17 57q5 4 13 2zM604 569q-2 -18 -2 -49q0 -6 -4 -6q-6 0 -6 6v51q6 4 12 -2zM592 608 q0 6 6 6q4 0 4 -6t-4 -6q-6 0 -6 6zM629 545q0 -16 -6 -31q-6 0 -11 4q4 12 4 27v14q-2 8 -2 14t7 7q8 0 8 -35zM618 561q10 8 19.5 16.5t19.5 8.5q12 0 15 -15q2 -10 0 -30q-2 -23 -2 -25t-6 -2t-7 4q0 -6 5 31q2 25 -5 24q2 0 -32 -20q-7 2 -7 8zM770 528q-8 -23 -27 -32 q-2 10 -10 102q-2 6 4 6q6 2 6 -4q2 -29 9 -84q6 18 20 49q4 -23 19 -51q12 45 16 100q6 2 12 -2q-6 -57 -20 -112q-23 3 -29 28zM840 565q-2 -39 -2 -43t-7 -4q-6 0 -6 6q0 2 2 41q0 6 7 6q6 -2 6 -6zM831 600q0 4 7 4q4 0 4 -4q0 -6 -4 -6q-7 0 -7 6zM866 614 q-2 -31 -16 -104q-2 -4 -8 -4q-6 2 -4 8q10 35 18 102q0 6 6 5q4 -1 4 -7zM885 565q6 -12 14 -39q0 -16 -20 -16q-10 0 -17 14q4 6 10 4q2 -2 7 -6q10 0 6 15q-14 39 -2 41q6 0 20 -5q2 -8 -2 -12q-10 4 -14 4h-2zM944 563q-25 0 -24 -20q0 -14 22 -15q16 0 16 17 q0 20 -20 20q-4 0 -4 6t4 7q31 0 31 -33q0 -29 -27 -29q-33 0 -33 27q0 31 35 30q4 0 4 -4q0 -6 -4 -6zM985 551v-25q0 -6 -4 -6q-6 0 -6 7.5t-2 22.5t-2 23q0 6 6 7q6 0 6 -7.5t2 -21.5zM979 567q27 25 35 25q16 0 16 -62q0 -6 -6 -6q-4 0 -4 6q0 51 -6 52q-4 0 -27 -23 q-8 2 -8 8zM49 434q-23 -45 -6 -45q10 0 14 27q6 2 13 -2q-6 -37 -27 -37q-16 0 -16 20q0 16 12 43q6 0 10 -6zM74 412q0 -23 6 -29q18 0 12 51q4 4 10 2q10 -63 -20 -63q-20 0 -21 39q0 6 7 6q6 0 6 -6zM131 428q0 -49 10 -49q12 8 13 33q0 6 6 6q4 0 4 -6q0 -43 -23 -43 t-22 59q0 6 6 6t6 -6zM164 412q6 -29 16 -29t0 47q4 4 10 2q14 -59 -10 -59q-20 0 -26 37q-2 6 4 8q6 0 6 -6zM229 430q-14 -51 -2 -51q14 0 15 31q0 6 6 6t6 -6q0 -41 -27 -41t-8 63q6 2 10 -2zM256 408q2 -33 14 -33q10 0 9 20q-2 18 -7 27q4 6 11 6q8 -16 8 -39 q-2 -27 -21 -27q-23 0 -26 46q6 4 12 0zM319 383q0 6 7 6q6 0 6 -6q0 -4 -6 -4q-7 0 -7 4zM313 379q0 4 6 4t7 -4q0 -6 -7 -6q-6 0 -6 6zM317 381q0 4 7 4q4 0 4 -4q0 -6 -4 -6q-7 0 -7 6zM317 377q0 6 7 6q4 0 4 -6t-4 -6q-7 0 -7 6zM389 432q2 -14 0 -37q-4 -29 -4 -36 t-4 -7q-6 0 -6 4q0 10 2 39q2 23 2 37q-2 4 4 6q6 0 6 -6zM387 438q16 0 29 4q4 2 6 -2q2 -6 -2 -8q-14 -4 -33 -6q-4 6 0 12zM387 406q8 4 25 8q6 -6 2 -13q-6 -2 -25 -8q-6 7 -2 13zM432 420q0 6 6 6t6 -6t-6 -6t-6 6zM444 420q0 -37 -4 -53q0 -6 -6 -5q-6 0 -4 7 q2 16 2 51q0 6 6 6t6 -6zM438 424q16 8 21 8q16 0 16 -14q0 -29 -33 -33q-4 4 0 10q12 4 21 17q4 8 -4 8q-2 0 -15 -6q-6 2 -6 10zM453 397q18 -23 30 -41q2 -4 -2 -8q-6 -2 -8 2q-10 18 -29 39q3 6 9 8zM498 420q0 -43 0 -35q2 -14 16 -14q4 0 4 -6t-4 -7q-25 0 -27 23 q0 -2 0 39q0 6 7 6q4 0 4 -6zM498 401l18 -2q6 -2 6 -8q-2 -4 -8 -4l-18 4q-6 0 -4 6q0 6 6 4zM496 428l32 4q6 2 7 -4q2 -6 -5 -6l-32 -6q-6 0 -6 4q-2 6 4 8zM547 416q2 -33 2 -51h20q4 0 4 -5q0 -6 -4 -6h-32v6q0 16 -2 54q0 6 6 6t6 -4zM547 395l20 2q6 0 6 -6t-4 -6 l-20 -2q-6 0 -6 6t4 6zM543 416l30 10q4 -4 2 -10l-28 -10q-6 4 -4 10zM604 426v-39q-2 -25 -2 -34t-4 -9q-6 0 -6 6v36v40q0 4 6 4t6 -4zM592 354q12 14 35 52q2 6 8 2q4 -2 2 -9q-10 -14 -35 -53q-4 -4 -8 0t-2 8zM637 406q10 -14 25 -54q-6 -6 -13 -2q-2 10 -22 51 q-2 4 4 7q4 4 6 -2zM649 354q2 27 15 80q2 6 8 2q4 -2 2 -6q-2 -6 -12 -78q-2 -6 -7 -6q-6 2 -6 8zM715 416q-31 -2 -29 -33v-18q16 0 27 4q6 -4 4 -11q-10 -4 -41 -8v6v47q6 23 39 25q4 -6 0 -12zM682 393l25 6q6 0 8 -6q0 -4 -4 -6l-25 -6q-6 0 -8 4q0 6 4 8zM739 424 q4 -59 4 -51q0 -4 -6 -4t-6 4q0 -8 -4 51q6 4 12 0zM762 432q-4 2 -19 -8l-4 -2q-2 -2 -4 -2q-6 0 -6 6q0 4 6 4h-2l4 2q25 18 35 6q2 -2 2 -6q0 -16 -35 -35q-6 4 -4 11q21 12 27 24zM737 410q53 0 54 -25q0 -20 -52 -16q-2 4 2 10l27 -2q10 2 10 8q0 12 -24 12q2 0 -17 0 q-4 0 -4 6q0 7 4 7zM823 416h-4l-2 2q-4 2 -8 2v-2q12 -10 20 -21q20 -33 -20 -32q-6 0 -6 6t6 6q18 0 10 14q-8 10 -22 23v2q0 23 24 12h2q6 0 6 -6t-6 -6zM848 371v6q0 6 6 6t6 -6v-6q0 -6 -6 -6t-6 6zM848 373q0 6 6 6t6 -6q0 -4 -6 -4t-6 4zM856 373q0 6 4 6q6 0 6 -6 q0 -4 -6 -4q-4 0 -4 4zM854 381q0 4 6 4t6 -4q0 -6 -6 -6t-6 6zM930 422q-37 0 -37 -29q0 -18 29 -18q4 -4 2 -10q-43 -2 -43 28q0 41 49 41q6 0 6 -6t-6 -6zM958 416q-16 -4 -16 -15q0 -8 10 -8q14 0 13 8q-2 10 -9.5 15.5t-7.5 9.5t4 4q18 0 23 -27q4 -23 -23 -22 q-23 0 -22 20q0 18 24 27q6 -6 4 -12zM995 422v-20.5v-20.5q0 -6 -4 -6q-6 0 -6 6v20q-2 12 -2 21q0 6 6 6t6 -6zM995 424q6 -8 19 -23q-2 -6 -8 -6q-6 6 -21 23q-2 4 2 6q4 4 8 0zM1030 430l-14 -35q-8 -2 -10 4l14 35q2 4 6 2q6 -2 4 -6zM1034 430q8 -47 8 -49q0 -6 -4 -6 q-6 0 -6 4t-10 49q0 4 6 6q4 0 6 -4zM1094 461q-16 -43 -37 -131q0 -6 -6 -6q-6 2 -4 6q0 6 36 135q0 4 7 4q6 -2 4 -8zM1159 434v-24q-2 -14 -2 -21.5t-6 -7.5t-6 6q0 8 2 22.5t2 22.5t6 8q4 0 4 -6zM1118 434q16 6 64 27q6 -4 4 -10q-18 -10 -64 -27q-6 -2 -8 2q-2 6 4 8z M1208 469q0 -37 -4 -70q-2 -6 -6 -6q-6 2 -6 8q4 31 4 68q0 6 6 6t6 -6zM1223 426h-2q-2 0 -19 -4q-4 -2 -6 4q-2 4 4 6q14 6 21 6q10 2 12 -6v-14q-4 -27 -8 -27t-4 6v15q2 10 2 14zM1247 430q6 0 4 -4q-10 0 -4 -18q6 -16 19 -17q6 0 6 -6q0 -4 -6 -4q-31 0 -31 37 q0 18 16 18t6 -12q-8 -12 -18 -12q-6 0 -6 6t6 7t8 5zM1311 463q2 -33 8 -101q2 -6 -4 -8q-6 0 -7 5.5t-10 101.5q0 6 7 6q6 0 6 -4zM1305 467q18 8 57 27q4 4 6 -2q4 -4 0 -7q-20 -10 -57 -28q-6 4 -6 10zM1334.5 430q13.5 4 21.5 8q6 0 8 -4q0 -6 -4 -8q-14 -4 -45 -14 q-4 0 -6 4q-2 6 5 8t20.5 6zM1384 465v-74q0 -6 -6 -6q-4 0 -4 6v74q0 6 4 6q6 0 6 -6zM1415 436v0l-4 -12q0 -10 4 -22.5t6 -18.5q-2 -4 -10 -4q-2 8 -10 31q-8 39 14 39q12 0 12 -11q0 -27 -30 -26q-6 0 -6 6q0 4 11 7t13 11zM1438 393l-15 -10q-4 -4 -8 0q-2 4 2 8l13 10 q4 4 8 0t0 -8zM1470 430h-8q-6 2 -10 2q-6 0 -6 -6q0 -16 10 -16q8 0 8 22q0 6 6 6q4 0 5 -6q0 -35 -19 -35q-23 0 -22 29q0 23 30 16h4q2 -2 4.5 -2t2.5 -4q-1 -6 -5 -6zM1479 434q4 -12 10 -35q-4 -6 -10 -4q-4 10 -11 35q-2 6 5 8q4 0 6 -4zM1528 485v-100q0 -4 -6 -4 t-6 4v100q0 6 6 7q6 -1 6 -7zM1495 487q41 20 53 21q29 0 29 -29q0 -41 -59 -47q-4 0 -7 4q0 6 7 6q47 6 47 37q0 16 -17 17q-10 0 -49 -19q-6 4 -4 10zM1579 420l-2 -39q0 -6 -6 -6t-6 6l2 39q0 6 6 6t6 -6zM1575 451q0 6 4 6q6 0 6 -6q0 -4 -6 -5q-4 1 -4 5zM1616 463 q-2 -12 -10 -62q-2 -8 -2 -10h18q4 0 4 -4q0 -6 -4 -6q-33 -2 -29 22q4 20 11 60q2 6 6 6q6 -2 6 -6zM1593 430l41 8q6 0 6 -6q2 -4 -4 -6l-41 -8q-6 0 -8 4q0 6 6 8z" />
<glyph unicode="&#xa3;" horiz-adv-x="1871" d="M1853 1053q-41 -27 -138 -57.5t-144 -57.5q-86 -82 -488 -426q39 -18 159 -36.5t188 -47.5q111 -47 182 -145q37 -98 24 -197q-94 -209 -327 -311q-197 -86 -469 -86q-291 0 -547 86l-74 75q0 31 55 87q115 -33 230 -64q139 -37 237 -37q211 0 344 166q18 37 19 78 q0 104 -103.5 188t-222.5 84q-49 0 -88 -14v84l250 184q154 111 240 223h-547q-12 -12 -32.5 -21t-33.5 -22v-118q-59 -33 -155 -27q-29 43 -47 121q-12 70 -27 139q-43 57 -129 90q-20 8 -135 39q-63 16 -66 39q-4 12 -4 27q0 92 131 221q68 8 152 -127q100 -158 180 -195 q188 -4 522 9q373 16 455 16q68 33 158 176q80 127 124 127q12 0 25 -4q111 -104 111 -211q-1 -26 -9 -55z" />
<glyph unicode="&#xa4;" d="M2236 684h-180q0 4 19 25q-41 96 -115 186q-33 -100 12 -170q-113 -4 -190 10q14 8 39 25v301q-4 4 -13 18q-8 8 -14 15q-8 10 0 22h176q29 -18 -18 -47q0 -86 8 -115q37 43 94 127q-2 4 -15.5 11.5t-13.5 13.5q131 6 175 -2q-45 -29 -50 -33q-29 -23 -106 -102 q66 -106 92 -150q53 -82 100 -135zM1800 969q-4 -6 -11 -17.5t-11 -15.5q-145 0 -213 -10q-2 -8 -2 -17q0 -33 34.5 -62.5t67.5 -29.5q16 0 27 8q29 18 86 47q4 -57 -62 -92q-53 -31 -117 -30q-25 0 -38 6q-113 41 -113 178q0 96 72 160q43 23 104 22q74 0 121 -33 q55 -38 55 -114zM1530 723q-18 0 -45 -10q-16 -6 -33 -6q-53 0 -102 67q-37 53 -54 111q-41 4 -53 -8v-74q4 -47 41 -68h-203q14 6 41 25v319q-16 8 -41 25q12 2 93 8q61 6 100 6q109 0 160 -43q12 -20 12 -47q0 -70 -82 -115q8 -6 78 -98q47 -65 88 -92zM1069 1116 q0 -18 -31 -47v-299q31 -31 31 -37q-127 0 -211 15q18 0 41 22v137q-35 8 -133 -10v-119q2 -6 41 -43q-150 0 -209 10q37 37 37 148q0 180 0 168q-2 4 -41 43q119 16 211 2q0 -6 -12 -14q-18 -12 -27 -23q0 -80 8 -115q88 0 125 9v108q-31 29 -31 45h201zM694 1257 q-35 -10 -67 -18q-45 -16 -74 -57q4 -45 -12 -95q-18 0 -56 5q-4 57 -49 92q-37 29 -84 28q-20 0 -37 -6q-33 -4 -57 -53q20 -78 160 -119q152 -43 192 -123q8 -117 -80 -176q-72 -51 -194 -51q-145 0 -240 61q-2 82 13 138q49 4 73 -13q-6 -51 43 -102t109 -51q66 0 96 71 v50q-33 33 -215 110q-143 61 -143 133q0 45 45 105q4 20 -29 53q-49 0 -82 23q0 33 21 98q6 0 18 5t16 5q41 -55 132 -141q47 25 139 24q37 0 184 -14q16 8 111 121h35q32 -48 32 -103zM1688 977q0 10 -4.5 33.5t-4.5 33.5q-35 33 -57 33q-18 -14 -35.5 -49t-17.5 -51h119z M1323 956q10 20 10 45q0 47 -33 74h-55q0 -106 10 -139q33 0 68 20zM207 584q0 -53 -6 -76l-13 2q2 29 7 55q6 35 32 35q20 0 21 -20q0 -16 -14.5 -22.5t-26.5 -12.5q-2 0 -4 -2v6q-2 2 -2 6l8 2q14 6 20 6q33 0 33 -26q0 -31 -65 -25q-4 4 0 10q53 -4 53 15q0 14 -21 14 q-4 0 -18 -4l-6 -4h-2v6l-2 -6q-14 4 0 12q12 4 24.5 9t12.5 16v8h-11q-18 0 -21 -28t-5 -50l-13 2q6 20 7 72q0 6 6 6t6 -6zM279 584q10 -12 24 -25q2 2 12 23l11 -4q-10 -25 -29 -76q-2 -6 -8 -4t-4 8q10 23 30 76l11 -7q-14 -29 -23 -28q-6 0 -33 28q1 7 9 9zM438 586 q-6 -29 -14 -90q-6 -2 -12 2q4 31 14 92q6 2 12 -4zM420 549q20 18 61 55q8 -2 8 -10q-6 -4 -61 -53q-6 2 -8 8zM436 555q16 -20 53 -66q4 -4 0 -8q-6 -4 -8 0q-10 12 -26.5 34t-26.5 32q2 8 8 8zM471 555q39 0 39 10q0 6 -10 6q-14 0 -15 -24q0 -20 19 -21q4 0 12 6 q6 0 8 -6q-10 -12 -20 -12q-31 0 -31 33q0 37 27 37q23 0 22 -19q0 -20 -51 -20q-4 0 -4 6q0 4 4 4zM543 571q2 -14 10 -43q6 20 16 56q8 2 13 -4q-6 -18 -10.5 -39t-24.5 -29q-6 16 -17 57q5 4 13 2zM604 569q-2 -18 -2 -49q0 -6 -4 -6q-6 0 -6 6v51q6 4 12 -2zM592 608 q0 6 6 6q4 0 4 -6t-4 -6q-6 0 -6 6zM629 545q0 -16 -6 -31q-6 0 -11 4q4 12 4 27v14q-2 8 -2 14t7 7q8 0 8 -35zM618 561q10 8 19.5 16.5t19.5 8.5q12 0 15 -15q2 -10 0 -30q-2 -23 -2 -25t-6 -2t-7 4q0 -6 5 31q2 25 -5 24q2 0 -32 -20q-7 2 -7 8zM770 528q-8 -23 -27 -32 q-2 10 -10 102q-2 6 4 6q6 2 6 -4q2 -29 9 -84q6 18 20 49q4 -23 19 -51q12 45 16 100q6 2 12 -2q-6 -57 -20 -112q-23 3 -29 28zM840 565q-2 -39 -2 -43t-7 -4q-6 0 -6 6q0 2 2 41q0 6 7 6q6 -2 6 -6zM831 600q0 4 7 4q4 0 4 -4q0 -6 -4 -6q-7 0 -7 6zM866 614 q-2 -31 -16 -104q-2 -4 -8 -4q-6 2 -4 8q10 35 18 102q0 6 6 5q4 -1 4 -7zM885 565q6 -12 14 -39q0 -16 -20 -16q-10 0 -17 14q4 6 10 4q2 -2 7 -6q10 0 6 15q-14 39 -2 41q6 0 20 -5q2 -8 -2 -12q-10 4 -14 4h-2zM944 563q-25 0 -24 -20q0 -14 22 -15q16 0 16 17 q0 20 -20 20q-4 0 -4 6t4 7q31 0 31 -33q0 -29 -27 -29q-33 0 -33 27q0 31 35 30q4 0 4 -4q0 -6 -4 -6zM985 551v-25q0 -6 -4 -6q-6 0 -6 7.5t-2 22.5t-2 23q0 6 6 7q6 0 6 -7.5t2 -21.5zM979 567q27 25 35 25q16 0 16 -62q0 -6 -6 -6q-4 0 -4 6q0 51 -6 52q-4 0 -27 -23 q-8 2 -8 8zM49 434q-23 -45 -6 -45q10 0 14 27q6 2 13 -2q-6 -37 -27 -37q-16 0 -16 20q0 16 12 43q6 0 10 -6zM74 412q0 -23 6 -29q18 0 12 51q4 4 10 2q10 -63 -20 -63q-20 0 -21 39q0 6 7 6q6 0 6 -6zM131 428q0 -49 10 -49q12 8 13 33q0 6 6 6q4 0 4 -6q0 -43 -23 -43 t-22 59q0 6 6 6t6 -6zM164 412q6 -29 16 -29t0 47q4 4 10 2q14 -59 -10 -59q-20 0 -26 37q-2 6 4 8q6 0 6 -6zM229 430q-14 -51 -2 -51q14 0 15 31q0 6 6 6t6 -6q0 -41 -27 -41t-8 63q6 2 10 -2zM256 408q2 -33 14 -33q10 0 9 20q-2 18 -7 27q4 6 11 6q8 -16 8 -39 q-2 -27 -21 -27q-23 0 -26 46q6 4 12 0zM319 383q0 6 7 6q6 0 6 -6q0 -4 -6 -4q-7 0 -7 4zM313 379q0 4 6 4t7 -4q0 -6 -7 -6q-6 0 -6 6zM317 381q0 4 7 4q4 0 4 -4q0 -6 -4 -6q-7 0 -7 6zM317 377q0 6 7 6q4 0 4 -6t-4 -6q-7 0 -7 6zM389 432q2 -14 0 -37q-4 -29 -4 -36 t-4 -7q-6 0 -6 4q0 10 2 39q2 23 2 37q-2 4 4 6q6 0 6 -6zM387 438q16 0 29 4q4 2 6 -2q2 -6 -2 -8q-14 -4 -33 -6q-4 6 0 12zM387 406q8 4 25 8q6 -6 2 -13q-6 -2 -25 -8q-6 7 -2 13zM432 420q0 6 6 6t6 -6t-6 -6t-6 6zM444 420q0 -37 -4 -53q0 -6 -6 -5q-6 0 -4 7 q2 16 2 51q0 6 6 6t6 -6zM438 424q16 8 21 8q16 0 16 -14q0 -29 -33 -33q-4 4 0 10q12 4 21 17q4 8 -4 8q-2 0 -15 -6q-6 2 -6 10zM453 397q18 -23 30 -41q2 -4 -2 -8q-6 -2 -8 2q-10 18 -29 39q3 6 9 8zM498 420q0 -43 0 -35q2 -14 16 -14q4 0 4 -6t-4 -7q-25 0 -27 23 q0 -2 0 39q0 6 7 6q4 0 4 -6zM498 401l18 -2q6 -2 6 -8q-2 -4 -8 -4l-18 4q-6 0 -4 6q0 6 6 4zM496 428l32 4q6 2 7 -4q2 -6 -5 -6l-32 -6q-6 0 -6 4q-2 6 4 8zM547 416q2 -33 2 -51h20q4 0 4 -5q0 -6 -4 -6h-32v6q0 16 -2 54q0 6 6 6t6 -4zM547 395l20 2q6 0 6 -6t-4 -6 l-20 -2q-6 0 -6 6t4 6zM543 416l30 10q4 -4 2 -10l-28 -10q-6 4 -4 10zM604 426v-39q-2 -25 -2 -34t-4 -9q-6 0 -6 6v36v40q0 4 6 4t6 -4zM592 354q12 14 35 52q2 6 8 2q4 -2 2 -9q-10 -14 -35 -53q-4 -4 -8 0t-2 8zM637 406q10 -14 25 -54q-6 -6 -13 -2q-2 10 -22 51 q-2 4 4 7q4 4 6 -2zM649 354q2 27 15 80q2 6 8 2q4 -2 2 -6q-2 -6 -12 -78q-2 -6 -7 -6q-6 2 -6 8zM715 416q-31 -2 -29 -33v-18q16 0 27 4q6 -4 4 -11q-10 -4 -41 -8v6v47q6 23 39 25q4 -6 0 -12zM682 393l25 6q6 0 8 -6q0 -4 -4 -6l-25 -6q-6 0 -8 4q0 6 4 8zM739 424 q4 -59 4 -51q0 -4 -6 -4t-6 4q0 -8 -4 51q6 4 12 0zM762 432q-4 2 -19 -8l-4 -2q-2 -2 -4 -2q-6 0 -6 6q0 4 6 4h-2l4 2q25 18 35 6q2 -2 2 -6q0 -16 -35 -35q-6 4 -4 11q21 12 27 24zM737 410q53 0 54 -25q0 -20 -52 -16q-2 4 2 10l27 -2q10 2 10 8q0 12 -24 12q2 0 -17 0 q-4 0 -4 6q0 7 4 7zM823 416h-4l-2 2q-4 2 -8 2v-2q12 -10 20 -21q20 -33 -20 -32q-6 0 -6 6t6 6q18 0 10 14q-8 10 -22 23v2q0 23 24 12h2q6 0 6 -6t-6 -6zM848 371v6q0 6 6 6t6 -6v-6q0 -6 -6 -6t-6 6zM848 373q0 6 6 6t6 -6q0 -4 -6 -4t-6 4zM856 373q0 6 4 6q6 0 6 -6 q0 -4 -6 -4q-4 0 -4 4zM854 381q0 4 6 4t6 -4q0 -6 -6 -6t-6 6zM930 422q-37 0 -37 -29q0 -18 29 -18q4 -4 2 -10q-43 -2 -43 28q0 41 49 41q6 0 6 -6t-6 -6zM958 416q-16 -4 -16 -15q0 -8 10 -8q14 0 13 8q-2 10 -9.5 15.5t-7.5 9.5t4 4q18 0 23 -27q4 -23 -23 -22 q-23 0 -22 20q0 18 24 27q6 -6 4 -12zM995 422v-20.5v-20.5q0 -6 -4 -6q-6 0 -6 6v20q-2 12 -2 21q0 6 6 6t6 -6zM995 424q6 -8 19 -23q-2 -6 -8 -6q-6 6 -21 23q-2 4 2 6q4 4 8 0zM1030 430l-14 -35q-8 -2 -10 4l14 35q2 4 6 2q6 -2 4 -6zM1034 430q8 -47 8 -49q0 -6 -4 -6 q-6 0 -6 4t-10 49q0 4 6 6q4 0 6 -4zM1094 461q-16 -43 -37 -131q0 -6 -6 -6q-6 2 -4 6q0 6 36 135q0 4 7 4q6 -2 4 -8zM1159 434v-24q-2 -14 -2 -21.5t-6 -7.5t-6 6q0 8 2 22.5t2 22.5t6 8q4 0 4 -6zM1118 434q16 6 64 27q6 -4 4 -10q-18 -10 -64 -27q-6 -2 -8 2q-2 6 4 8z M1208 469q0 -37 -4 -70q-2 -6 -6 -6q-6 2 -6 8q4 31 4 68q0 6 6 6t6 -6zM1223 426h-2q-2 0 -19 -4q-4 -2 -6 4q-2 4 4 6q14 6 21 6q10 2 12 -6v-14q-4 -27 -8 -27t-4 6v15q2 10 2 14zM1247 430q6 0 4 -4q-10 0 -4 -18q6 -16 19 -17q6 0 6 -6q0 -4 -6 -4q-31 0 -31 37 q0 18 16 18t6 -12q-8 -12 -18 -12q-6 0 -6 6t6 7t8 5zM1311 463q2 -33 8 -101q2 -6 -4 -8q-6 0 -7 5.5t-10 101.5q0 6 7 6q6 0 6 -4zM1305 467q18 8 57 27q4 4 6 -2q4 -4 0 -7q-20 -10 -57 -28q-6 4 -6 10zM1334.5 430q13.5 4 21.5 8q6 0 8 -4q0 -6 -4 -8q-14 -4 -45 -14 q-4 0 -6 4q-2 6 5 8t20.5 6zM1384 465v-74q0 -6 -6 -6q-4 0 -4 6v74q0 6 4 6q6 0 6 -6zM1415 436v0l-4 -12q0 -10 4 -22.5t6 -18.5q-2 -4 -10 -4q-2 8 -10 31q-8 39 14 39q12 0 12 -11q0 -27 -30 -26q-6 0 -6 6q0 4 11 7t13 11zM1438 393l-15 -10q-4 -4 -8 0q-2 4 2 8l13 10 q4 4 8 0t0 -8zM1470 430h-8q-6 2 -10 2q-6 0 -6 -6q0 -16 10 -16q8 0 8 22q0 6 6 6q4 0 5 -6q0 -35 -19 -35q-23 0 -22 29q0 23 30 16h4q2 -2 4.5 -2t2.5 -4q-1 -6 -5 -6zM1479 434q4 -12 10 -35q-4 -6 -10 -4q-4 10 -11 35q-2 6 5 8q4 0 6 -4zM1528 485v-100q0 -4 -6 -4 t-6 4v100q0 6 6 7q6 -1 6 -7zM1495 487q41 20 53 21q29 0 29 -29q0 -41 -59 -47q-4 0 -7 4q0 6 7 6q47 6 47 37q0 16 -17 17q-10 0 -49 -19q-6 4 -4 10zM1579 420l-2 -39q0 -6 -6 -6t-6 6l2 39q0 6 6 6t6 -6zM1575 451q0 6 4 6q6 0 6 -6q0 -4 -6 -5q-4 1 -4 5zM1616 463 q-2 -12 -10 -62q-2 -8 -2 -10h18q4 0 4 -4q0 -6 -4 -6q-33 -2 -29 22q4 20 11 60q2 6 6 6q6 -2 6 -6zM1593 430l41 8q6 0 6 -6q2 -4 -4 -6l-41 -8q-6 0 -8 4q0 6 6 8z" />
<glyph unicode="&#xa5;" d="M2236 684h-180q0 4 19 25q-41 96 -115 186q-33 -100 12 -170q-113 -4 -190 10q14 8 39 25v301q-4 4 -13 18q-8 8 -14 15q-8 10 0 22h176q29 -18 -18 -47q0 -86 8 -115q37 43 94 127q-2 4 -15.5 11.5t-13.5 13.5q131 6 175 -2q-45 -29 -50 -33q-29 -23 -106 -102 q66 -106 92 -150q53 -82 100 -135zM1800 969q-4 -6 -11 -17.5t-11 -15.5q-145 0 -213 -10q-2 -8 -2 -17q0 -33 34.5 -62.5t67.5 -29.5q16 0 27 8q29 18 86 47q4 -57 -62 -92q-53 -31 -117 -30q-25 0 -38 6q-113 41 -113 178q0 96 72 160q43 23 104 22q74 0 121 -33 q55 -38 55 -114zM1530 723q-18 0 -45 -10q-16 -6 -33 -6q-53 0 -102 67q-37 53 -54 111q-41 4 -53 -8v-74q4 -47 41 -68h-203q14 6 41 25v319q-16 8 -41 25q12 2 93 8q61 6 100 6q109 0 160 -43q12 -20 12 -47q0 -70 -82 -115q8 -6 78 -98q47 -65 88 -92zM1069 1116 q0 -18 -31 -47v-299q31 -31 31 -37q-127 0 -211 15q18 0 41 22v137q-35 8 -133 -10v-119q2 -6 41 -43q-150 0 -209 10q37 37 37 148q0 180 0 168q-2 4 -41 43q119 16 211 2q0 -6 -12 -14q-18 -12 -27 -23q0 -80 8 -115q88 0 125 9v108q-31 29 -31 45h201zM694 1257 q-35 -10 -67 -18q-45 -16 -74 -57q4 -45 -12 -95q-18 0 -56 5q-4 57 -49 92q-37 29 -84 28q-20 0 -37 -6q-33 -4 -57 -53q20 -78 160 -119q152 -43 192 -123q8 -117 -80 -176q-72 -51 -194 -51q-145 0 -240 61q-2 82 13 138q49 4 73 -13q-6 -51 43 -102t109 -51q66 0 96 71 v50q-33 33 -215 110q-143 61 -143 133q0 45 45 105q4 20 -29 53q-49 0 -82 23q0 33 21 98q6 0 18 5t16 5q41 -55 132 -141q47 25 139 24q37 0 184 -14q16 8 111 121h35q32 -48 32 -103zM1688 977q0 10 -4.5 33.5t-4.5 33.5q-35 33 -57 33q-18 -14 -35.5 -49t-17.5 -51h119z M1323 956q10 20 10 45q0 47 -33 74h-55q0 -106 10 -139q33 0 68 20zM207 584q0 -53 -6 -76l-13 2q2 29 7 55q6 35 32 35q20 0 21 -20q0 -16 -14.5 -22.5t-26.5 -12.5q-2 0 -4 -2v6q-2 2 -2 6l8 2q14 6 20 6q33 0 33 -26q0 -31 -65 -25q-4 4 0 10q53 -4 53 15q0 14 -21 14 q-4 0 -18 -4l-6 -4h-2v6l-2 -6q-14 4 0 12q12 4 24.5 9t12.5 16v8h-11q-18 0 -21 -28t-5 -50l-13 2q6 20 7 72q0 6 6 6t6 -6zM279 584q10 -12 24 -25q2 2 12 23l11 -4q-10 -25 -29 -76q-2 -6 -8 -4t-4 8q10 23 30 76l11 -7q-14 -29 -23 -28q-6 0 -33 28q1 7 9 9zM438 586 q-6 -29 -14 -90q-6 -2 -12 2q4 31 14 92q6 2 12 -4zM420 549q20 18 61 55q8 -2 8 -10q-6 -4 -61 -53q-6 2 -8 8zM436 555q16 -20 53 -66q4 -4 0 -8q-6 -4 -8 0q-10 12 -26.5 34t-26.5 32q2 8 8 8zM471 555q39 0 39 10q0 6 -10 6q-14 0 -15 -24q0 -20 19 -21q4 0 12 6 q6 0 8 -6q-10 -12 -20 -12q-31 0 -31 33q0 37 27 37q23 0 22 -19q0 -20 -51 -20q-4 0 -4 6q0 4 4 4zM543 571q2 -14 10 -43q6 20 16 56q8 2 13 -4q-6 -18 -10.5 -39t-24.5 -29q-6 16 -17 57q5 4 13 2zM604 569q-2 -18 -2 -49q0 -6 -4 -6q-6 0 -6 6v51q6 4 12 -2zM592 608 q0 6 6 6q4 0 4 -6t-4 -6q-6 0 -6 6zM629 545q0 -16 -6 -31q-6 0 -11 4q4 12 4 27v14q-2 8 -2 14t7 7q8 0 8 -35zM618 561q10 8 19.5 16.5t19.5 8.5q12 0 15 -15q2 -10 0 -30q-2 -23 -2 -25t-6 -2t-7 4q0 -6 5 31q2 25 -5 24q2 0 -32 -20q-7 2 -7 8zM770 528q-8 -23 -27 -32 q-2 10 -10 102q-2 6 4 6q6 2 6 -4q2 -29 9 -84q6 18 20 49q4 -23 19 -51q12 45 16 100q6 2 12 -2q-6 -57 -20 -112q-23 3 -29 28zM840 565q-2 -39 -2 -43t-7 -4q-6 0 -6 6q0 2 2 41q0 6 7 6q6 -2 6 -6zM831 600q0 4 7 4q4 0 4 -4q0 -6 -4 -6q-7 0 -7 6zM866 614 q-2 -31 -16 -104q-2 -4 -8 -4q-6 2 -4 8q10 35 18 102q0 6 6 5q4 -1 4 -7zM885 565q6 -12 14 -39q0 -16 -20 -16q-10 0 -17 14q4 6 10 4q2 -2 7 -6q10 0 6 15q-14 39 -2 41q6 0 20 -5q2 -8 -2 -12q-10 4 -14 4h-2zM944 563q-25 0 -24 -20q0 -14 22 -15q16 0 16 17 q0 20 -20 20q-4 0 -4 6t4 7q31 0 31 -33q0 -29 -27 -29q-33 0 -33 27q0 31 35 30q4 0 4 -4q0 -6 -4 -6zM985 551v-25q0 -6 -4 -6q-6 0 -6 7.5t-2 22.5t-2 23q0 6 6 7q6 0 6 -7.5t2 -21.5zM979 567q27 25 35 25q16 0 16 -62q0 -6 -6 -6q-4 0 -4 6q0 51 -6 52q-4 0 -27 -23 q-8 2 -8 8zM49 434q-23 -45 -6 -45q10 0 14 27q6 2 13 -2q-6 -37 -27 -37q-16 0 -16 20q0 16 12 43q6 0 10 -6zM74 412q0 -23 6 -29q18 0 12 51q4 4 10 2q10 -63 -20 -63q-20 0 -21 39q0 6 7 6q6 0 6 -6zM131 428q0 -49 10 -49q12 8 13 33q0 6 6 6q4 0 4 -6q0 -43 -23 -43 t-22 59q0 6 6 6t6 -6zM164 412q6 -29 16 -29t0 47q4 4 10 2q14 -59 -10 -59q-20 0 -26 37q-2 6 4 8q6 0 6 -6zM229 430q-14 -51 -2 -51q14 0 15 31q0 6 6 6t6 -6q0 -41 -27 -41t-8 63q6 2 10 -2zM256 408q2 -33 14 -33q10 0 9 20q-2 18 -7 27q4 6 11 6q8 -16 8 -39 q-2 -27 -21 -27q-23 0 -26 46q6 4 12 0zM319 383q0 6 7 6q6 0 6 -6q0 -4 -6 -4q-7 0 -7 4zM313 379q0 4 6 4t7 -4q0 -6 -7 -6q-6 0 -6 6zM317 381q0 4 7 4q4 0 4 -4q0 -6 -4 -6q-7 0 -7 6zM317 377q0 6 7 6q4 0 4 -6t-4 -6q-7 0 -7 6zM389 432q2 -14 0 -37q-4 -29 -4 -36 t-4 -7q-6 0 -6 4q0 10 2 39q2 23 2 37q-2 4 4 6q6 0 6 -6zM387 438q16 0 29 4q4 2 6 -2q2 -6 -2 -8q-14 -4 -33 -6q-4 6 0 12zM387 406q8 4 25 8q6 -6 2 -13q-6 -2 -25 -8q-6 7 -2 13zM432 420q0 6 6 6t6 -6t-6 -6t-6 6zM444 420q0 -37 -4 -53q0 -6 -6 -5q-6 0 -4 7 q2 16 2 51q0 6 6 6t6 -6zM438 424q16 8 21 8q16 0 16 -14q0 -29 -33 -33q-4 4 0 10q12 4 21 17q4 8 -4 8q-2 0 -15 -6q-6 2 -6 10zM453 397q18 -23 30 -41q2 -4 -2 -8q-6 -2 -8 2q-10 18 -29 39q3 6 9 8zM498 420q0 -43 0 -35q2 -14 16 -14q4 0 4 -6t-4 -7q-25 0 -27 23 q0 -2 0 39q0 6 7 6q4 0 4 -6zM498 401l18 -2q6 -2 6 -8q-2 -4 -8 -4l-18 4q-6 0 -4 6q0 6 6 4zM496 428l32 4q6 2 7 -4q2 -6 -5 -6l-32 -6q-6 0 -6 4q-2 6 4 8zM547 416q2 -33 2 -51h20q4 0 4 -5q0 -6 -4 -6h-32v6q0 16 -2 54q0 6 6 6t6 -4zM547 395l20 2q6 0 6 -6t-4 -6 l-20 -2q-6 0 -6 6t4 6zM543 416l30 10q4 -4 2 -10l-28 -10q-6 4 -4 10zM604 426v-39q-2 -25 -2 -34t-4 -9q-6 0 -6 6v36v40q0 4 6 4t6 -4zM592 354q12 14 35 52q2 6 8 2q4 -2 2 -9q-10 -14 -35 -53q-4 -4 -8 0t-2 8zM637 406q10 -14 25 -54q-6 -6 -13 -2q-2 10 -22 51 q-2 4 4 7q4 4 6 -2zM649 354q2 27 15 80q2 6 8 2q4 -2 2 -6q-2 -6 -12 -78q-2 -6 -7 -6q-6 2 -6 8zM715 416q-31 -2 -29 -33v-18q16 0 27 4q6 -4 4 -11q-10 -4 -41 -8v6v47q6 23 39 25q4 -6 0 -12zM682 393l25 6q6 0 8 -6q0 -4 -4 -6l-25 -6q-6 0 -8 4q0 6 4 8zM739 424 q4 -59 4 -51q0 -4 -6 -4t-6 4q0 -8 -4 51q6 4 12 0zM762 432q-4 2 -19 -8l-4 -2q-2 -2 -4 -2q-6 0 -6 6q0 4 6 4h-2l4 2q25 18 35 6q2 -2 2 -6q0 -16 -35 -35q-6 4 -4 11q21 12 27 24zM737 410q53 0 54 -25q0 -20 -52 -16q-2 4 2 10l27 -2q10 2 10 8q0 12 -24 12q2 0 -17 0 q-4 0 -4 6q0 7 4 7zM823 416h-4l-2 2q-4 2 -8 2v-2q12 -10 20 -21q20 -33 -20 -32q-6 0 -6 6t6 6q18 0 10 14q-8 10 -22 23v2q0 23 24 12h2q6 0 6 -6t-6 -6zM848 371v6q0 6 6 6t6 -6v-6q0 -6 -6 -6t-6 6zM848 373q0 6 6 6t6 -6q0 -4 -6 -4t-6 4zM856 373q0 6 4 6q6 0 6 -6 q0 -4 -6 -4q-4 0 -4 4zM854 381q0 4 6 4t6 -4q0 -6 -6 -6t-6 6zM930 422q-37 0 -37 -29q0 -18 29 -18q4 -4 2 -10q-43 -2 -43 28q0 41 49 41q6 0 6 -6t-6 -6zM958 416q-16 -4 -16 -15q0 -8 10 -8q14 0 13 8q-2 10 -9.5 15.5t-7.5 9.5t4 4q18 0 23 -27q4 -23 -23 -22 q-23 0 -22 20q0 18 24 27q6 -6 4 -12zM995 422v-20.5v-20.5q0 -6 -4 -6q-6 0 -6 6v20q-2 12 -2 21q0 6 6 6t6 -6zM995 424q6 -8 19 -23q-2 -6 -8 -6q-6 6 -21 23q-2 4 2 6q4 4 8 0zM1030 430l-14 -35q-8 -2 -10 4l14 35q2 4 6 2q6 -2 4 -6zM1034 430q8 -47 8 -49q0 -6 -4 -6 q-6 0 -6 4t-10 49q0 4 6 6q4 0 6 -4zM1094 461q-16 -43 -37 -131q0 -6 -6 -6q-6 2 -4 6q0 6 36 135q0 4 7 4q6 -2 4 -8zM1159 434v-24q-2 -14 -2 -21.5t-6 -7.5t-6 6q0 8 2 22.5t2 22.5t6 8q4 0 4 -6zM1118 434q16 6 64 27q6 -4 4 -10q-18 -10 -64 -27q-6 -2 -8 2q-2 6 4 8z M1208 469q0 -37 -4 -70q-2 -6 -6 -6q-6 2 -6 8q4 31 4 68q0 6 6 6t6 -6zM1223 426h-2q-2 0 -19 -4q-4 -2 -6 4q-2 4 4 6q14 6 21 6q10 2 12 -6v-14q-4 -27 -8 -27t-4 6v15q2 10 2 14zM1247 430q6 0 4 -4q-10 0 -4 -18q6 -16 19 -17q6 0 6 -6q0 -4 -6 -4q-31 0 -31 37 q0 18 16 18t6 -12q-8 -12 -18 -12q-6 0 -6 6t6 7t8 5zM1311 463q2 -33 8 -101q2 -6 -4 -8q-6 0 -7 5.5t-10 101.5q0 6 7 6q6 0 6 -4zM1305 467q18 8 57 27q4 4 6 -2q4 -4 0 -7q-20 -10 -57 -28q-6 4 -6 10zM1334.5 430q13.5 4 21.5 8q6 0 8 -4q0 -6 -4 -8q-14 -4 -45 -14 q-4 0 -6 4q-2 6 5 8t20.5 6zM1384 465v-74q0 -6 -6 -6q-4 0 -4 6v74q0 6 4 6q6 0 6 -6zM1415 436v0l-4 -12q0 -10 4 -22.5t6 -18.5q-2 -4 -10 -4q-2 8 -10 31q-8 39 14 39q12 0 12 -11q0 -27 -30 -26q-6 0 -6 6q0 4 11 7t13 11zM1438 393l-15 -10q-4 -4 -8 0q-2 4 2 8l13 10 q4 4 8 0t0 -8zM1470 430h-8q-6 2 -10 2q-6 0 -6 -6q0 -16 10 -16q8 0 8 22q0 6 6 6q4 0 5 -6q0 -35 -19 -35q-23 0 -22 29q0 23 30 16h4q2 -2 4.5 -2t2.5 -4q-1 -6 -5 -6zM1479 434q4 -12 10 -35q-4 -6 -10 -4q-4 10 -11 35q-2 6 5 8q4 0 6 -4zM1528 485v-100q0 -4 -6 -4 t-6 4v100q0 6 6 7q6 -1 6 -7zM1495 487q41 20 53 21q29 0 29 -29q0 -41 -59 -47q-4 0 -7 4q0 6 7 6q47 6 47 37q0 16 -17 17q-10 0 -49 -19q-6 4 -4 10zM1579 420l-2 -39q0 -6 -6 -6t-6 6l2 39q0 6 6 6t6 -6zM1575 451q0 6 4 6q6 0 6 -6q0 -4 -6 -5q-4 1 -4 5zM1616 463 q-2 -12 -10 -62q-2 -8 -2 -10h18q4 0 4 -4q0 -6 -4 -6q-33 -2 -29 22q4 20 11 60q2 6 6 6q6 -2 6 -6zM1593 430l41 8q6 0 6 -6q2 -4 -4 -6l-41 -8q-6 0 -8 4q0 6 6 8z" />
</font>
</defs>
</svg>
